<svg xmlns="http://www.w3.org/2000/svg" width="2919.59" height="646.668" viewBox="0 0 2919.59 646.668">
  <g id="그룹_2963" data-name="그룹 2963" transform="translate(927.02 -609.096)">
    <path id="패스_2285" data-name="패스 2285" d="M-689.622,0H-652.7l-51.816-143.208h-40.392L-796.722,0h36.516l8.568-25.3h53.448Zm-17.544-52.224h-35.292l17.544-52.428Zm167.076-90.984h-53.652V0h53.652c45.7,0,75.072-29.172,75.072-71.6C-465.018-114.24-494.394-143.208-540.09-143.208ZM-558.858-30.192v-83.232h16.524c26.316,0,41.82,15.5,41.82,41.82s-15.5,41.412-41.82,41.412ZM-445.434,0h34.884V-113.832h-34.884Zm17.544-125.664c12.24,0,20.6-8.364,20.6-18.768,0-10.608-8.364-18.972-20.6-18.972-12.444,0-20.808,8.364-20.808,18.972C-448.7-134.028-440.334-125.664-427.89-125.664Zm35.7,68.544c0,35.9,22.236,58.752,50.184,58.752,16.728,0,28.764-7.956,35.088-17.952V-.2c0,19.176-10.4,26.112-23.664,26.112-12.036,0-20.6-5.508-22.848-14.076h-34.476c3.06,27.132,25.092,44.268,58.956,44.268,39.372,0,56.916-25.908,56.916-56.3V-113.832h-34.884v16.116c-6.12-10.2-18.36-17.748-35.088-17.748C-369.954-115.464-392.19-93.024-392.19-57.12Zm85.272.2c0,18.156-11.628,28.152-24.888,28.152-13.056,0-24.888-10.2-24.888-28.356s11.832-27.948,24.888-27.948C-318.546-85.068-306.918-75.072-306.918-56.916ZM-246.738,0h34.884V-113.832h-34.884Zm17.544-125.664c12.24,0,20.6-8.364,20.6-18.768,0-10.608-8.364-18.972-20.6-18.972-12.444,0-20.808,8.364-20.808,18.972C-250-134.028-241.638-125.664-229.194-125.664Zm48.144,86.088C-181.05-10-164.526,0-140.862,0h17.748V-29.58h-12.444c-7.752,0-10.608-2.856-10.608-9.588v-45.7h22.848v-28.968h-22.848v-27.744H-181.05v27.744h-13.872v28.968h13.872Zm70.38-17.544c0,35.9,22.236,58.752,49.98,58.752,16.932,0,28.968-7.752,35.292-17.748V0H9.486V-113.832H-25.4v16.116c-6.12-10-18.156-17.748-35.088-17.748C-88.434-115.464-110.67-93.024-110.67-57.12Zm85.272.2c0,18.156-11.628,28.152-24.888,28.152-13.056,0-24.888-10.2-24.888-28.356s11.832-27.948,24.888-27.948C-37.026-85.068-25.4-75.072-25.4-56.916ZM34.782,0H69.666V-150.96H34.782ZM242.25-42.636c0-47.94-70.788-36.72-70.788-61.608,0-8.976,6.324-13.26,14.688-13.056,9.384.2,15.912,5.712,16.524,14.892h37.74c-1.428-27.336-22.44-42.84-53.652-42.84-29.988,0-52.224,15.1-52.224,42.228-.408,50.8,71.2,36.516,71.2,63.036,0,8.364-6.528,13.464-16.728,13.464-9.792,0-16.728-5.3-17.748-16.32H134.13c1.02,28.968,25.092,44.268,55.9,44.268C223.482,1.428,242.25-18.564,242.25-42.636Zm26.928,3.06C269.178-10,285.7,0,309.366,0h17.748V-29.58H314.67c-7.752,0-10.608-2.856-10.608-9.588v-45.7H326.91v-28.968H304.062v-27.744H269.178v27.744H255.306v28.968h13.872ZM458.9-113.832H424.014V-52.02c0,15.5-8.568,24.072-22.032,24.072-13.056,0-21.828-8.568-21.828-24.072v-61.812h-34.68v66.5c0,30.4,17.748,48.552,44.064,48.552,15.3,0,27.54-6.936,34.476-16.728V0H458.9ZM477.054-57.12c0,35.9,22.236,58.752,50.184,58.752,16.728,0,28.764-7.548,35.088-17.952V0H597.21V-150.96H562.326v52.836c-6.936-10.4-19.992-17.34-35.088-17.34C499.29-115.464,477.054-93.024,477.054-57.12Zm85.272.2c0,18.156-11.628,28.152-24.888,28.152-13.056,0-24.888-10.2-24.888-28.356s11.832-27.948,24.888-27.948C550.7-85.068,562.326-75.072,562.326-56.916ZM622.506,0H657.39V-113.832H622.506ZM640.05-125.664c12.24,0,20.6-8.364,20.6-18.768,0-10.608-8.364-18.972-20.6-18.972-12.444,0-20.808,8.364-20.808,18.972C619.242-134.028,627.606-125.664,640.05-125.664ZM794.07-56.916c0-36.108-25.7-58.548-59.16-58.548-33.252,0-59.16,22.44-59.16,58.548S701.046,1.632,734.5,1.632,794.07-20.808,794.07-56.916Zm-82.824,0c0-19.38,11.016-28.356,23.664-28.356,12.24,0,23.664,8.976,23.664,28.356,0,19.176-11.628,28.356-24.072,28.356C721.854-28.56,711.246-37.74,711.246-56.916Z" transform="translate(1198 773)" fill="none" stroke="#6dd2ff" stroke-width="1"/>
    <path id="패스_2284" data-name="패스 2284" d="M-940.746-143.208V0h80.58V-26.928h-45.7v-116.28Zm147.492,55.692c11.628,0,21.42,7.14,21.42,19.584H-815.49C-813.45-80.58-804.678-87.516-793.254-87.516Zm54.468,49.776h-37.128c-2.856,6.12-8.364,11.016-18.156,11.016-11.22,0-20.4-6.936-21.624-21.828h78.948a88.161,88.161,0,0,0,.612-10.2c0-34.68-23.46-56.712-56.712-56.712-33.864,0-57.528,22.44-57.528,58.548S-826.3,1.632-792.846,1.632C-764.49,1.632-744.294-15.5-738.786-37.74Zm14.076-19.38c0,35.9,22.236,58.752,49.98,58.752,16.932,0,28.968-7.752,35.292-17.748V0h34.884V-113.832h-34.884v16.116c-6.12-10-18.156-17.748-35.088-17.748C-702.474-115.464-724.71-93.024-724.71-57.12Zm85.272.2c0,18.156-11.628,28.152-24.888,28.152-13.056,0-24.888-10.2-24.888-28.356s11.832-27.948,24.888-27.948C-651.066-85.068-639.438-75.072-639.438-56.916Zm53.244-.2c0,35.9,22.236,58.752,50.184,58.752,16.728,0,28.764-7.548,35.088-17.952V0h34.884V-150.96h-34.884v52.836c-6.936-10.4-19.992-17.34-35.088-17.34C-563.958-115.464-586.194-93.024-586.194-57.12Zm85.272.2c0,18.156-11.628,28.152-24.888,28.152-13.056,0-24.888-10.2-24.888-28.356s11.832-27.948,24.888-27.948C-512.55-85.068-500.922-75.072-500.922-56.916ZM-440.742,0h34.884V-113.832h-34.884ZM-423.2-125.664c12.24,0,20.6-8.364,20.6-18.768,0-10.608-8.364-18.972-20.6-18.972-12.444,0-20.808,8.364-20.808,18.972C-444.006-134.028-435.642-125.664-423.2-125.664ZM-302.022,0h34.68V-66.5c0-30.6-17.544-48.552-43.86-48.552-15.3,0-27.54,6.732-34.476,16.32v-15.1h-34.884V0h34.884V-61.812c0-15.5,8.568-24.072,21.828-24.072s21.828,8.568,21.828,24.072ZM-250-57.12c0,35.9,22.236,58.752,50.184,58.752,16.728,0,28.764-7.956,35.088-17.952V-.2c0,19.176-10.4,26.112-23.664,26.112-12.036,0-20.6-5.508-22.848-14.076h-34.476c3.06,27.132,25.092,44.268,58.956,44.268,39.372,0,56.916-25.908,56.916-56.3V-113.832H-164.73v16.116c-6.12-10.2-18.36-17.748-35.088-17.748C-227.766-115.464-250-93.024-250-57.12Zm85.272.2c0,18.156-11.628,28.152-24.888,28.152-13.056,0-24.888-10.2-24.888-28.356s11.832-27.948,24.888-27.948C-176.358-85.068-164.73-75.072-164.73-56.916Zm95.676-58.344H-31.11V0H3.774V-115.26H41.718v-27.948H-69.054ZM59.262,0H94.146V-61.812c0-15.5,8.568-24.072,21.828-24.072S137.8-77.316,137.8-61.812V0h34.68V-66.5c0-30.6-17.34-48.552-43.248-48.552-15.708,0-28.152,6.732-35.088,16.524V-150.96H59.262Zm187.68-87.516c11.628,0,21.42,7.14,21.42,19.584H224.706C226.746-80.58,235.518-87.516,246.942-87.516ZM301.41-37.74H264.282c-2.856,6.12-8.364,11.016-18.156,11.016-11.22,0-20.4-6.936-21.624-21.828H303.45a88.154,88.154,0,0,0,.612-10.2c0-34.68-23.46-56.712-56.712-56.712-33.864,0-57.528,22.44-57.528,58.548S213.894,1.632,247.35,1.632C275.706,1.632,295.9-15.5,301.41-37.74ZM463.386,0H500.31L448.494-143.208H408.1L356.286,0H392.8l8.568-25.3h53.448ZM445.842-52.224H410.55l17.544-52.428ZM608.43-33.048c-.612-42.432-62.22-29.58-62.22-47.736,0-5.508,4.488-8.772,12.648-8.772,9.792,0,15.708,5.1,16.728,12.852h32.232c-2.244-22.44-18.564-38.76-47.94-38.76-29.784,0-46.308,15.912-46.308,35.292,0,41.82,62.016,28.56,62.016,46.92,0,5.1-4.692,9.18-13.668,9.18-9.588,0-16.728-5.3-17.544-13.26H509.9C511.53-15.3,531.93,1.632,562.326,1.632,590.886,1.632,608.43-13.26,608.43-33.048ZM629.85,0h34.884V-113.832H629.85Zm17.544-125.664c12.24,0,20.6-8.364,20.6-18.768,0-10.608-8.364-18.972-20.6-18.972-12.444,0-20.808,8.364-20.808,18.972C626.586-134.028,634.95-125.664,647.394-125.664Zm35.7,68.544c0,35.9,22.236,58.752,49.98,58.752,16.932,0,28.968-7.752,35.292-17.748V0H803.25V-113.832H768.366v16.116c-6.12-10-18.156-17.748-35.088-17.748C705.33-115.464,683.094-93.024,683.094-57.12Zm85.272.2c0,18.156-11.628,28.152-24.888,28.152-13.056,0-24.888-10.2-24.888-28.356s11.832-27.948,24.888-27.948C756.738-85.068,768.366-75.072,768.366-56.916ZM907.086,0h34.68V-66.5c0-30.6-17.544-48.552-43.86-48.552-15.3,0-27.54,6.732-34.476,16.32v-15.1H828.546V0H863.43V-61.812c0-15.5,8.568-24.072,21.828-24.072s21.828,8.568,21.828,24.072Z" transform="translate(605 987)" fill="none" stroke="#6dd2ff" stroke-width="1"/>
    <path id="패스_2283" data-name="패스 2283" d="M-960.636-79.152v-35.9h18.972c13.872,0,19.788,6.936,19.788,17.952s-5.916,17.952-19.788,17.952ZM-886.38-97.1c0-26.316-17.544-46.1-52.632-46.1H-995.52V0h34.884V-51.408h21.624C-902.5-51.408-886.38-73.44-886.38-97.1Zm129.54,40.188c0-36.108-25.7-58.548-59.16-58.548-33.252,0-59.16,22.44-59.16,58.548s25.3,58.548,58.752,58.548S-756.84-20.808-756.84-56.916Zm-82.824,0c0-19.38,11.016-28.356,23.664-28.356,12.24,0,23.664,8.976,23.664,28.356,0,19.176-11.628,28.356-24.072,28.356C-829.056-28.56-839.664-37.74-839.664-56.916Zm136.272-40.8v-16.116h-34.884v168.1h34.884V-15.912c6.324,9.588,18.36,17.544,35.088,17.544,27.948,0,50.184-22.848,50.184-58.752s-22.236-58.344-50.184-58.344C-685.032-115.464-697.068-107.712-703.392-97.716Zm49.776,40.6c0,18.156-11.832,28.356-25.092,28.356-13.056,0-24.888-10-24.888-28.152s11.832-28.152,24.888-28.152C-665.448-85.068-653.616-75.276-653.616-57.12Zm91.188-14.688c0,42.84,29.784,72.828,72.012,72.828,34.068,0,59.772-18.972,67.932-49.98h-38.352c-5.916,12.24-16.728,18.36-29.988,18.36-21.42,0-36.108-15.912-36.108-41.208s14.688-41.208,36.108-41.208c13.26,0,24.072,6.12,29.988,18.36h38.352c-8.16-31.008-33.864-50.184-67.932-50.184C-532.644-144.84-562.428-114.648-562.428-71.808Zm273.768-42.024h-34.884V-52.02c0,15.5-8.568,24.072-22.032,24.072-13.056,0-21.828-8.568-21.828-24.072v-61.812h-34.68v66.5c0,30.4,17.748,48.552,44.064,48.552,15.3,0,27.54-6.936,34.476-16.728V0h34.884ZM-263.568,0h34.884V-150.96h-34.884Zm65.688-39.576C-197.88-10-181.356,0-157.692,0h17.748V-29.58h-12.444c-7.752,0-10.608-2.856-10.608-9.588v-45.7h22.848v-28.968H-163v-27.744H-197.88v27.744h-13.872v28.968h13.872ZM-8.16-113.832H-43.044V-52.02c0,15.5-8.568,24.072-22.032,24.072-13.056,0-21.828-8.568-21.828-24.072v-61.812h-34.68v66.5c0,30.4,17.748,48.552,44.064,48.552,15.3,0,27.54-6.936,34.476-16.728V0H-8.16Zm59.976,61c0-19.584,9.588-25.3,26.112-25.3h9.588v-36.924c-15.3,0-27.744,8.16-35.7,20.2v-18.972H16.932V0H51.816Zm102.612-34.68c11.628,0,21.42,7.14,21.42,19.584H132.192C134.232-80.58,143-87.516,154.428-87.516ZM208.9-37.74H171.768c-2.856,6.12-8.364,11.016-18.156,11.016-11.22,0-20.4-6.936-21.624-21.828h78.948a88.151,88.151,0,0,0,.612-10.2c0-34.68-23.46-56.712-56.712-56.712-33.864,0-57.528,22.44-57.528,58.548S121.38,1.632,154.836,1.632C183.192,1.632,203.388-15.5,208.9-37.74ZM273.156,0H308.04V-86.088L340.272,0h28.152l32.028-85.884V0h34.884V-143.208h-41l-39.78,99.144-40.188-99.144H273.156ZM453.492-57.12c0,35.9,22.236,58.752,49.98,58.752,16.932,0,28.968-7.752,35.292-17.748V0h34.884V-113.832H538.764v16.116c-6.12-10-18.156-17.748-35.088-17.748C475.728-115.464,453.492-93.024,453.492-57.12Zm85.272.2c0,18.156-11.628,28.152-24.888,28.152-13.056,0-24.888-10.2-24.888-28.356s11.832-27.948,24.888-27.948C527.136-85.068,538.764-75.072,538.764-56.916Zm95.064,4.08c0-19.584,9.588-25.3,26.112-25.3h9.588v-36.924c-15.3,0-27.744,8.16-35.7,20.2v-18.972H598.944V0h34.884ZM686.256,0H721.14V-47.736L755.82,0h43.248L751.332-56.712l47.328-57.12H755.616L721.14-67.524V-150.96H686.256ZM862.512-87.516c11.628,0,21.42,7.14,21.42,19.584H840.276C842.316-80.58,851.088-87.516,862.512-87.516ZM916.98-37.74H879.852C877-31.62,871.488-26.724,861.7-26.724c-11.22,0-20.4-6.936-21.624-21.828H919.02a88.148,88.148,0,0,0,.612-10.2c0-34.68-23.46-56.712-56.712-56.712-33.864,0-57.528,22.44-57.528,58.548S829.464,1.632,862.92,1.632C891.276,1.632,911.472-15.5,916.98-37.74Zm26.52-1.836C943.5-10,960.024,0,983.688,0h17.748V-29.58H988.992c-7.752,0-10.608-2.856-10.608-9.588v-45.7h22.848v-28.968H978.384v-27.744H943.5v27.744H929.628v28.968H943.5Z" transform="translate(69 1201)" fill="none" stroke="#6dd2ff" stroke-width="1"/>
  </g>
</svg>
