<svg xmlns="http://www.w3.org/2000/svg" width="492.12" height="129.28" viewBox="0 0 492.12 129.28">
  <path id="패스_2335" data-name="패스 2335" d="M19.08,0h6.84L16.4-28H9.88L.4,0H7.24L8.2-3.4h9.92ZM9.64-8.48l3.52-12.44L16.68-8.48ZM50.72-28v9.84h.04v1.64a6.6,6.6,0,0,0-6.04-3.28c-5.6,0-9.16,4.4-9.16,10.16,0,5.8,3.32,10.16,9.08,10.16a6.928,6.928,0,0,0,6.12-3.24V0h6.08V-28ZM46.4-4.56c-2.84,0-4.6-2.16-4.6-5.08s1.76-5.04,4.6-5.04c3.04,0,4.6,2.28,4.6,5.04C51-6.84,49.44-4.56,46.4-4.56ZM64.2-21A3.706,3.706,0,0,0,68-24.72a3.715,3.715,0,0,0-3.8-3.76,3.681,3.681,0,0,0-3.76,3.76A3.672,3.672,0,0,0,64.2-21ZM61.12,0h6.12V-19.28H61.12ZM85.28-19.28v2.76a6.485,6.485,0,0,0-5.96-3.28c-5.56,0-9.24,4.28-9.24,9.96S73.52,0,79.24,0c2.52,0,5.08-1.2,6.04-3.12V-.56c0,3.44-1.72,4.68-4.56,4.68-2.48,0-3.8-.92-4.08-2.44H70.4a6.951,6.951,0,0,0,3.44,5.36A13.382,13.382,0,0,0,80.8,8.6a11.813,11.813,0,0,0,6.88-1.72c2.36-1.64,3.72-4.4,3.72-8.2V-19.28ZM80.92-4.72c-2.76,0-4.56-2.12-4.56-5.04s1.8-5.04,4.56-5.04c2.92,0,4.64,2.24,4.64,5.04S83.84-4.72,80.92-4.72ZM98.72-21a3.706,3.706,0,0,0,3.8-3.72,3.715,3.715,0,0,0-3.8-3.76,3.681,3.681,0,0,0-3.76,3.76A3.672,3.672,0,0,0,98.72-21ZM95.64,0h6.12V-19.28H95.64Zm20.48-4.76c-1.52,0-2.68-.44-2.68-3.28v-6.4h4.36v-4.84h-4.36V-25h-6.12v5.72h-3.04v4.84h3.04v7.68c0,6.44,3.96,7.08,6.84,7.08A23.883,23.883,0,0,0,118.24,0V-4.88A16.423,16.423,0,0,1,116.12-4.76ZM128.64.52a6.928,6.928,0,0,0,6.12-3.24V0h6.08V-19.28h-6.08v2.76a6.6,6.6,0,0,0-6.04-3.28c-5.6,0-9.16,4.4-9.16,10.16C119.56-3.84,122.88.52,128.64.52Zm1.76-5.08c-2.84,0-4.6-2.16-4.6-5.08s1.76-5.04,4.6-5.04c3.04,0,4.6,2.28,4.6,5.04C135-6.84,133.44-4.56,130.4-4.56ZM145.12,0h6.12V-28h-6.12Zm27,.6c5.28,0,8.44-2.68,8.44-6.64,0-2.76-1.92-4.56-4.88-5.36l-4.56-1.24c-1.04-.28-1.64-.84-1.64-1.72,0-.96.88-1.6,2.2-1.6,1.64,0,2.64.76,2.64,2.12h6.04c0-3.64-2.96-6-8.6-6-5.08,0-8.24,2.52-8.24,6.12,0,2.76,1.64,4.76,4.84,5.56l4.72,1.2a1.575,1.575,0,0,1,1.4,1.64c0,1.12-.92,1.8-2.24,1.8-1.88,0-3.16-.96-3.16-2.28H163C163-2.16,166.48.6,172.12.6Zm21.56-5.36c-1.52,0-2.68-.44-2.68-3.28v-6.4h4.36v-4.84H191V-25h-6.12v5.72h-3.04v4.84h3.04v7.68c0,6.44,3.96,7.08,6.84,7.08A23.883,23.883,0,0,0,195.8,0V-4.88A16.423,16.423,0,0,1,193.68-4.76ZM205.44.52a6.309,6.309,0,0,0,6-3.28V0h6.08V-19.28h-6.08V-8.92c0,2.6-1.12,4.28-3.72,4.28-2.32,0-3.2-1.44-3.2-4.08V-19.28h-6.2V-7.36C198.32-2.36,200.8.52,205.44.52ZM235.56-28v9.84h.04v1.64a6.6,6.6,0,0,0-6.04-3.28c-5.6,0-9.16,4.4-9.16,10.16,0,5.8,3.32,10.16,9.08,10.16a6.928,6.928,0,0,0,6.12-3.24V0h6.08V-28ZM231.24-4.56c-2.84,0-4.6-2.16-4.6-5.08s1.76-5.04,4.6-5.04c3.04,0,4.6,2.28,4.6,5.04C235.84-6.84,234.28-4.56,231.24-4.56ZM249.04-21a3.706,3.706,0,0,0,3.8-3.72,3.715,3.715,0,0,0-3.8-3.76,3.681,3.681,0,0,0-3.76,3.76A3.672,3.672,0,0,0,249.04-21ZM245.96,0h6.12V-19.28h-6.12Zm19.56.6c6.6,0,10.68-4.36,10.68-10.24s-4.08-10.2-10.68-10.2c-6.64,0-10.72,4.32-10.72,10.2S258.88.6,265.52.6Zm0-5.2c-2.92,0-4.6-2.12-4.6-5.04s1.68-5.04,4.6-5.04c2.88,0,4.6,2.12,4.6,5.04S268.4-4.6,265.52-4.6ZM287.84,0h6.12V-28h-6.12Zm29.32-10.64c0-5.44-4.08-9.2-10.08-9.2-6.28,0-10.4,3.88-10.4,10.2C296.68-3.2,300.72.6,307.28.6c5.12,0,9-2.6,9.6-6.4h-6Q310.1-4,307.28-4c-2.72,0-4.4-1.44-4.52-3.96H317A20.9,20.9,0,0,0,317.16-10.64Zm-14.4-1.12a3.922,3.922,0,0,1,4.28-4c2.6,0,4.04,1.44,4.08,4ZM327.56.52a6.928,6.928,0,0,0,6.12-3.24V0h6.08V-19.28h-6.08v2.76a6.6,6.6,0,0,0-6.04-3.28c-5.6,0-9.16,4.4-9.16,10.16C318.48-3.84,321.8.52,327.56.52Zm1.76-5.08c-2.84,0-4.6-2.16-4.6-5.08s1.76-5.04,4.6-5.04c3.04,0,4.6,2.28,4.6,5.04C333.92-6.84,332.36-4.56,329.32-4.56ZM357.8-28v9.84h.04v1.64a6.6,6.6,0,0,0-6.04-3.28c-5.6,0-9.16,4.4-9.16,10.16,0,5.8,3.32,10.16,9.08,10.16a6.928,6.928,0,0,0,6.12-3.24V0h6.08V-28ZM353.48-4.56c-2.84,0-4.6-2.16-4.6-5.08s1.76-5.04,4.6-5.04c3.04,0,4.6,2.28,4.6,5.04C358.08-6.84,356.52-4.56,353.48-4.56ZM371.28-21a3.706,3.706,0,0,0,3.8-3.72,3.715,3.715,0,0,0-3.8-3.76,3.681,3.681,0,0,0-3.76,3.76A3.672,3.672,0,0,0,371.28-21ZM368.2,0h6.12V-19.28H368.2Zm10.36,0h6.12V-10.08c0-2.96,1.28-4.56,3.72-4.56,2.48,0,3.4,1.48,3.4,4.72V0h6.16V-11.92c0-5.24-2.36-7.88-7.04-7.88-2.92,0-5.12,1.16-6.24,3.32v-2.8h-6.12Zm37.28-19.28v2.76a6.485,6.485,0,0,0-5.96-3.28c-5.56,0-9.24,4.28-9.24,9.96S404.08,0,409.8,0c2.52,0,5.08-1.2,6.04-3.12V-.56c0,3.44-1.72,4.68-4.56,4.68-2.48,0-3.8-.92-4.08-2.44h-6.24a6.951,6.951,0,0,0,3.44,5.36,13.382,13.382,0,0,0,6.96,1.56,11.813,11.813,0,0,0,6.88-1.72c2.36-1.64,3.72-4.4,3.72-8.2V-19.28ZM411.48-4.72c-2.76,0-4.56-2.12-4.56-5.04s1.8-5.04,4.56-5.04c2.92,0,4.64,2.24,4.64,5.04S414.4-4.72,411.48-4.72Zm33.76-.04c-1.52,0-2.68-.44-2.68-3.28v-6.4h4.36v-4.84h-4.36V-25h-6.12v5.72H433.4v4.84h3.04v7.68c0,6.44,3.96,7.08,6.84,7.08A23.883,23.883,0,0,0,447.36,0V-4.88A16.423,16.423,0,0,1,445.24-4.76Zm17.2-15.04c-2.92,0-5.12,1.16-6.24,3.32V-28h-6.12V0h6.12V-10.08c0-2.96,1.28-4.56,3.72-4.56,2.48,0,3.4,1.48,3.4,4.72V0h6.16V-11.92C469.48-17.16,467.12-19.8,462.44-19.8Zm30.08,9.16c0-5.44-4.08-9.2-10.08-9.2-6.28,0-10.4,3.88-10.4,10.2C472.04-3.2,476.08.6,482.64.6c5.12,0,9-2.6,9.6-6.4h-6q-.78,1.8-3.6,1.8c-2.72,0-4.4-1.44-4.52-3.96h14.24A20.9,20.9,0,0,0,492.52-10.64Zm-14.4-1.12a3.922,3.922,0,0,1,4.28-4c2.6,0,4.04,1.44,4.08,4ZM19.08,50h6.84L16.4,22H9.88L.4,50H7.24l.96-3.4h9.92ZM9.64,41.52l3.52-12.44,3.52,12.44ZM35.76,50.6c5.28,0,8.44-2.68,8.44-6.64,0-2.76-1.92-4.56-4.88-5.36l-4.56-1.24c-1.04-.28-1.64-.84-1.64-1.72,0-.96.88-1.6,2.2-1.6,1.64,0,2.64.76,2.64,2.12H44c0-3.64-2.96-6-8.6-6-5.08,0-8.24,2.52-8.24,6.12,0,2.76,1.64,4.76,4.84,5.56l4.72,1.2a1.575,1.575,0,0,1,1.4,1.64c0,1.12-.92,1.8-2.24,1.8-1.88,0-3.16-.96-3.16-2.28H26.64C26.64,47.84,30.12,50.6,35.76,50.6ZM50.28,29a3.74,3.74,0,1,0-3.76-3.72A3.706,3.706,0,0,0,50.28,29ZM47.2,50h6.12V30.72H47.2Zm18.04.52a6.928,6.928,0,0,0,6.12-3.24V50h6.08V30.72H71.36v2.76a6.6,6.6,0,0,0-6.04-3.28c-5.6,0-9.16,4.4-9.16,10.16C56.16,46.16,59.48,50.52,65.24,50.52ZM67,45.44c-2.84,0-4.6-2.16-4.6-5.08s1.76-5.04,4.6-5.04c3.04,0,4.6,2.28,4.6,5.04C71.6,43.16,70.04,45.44,67,45.44ZM81.72,50h6.12V39.92c0-2.96,1.28-4.56,3.72-4.56,2.48,0,3.4,1.48,3.4,4.72V50h6.16V38.08c0-5.24-2.36-7.88-7.04-7.88-2.92,0-5.12,1.16-6.24,3.32v-2.8H81.72Zm44.8-19.8a7.115,7.115,0,0,0-6.28,3.28V30.72h-6.12V58h6.12V47.28a6.889,6.889,0,0,0,6.12,3.24c5.32,0,9.04-4.12,9.04-10.16C135.4,34.28,131.8,30.2,126.52,30.2ZM124.6,45.44c-2.72,0-4.64-2.04-4.64-5.08,0-3,1.88-5.04,4.64-5.04,2.68,0,4.56,2.08,4.56,5.04C129.16,43.36,127.28,45.44,124.6,45.44Zm22.88,5.16c6.6,0,10.68-4.36,10.68-10.24s-4.08-10.2-10.68-10.2c-6.64,0-10.72,4.32-10.72,10.2S140.84,50.6,147.48,50.6Zm0-5.2c-2.92,0-4.6-2.12-4.6-5.04s1.68-5.04,4.6-5.04c2.88,0,4.6,2.12,4.6,5.04S150.36,45.4,147.48,45.4Zm25.8-15.2A7.115,7.115,0,0,0,167,33.48V30.72h-6.12V58H167V47.28a6.889,6.889,0,0,0,6.12,3.24c5.32,0,9.04-4.12,9.04-10.16C182.16,34.28,178.56,30.2,173.28,30.2Zm-1.92,15.24c-2.72,0-4.64-2.04-4.64-5.08,0-3,1.88-5.04,4.64-5.04,2.68,0,4.56,2.08,4.56,5.04C175.92,43.36,174.04,45.44,171.36,45.44Zm31.4,5.16c5.76,0,9.52-3.08,10-7.76h-6.12c-.44,1.68-1.6,2.56-3.84,2.56-2.64,0-4.24-1.84-4.24-5.04s1.6-5.04,4.24-5.04c2.24,0,3.4.92,3.84,2.72h6.12c-.48-4.8-4.24-7.88-10-7.88-6.36,0-10.32,4.12-10.32,10.2S196.4,50.6,202.76,50.6Zm19.64-.08a6.309,6.309,0,0,0,6-3.28V50h6.08V30.72H228.4V41.08c0,2.6-1.12,4.28-3.72,4.28-2.32,0-3.2-1.44-3.2-4.08V30.72h-6.2V42.64C215.28,47.64,217.76,50.52,222.4,50.52ZM238.76,50h6.12V22h-6.12Zm20.48-4.76c-1.52,0-2.68-.44-2.68-3.28v-6.4h4.36V30.72h-4.36V25h-6.12v5.72H247.4v4.84h3.04v7.68c0,6.44,3.96,7.08,6.84,7.08a23.883,23.883,0,0,0,4.08-.32V45.12A16.423,16.423,0,0,1,259.24,45.24ZM271,50.52a6.309,6.309,0,0,0,6-3.28V50h6.08V30.72H277V41.08c0,2.6-1.12,4.28-3.72,4.28-2.32,0-3.2-1.44-3.2-4.08V30.72h-6.2V42.64C263.88,47.64,266.36,50.52,271,50.52ZM287.36,50h6.12V42.56c0-4.64,2.08-6.44,5.08-6.44a13.761,13.761,0,0,1,1.84.12V30.56a5.975,5.975,0,0,0-1.6-.16,5.4,5.4,0,0,0-5.32,4.36V30.72h-6.12Zm34.48-10.64c0-5.44-4.08-9.2-10.08-9.2-6.28,0-10.4,3.88-10.4,10.2,0,6.44,4.04,10.24,10.6,10.24,5.12,0,9-2.6,9.6-6.4h-6q-.78,1.8-3.6,1.8c-2.72,0-4.4-1.44-4.52-3.96h14.24A20.9,20.9,0,0,0,321.84,39.36Zm-14.4-1.12a3.922,3.922,0,0,1,4.28-4c2.6,0,4.04,1.44,4.08,4ZM333.48,50h6.12V40.08c0-3.64,1.32-4.72,3.28-4.72,1.88,0,2.84,1.08,2.84,3.76V50h6.16V40.08c0-3.64,1.32-4.72,3.24-4.72,1.88,0,2.88,1.12,2.88,3.8V50h6.16V38.04c0-4.04-1.32-7.84-6.84-7.84a6.736,6.736,0,0,0-6.16,3.56c-.84-2.04-2.6-3.56-6.04-3.56a5.8,5.8,0,0,0-5.52,3.32v-2.8h-6.12Zm42.4.52A6.928,6.928,0,0,0,382,47.28V50h6.08V30.72H382v2.76a6.6,6.6,0,0,0-6.04-3.28c-5.6,0-9.16,4.4-9.16,10.16C366.8,46.16,370.12,50.52,375.88,50.52Zm1.76-5.08c-2.84,0-4.6-2.16-4.6-5.08s1.76-5.04,4.6-5.04c3.04,0,4.6,2.28,4.6,5.04C382.24,43.16,380.68,45.44,377.64,45.44ZM392.36,50h6.12V42.56c0-4.64,2.08-6.44,5.08-6.44a13.761,13.761,0,0,1,1.84.12V30.56a5.975,5.975,0,0,0-1.6-.16,5.4,5.4,0,0,0-5.32,4.36V30.72h-6.12Zm35.24,0-7.8-10.16,7.68-9.12h-7.2L414,38.76V22h-6.12V50H414V41.64L420.12,50Zm21.48-10.64c0-5.44-4.08-9.2-10.08-9.2-6.28,0-10.4,3.88-10.4,10.2,0,6.44,4.04,10.24,10.6,10.24,5.12,0,9-2.6,9.6-6.4h-6q-.78,1.8-3.6,1.8c-2.72,0-4.4-1.44-4.52-3.96h14.24A20.9,20.9,0,0,0,449.08,39.36Zm-14.4-1.12a3.922,3.922,0,0,1,4.28-4c2.6,0,4.04,1.44,4.08,4Zm27.24,7c-1.52,0-2.68-.44-2.68-3.28v-6.4h4.36V30.72h-4.36V25h-6.12v5.72h-3.04v4.84h3.04v7.68c0,6.44,3.96,7.08,6.84,7.08a23.883,23.883,0,0,0,4.08-.32V45.12A16.423,16.423,0,0,1,461.92,45.24Zm6.04,10.36c4.48,0,6.92-2.72,6.92-7.28,0-3.88-2.24-5.64-4.56-5.64a3.8,3.8,0,0,0-3.96,3.84,3.624,3.624,0,0,0,3.72,3.84,2.513,2.513,0,0,0,1.92-.68,4.071,4.071,0,0,1-1.04,2.48,3.659,3.659,0,0,1-2.76,1.08,11.779,11.779,0,0,1-1.76-.12v2.36A9.36,9.36,0,0,0,467.96,55.6ZM14.64,72H2.72v28H9.2V92.24h5.44a10.12,10.12,0,0,0,0-20.24Zm-1,14.96H9.2V77.28h4.44a4.854,4.854,0,0,1,0,9.68ZM26.92,100H43.8V94.24H33.4V72H26.92Zm36.68,0h6.84L60.92,72H54.4l-9.48,28h6.84l.96-3.4h9.92Zm-9.44-8.48,3.52-12.44L61.2,91.52ZM88.16,72,83,83.04,77.04,72H69.52l9.92,17.44L74.24,100h7.2L95.32,72Zm8.28,28h16.88V94.24h-10.4V72H96.44Zm20.32,0h6.48V72h-6.48Zm20.32.8c6.2,0,10.28-3.4,10.28-8.64,0-3.76-1.76-6.36-5.64-7.88l-4.64-1.84c-2.76-1.12-3.84-2.08-3.84-3.64,0-1.68,1.24-2.76,3.36-2.76,2.52,0,3.88,1.44,3.88,4.04h6.48c0-5.4-4.08-8.88-10.24-8.88-6.08,0-9.96,3.28-9.96,8.2,0,3.64,1.92,6.24,5.68,7.64L137.48,89c2.52,1,3.4,1.88,3.4,3.6,0,1.96-1.36,3.08-3.76,3.08-2.84,0-4.56-1.8-4.56-4.84h-6.48C126.08,97.12,130.2,100.8,137.08,100.8Zm18.4-.8h6.44V77.76h7.72V72H147.8v5.76h7.68Z" transform="translate(-0.4 28.48)"/>
</svg>
