<?xml version="1.0" encoding="utf-8"?>
<!-- Generator: Adobe Illustrator 24.3.0, SVG Export Plug-In . SVG Version: 6.00 Build 0)  -->
<svg version="1.1" id="레이어_1" xmlns="http://www.w3.org/2000/svg" xmlns:xlink="http://www.w3.org/1999/xlink" x="0px"
	 y="0px" viewBox="0 0 484.915 94.759" style="enable-background:new 0 0 484.915 94.759;" xml:space="preserve">
<style type="text/css">
	.st0{enable-background:new    ;}
</style>
<g id="그룹_2968" transform="translate(-132 -4716)">
	<g class="st0">
		<path d="M149.422,4730.146c0,7.308-3.708,11.879-8.711,11.879c-5.039,0-8.711-4.571-8.711-11.879
			c0-7.271,3.672-11.807,8.711-11.807C145.714,4718.339,149.422,4722.875,149.422,4730.146z M144.851,4730.146
			c0-4.896-1.692-7.522-4.14-7.522c-2.483,0-4.139,2.627-4.139,7.522c0,4.932,1.656,7.56,4.139,7.56
			C143.159,4737.705,144.851,4735.077,144.851,4730.146z M162.596,4732.449h-4.823v16.738h-4.751v-33.152h4.751v12.491h4.823
			V4732.449z"/>
		<path d="M177.791,4723.415c0,6.155,2.627,12.202,8.243,14.614l-2.7,3.851c-3.815-1.728-6.371-5.003-7.847-9.07
			c-1.476,4.428-4.176,7.991-8.135,9.862l-2.844-3.923c5.795-2.484,8.531-8.892,8.531-15.334v-4.824h4.751V4723.415z M192.405,4716
			v33.26h-4.751V4716H192.405z"/>
		<path d="M215.662,4730.146c0,7.308-3.708,11.879-8.711,11.879c-5.039,0-8.71-4.571-8.71-11.879c0-7.271,3.671-11.807,8.71-11.807
			C211.954,4718.339,215.662,4722.875,215.662,4730.146z M211.09,4730.146c0-4.896-1.692-7.522-4.14-7.522
			c-2.483,0-4.139,2.627-4.139,7.522c0,4.932,1.656,7.56,4.139,7.56C209.398,4737.705,211.09,4735.077,211.09,4730.146z
			 M228.836,4732.449h-4.823v16.738h-4.751v-33.152h4.751v12.491h4.823V4732.449z"/>
		<path d="M244.967,4737.812c3.096-0.071,5.903-0.252,9.071-0.827l0.36,3.852c-4.031,0.756-7.559,0.899-11.806,0.899h-2.304v-21.885
			h12.274v3.851h-7.595V4737.812z M267.788,4716v33.188h-4.5v-16.594h-2.988v15.046h-4.427v-30.992h4.427v12.131h2.988V4716H267.788
			z"/>
		<path d="M289.821,4734.861v2.447c5.688,0.468,9.071,2.52,9.071,5.903c0,3.815-4.355,6.012-11.519,6.012
			c-7.163,0-11.482-2.196-11.482-6.012c0-3.419,3.419-5.471,9.179-5.939v-2.411h-12.598v-3.779h29.948v3.779H289.821z
			 M273.768,4726.114c6.155-0.54,9.395-2.699,10.223-4.932h-8.783v-3.779h24.513v3.779h-8.819c0.828,2.232,4.067,4.392,10.259,4.932
			l-1.656,3.672c-6.228-0.54-10.295-2.88-12.059-6.012c-1.764,3.132-5.832,5.472-12.095,6.012L273.768,4726.114z M287.374,4740.801
			c-4.427,0-6.695,0.72-6.695,2.411c0,1.656,2.268,2.376,6.695,2.376c4.428,0,6.695-0.72,6.695-2.376
			C294.069,4741.521,291.801,4740.801,287.374,4740.801z"/>
		<path d="M335.576,4732.413v3.744h-12.203v5.651h-4.751v-5.651h-13.066v-3.744H335.576z M313.799,4744.832h18.466v3.779h-23.217
			v-9.61h4.751V4744.832z M331.76,4729.786h-22.497v-12.347h22.497V4729.786z M327.081,4721.146h-13.138v4.896h13.138V4721.146z"/>
		<path d="M351.13,4739.576c2.556-0.144,5.111-0.323,7.487-0.684l0.36,3.42c-6.983,1.367-14.435,1.367-20.05,1.367l-0.576-3.852
			c2.375,0,5.111,0,8.027-0.071v-2.808c-3.456-0.685-5.723-2.952-5.723-5.976c0-3.743,3.348-6.263,8.099-6.263
			c4.751,0,8.099,2.52,8.099,6.263c0,3.023-2.268,5.291-5.723,5.976V4739.576z M358.473,4723.415h-19.509v-3.744h7.415v-3.491h4.751
			v3.491h7.343V4723.415z M348.754,4733.638c2.16,0,3.6-0.937,3.6-2.664s-1.439-2.664-3.6-2.664c-2.16,0-3.599,0.937-3.599,2.664
			S346.594,4733.638,348.754,4733.638z M369.2,4733.457h-4.14v15.73h-4.751v-33.152h4.751v13.499h4.14V4733.457z"/>
		<path d="M392.854,4723.415c0,6.155,2.628,12.202,8.243,14.614l-2.7,3.851c-3.815-1.728-6.371-5.003-7.847-9.07
			c-1.477,4.428-4.176,7.991-8.135,9.862l-2.844-3.923c5.795-2.484,8.531-8.892,8.531-15.334v-4.824h4.751V4723.415z M407.468,4716
			v33.26h-4.752V4716H407.468z"/>
		<path d="M430.616,4734.753c-3.635-1.079-6.154-3.275-7.594-6.011c-1.477,3.275-4.104,5.903-7.992,7.163l-2.375-3.708
			c5.363-1.8,7.738-6.011,7.811-10.15h-6.587v-3.815h17.926v3.815h-6.479c0.072,3.779,2.34,7.487,7.56,9.035L430.616,4734.753z
			 M439.579,4742.78c0,4.031-4.318,6.407-11.193,6.407c-6.912,0-11.231-2.376-11.231-6.407c0-4.067,4.319-6.479,11.231-6.479
			C435.261,4736.301,439.579,4738.713,439.579,4742.78z M434.864,4742.78c0-1.908-2.268-2.808-6.479-2.808
			c-4.248,0-6.516,0.899-6.516,2.808c0,1.872,2.268,2.771,6.516,2.771C432.597,4745.552,434.864,4744.652,434.864,4742.78z
			 M443.611,4723.667v3.887h-4.392v8.171h-4.752v-19.689h4.752v7.632H443.611z"/>
		<path d="M476.191,4729.39v3.708h-29.948v-3.708H476.191z M449.231,4722.155c0-3.636,4.427-5.651,11.986-5.651
			c7.595,0,12.021,2.016,12.021,5.651c0,3.671-4.427,5.65-12.021,5.65C453.658,4727.806,449.231,4725.826,449.231,4722.155z
			 M454.414,4745.372h19.006v3.563h-23.722v-8.711h18.178v-1.764h-18.213v-3.492h22.893v8.531h-18.142V4745.372z M454.162,4722.155
			c0,1.547,2.268,2.195,7.056,2.195c4.822,0,7.091-0.648,7.091-2.195c0-1.477-2.269-2.16-7.091-2.16
			C456.43,4719.995,454.162,4720.679,454.162,4722.155z"/>
		<path d="M504.812,4735.689c-3.456-1.26-5.831-3.672-7.199-6.731c-1.403,3.42-3.96,6.119-7.812,7.523l-2.482-3.708
			c5.471-1.836,7.774-6.443,7.774-11.158v-3.563h4.823v3.599c0,4.32,2.232,8.567,7.415,10.367L504.812,4735.689z M515.972,4744.832
			v3.779h-22.605v-10.547h4.751v6.768H515.972z M510.499,4726.942h-6.082v-3.852h6.082v-7.056h4.752v24.478h-4.752V4726.942z"/>
		<path d="M550.675,4741.557v3.888h-30.021v-3.888h12.599v-6.911h-9.107v-16.342h23.073v3.815h-18.286v8.711h18.538v3.815h-9.467
			v6.911H550.675z"/>
		<path d="M565.688,4720.931h7.199v3.78h-19.293v-3.78h7.343v-4.319h4.751V4720.931z M571.7,4734.465
			c0,4.68-3.563,7.955-8.352,7.955c-4.822,0-8.422-3.275-8.422-7.955c0-4.607,3.6-7.883,8.422-7.883
			C568.137,4726.582,571.7,4729.857,571.7,4734.465z M567.2,4734.465c0-2.483-1.619-4.031-3.852-4.031
			c-2.23,0-3.887,1.548-3.887,4.067s1.656,4.032,3.887,4.032C565.581,4738.533,567.2,4737.021,567.2,4734.465z M584.55,4732.917
			h-4.75v16.271h-4.752v-33.152h4.752v12.959h4.75V4732.917z"/>
		<path d="M616.915,4732.161v3.816h-30.021v-3.816H616.915z M595.065,4744.688h18.718v3.816h-23.505v-9.899h4.787V4744.688z
			 M613.603,4728.778h-23v-11.555h4.751v7.774h18.249V4728.778z"/>
	</g>
	<g class="st0">
		<path d="M138.551,4794.417c5.795-0.036,9.503-0.216,13.499-0.972l0.432,3.923c-4.499,0.864-8.71,1.008-15.766,1.008H133.8v-22.389
			h16.018v3.852h-11.267V4794.417z M159.285,4773.035v33.26h-4.751v-33.26H159.285z"/>
		<path d="M177.755,4781.963c0,5.398,2.664,11.122,8.207,13.426l-2.592,3.743c-3.852-1.655-6.479-4.895-7.955-8.891
			c-1.476,4.319-4.14,7.955-8.027,9.719l-2.7-3.779c5.543-2.483,8.243-8.567,8.243-14.218v-1.836h-6.911v-3.924h18.574v3.924h-6.839
			V4781.963z M192.405,4773.035v33.152h-4.751v-33.152H192.405z"/>
		<path d="M216.346,4789.27c-4.355,0.612-8.063,0.647-14.182,0.647h-2.592v-15.046h15.298v3.672h-10.583v2.052h9.575v3.455h-9.575
			v2.16c4.751-0.036,7.955-0.108,11.699-0.648L216.346,4789.27z M226.712,4802.372v3.563h-22.749v-8.783h17.098v-1.8h-17.17v-3.563
			h21.885v8.711h-17.134v1.872H226.712z M221.025,4783.798h-5.255v-3.743h5.255v-7.02h4.751v17.53h-4.751V4783.798z"/>
		<path d="M269.372,4798.305v3.852h-30.02v-3.852H269.372z M266.312,4792.617c-5.759-1.152-10.007-4.355-12.13-8.567
			c-2.124,4.212-6.335,7.451-12.094,8.567l-2.016-3.96c7.451-1.296,11.591-6.551,11.591-11.302v-2.376h5.075v2.376
			c0,4.859,4.104,10.006,11.591,11.302L266.312,4792.617z"/>
		<path d="M302.456,4796.433h-6.839v9.755h-4.788v-9.755h-6.659v9.755h-4.787v-9.755h-6.947v-3.815h30.021V4796.433z
			 M299.324,4790.35h-23.145v-15.982H299v3.744h-18.106v2.411h17.386v3.6h-17.386v2.52h18.43V4790.35z"/>
		<path d="M312.323,4794.417c5.795-0.036,9.503-0.216,13.499-0.972l0.432,3.923c-4.499,0.864-8.71,1.008-15.766,1.008h-2.916
			v-22.389h16.018v3.852h-11.267V4794.417z M333.056,4773.035v33.26h-4.751v-33.26H333.056z"/>
		<path d="M368.731,4798.484v3.852h-30.02v-3.852h12.598v-5.615c-5.831-0.72-9.971-4.067-9.971-8.999
			c0-5.543,5.292-9.143,12.347-9.143c7.091,0,12.382,3.6,12.382,9.143c0,4.932-4.139,8.315-10.007,8.999v5.615H368.731z
			 M353.686,4789.233c4.571,0,7.703-1.979,7.703-5.363s-3.132-5.363-7.703-5.363c-4.536,0-7.667,1.979-7.667,5.363
			S349.15,4789.233,353.686,4789.233z"/>
		<path d="M372.191,4807.879c2.771-1.044,4.319-2.844,4.319-4.931c-0.108,0-0.216,0-0.324,0c-1.728,0-3.312-1.116-3.312-3.132
			c0-1.908,1.548-3.132,3.419-3.132c2.448,0,3.815,1.943,3.815,5.22c0,4.211-2.483,7.415-6.803,8.854L372.191,4807.879z"/>
		<path d="M421.651,4786.93v3.744h-29.948v-3.744H421.651z M398.542,4777.463h-4.211v-3.527h24.656v3.527h-4.211v4.248h3.959v3.527
			h-24.188v-3.527h3.995V4777.463z M399.874,4802.516h19.006v3.42h-23.721v-8.387h18.178v-1.62h-18.215v-3.42h22.894v8.207h-18.142
			V4802.516z M410.061,4777.463h-6.803v4.248h6.803V4777.463z"/>
		<path d="M430.33,4794.561c3.132-0.071,6.083-0.252,9.431-0.792l0.396,3.816c-4.283,0.756-7.955,0.863-12.095,0.863h-2.34v-13.21
			h7.091v-5.184h-7.127v-3.779h11.734v12.706h-7.091V4794.561z M442.028,4773.611h4.392v31.028h-4.392v-16.45h-3.275v-3.888h3.275
			V4773.611z M453.259,4773v33.151h-4.499V4773H453.259z"/>
		<path d="M476.3,4787.146c0,7.308-3.707,11.879-8.71,11.879s-8.711-4.571-8.711-11.879c0-7.271,3.708-11.807,8.711-11.807
			S476.3,4779.875,476.3,4787.146z M463.45,4787.146c0,4.932,1.691,7.56,4.14,7.56c2.447,0,4.14-2.628,4.14-7.56
			c0-4.896-1.692-7.522-4.14-7.522C465.142,4779.623,463.45,4782.25,463.45,4787.146z M485.407,4773v33.26h-4.752V4773H485.407z"/>
		<path d="M497.687,4794.633c5.039-0.036,9.215-0.288,13.895-1.08l0.504,3.852c-5.4,0.937-10.26,1.152-16.271,1.152h-2.987v-13.643
			h10.762v-5.291H492.79v-3.78h15.658v12.814h-10.762V4794.633z M518.636,4773v33.26h-4.752V4773H518.636z"/>
		<path d="M554.202,4798.305v3.852h-30.02v-3.852H554.202z M551.144,4792.617c-5.76-1.152-10.008-4.355-12.131-8.567
			c-2.123,4.212-6.335,7.451-12.094,8.567l-2.017-3.96c7.451-1.296,11.591-6.551,11.591-11.302v-2.376h5.075v2.376
			c0,4.859,4.104,10.006,11.591,11.302L551.144,4792.617z"/>
		<path d="M587.323,4798.521v3.852h-30.021v-3.852H587.323z M584.119,4793.877H560.83v-18.43h23.037v3.815h-18.214v3.491h17.458
			v3.672h-17.458v3.708h18.466V4793.877z"/>
	</g>
</g>
</svg>
