<svg xmlns="http://www.w3.org/2000/svg" width="359.122" height="198.782" viewBox="0 0 359.122 198.782">
  <path id="패스_1160" data-name="패스 1160" d="M806.364,549.7h4.73c13.733,0,22.573-10.3,22.573-22.316,0-12.1-8.841-22.4-22.573-22.4H782.255v64.005Zm-6.256-30.813h7.467c4.807,0,7.9,3.862,7.9,8.5s-3.176,8.5-7.982,8.5h-7.381Zm75.79,45.658H839.52V504.978h17.7v43.973H875.9Zm25.875-6.892h20l2.042,6.892h19.741L922.42,504.978H901.206l-20.621,59.563H899.73Zm10.04-34.8,6.3,21.953H905.517ZM958.55,543.08l-20-38.1h20.762l9.615,21.187,9.019-21.187h19.74l-29.526,59.563H948.254ZM765.137,573.742,735.611,633.3H715.7L726,611.844l-20-38.1h20.762l9.615,21.188,9.019-21.187Zm61.028,29.781c0-16.422-11.827-31.4-32.334-31.4-20.421,0-32.249,14.976-32.249,31.4s11.828,31.4,32.249,31.4C814.338,634.921,826.165,619.946,826.165,603.523Zm-46.714,0c0-7.913,5.361-15.231,14.38-15.231,9.1,0,14.38,7.318,14.38,15.231s-5.276,15.231-14.38,15.231C784.812,618.754,779.451,611.437,779.451,603.523Zm85.476-29.781h17.7v38.886c0,12.934-9.36,22.294-24.931,22.294-15.4,0-24.846-9.36-24.846-22.294V573.742h17.7v38.716a7.2,7.2,0,1,0,14.38,0Zm77.6,22.208c0-12-8.764-22.208-22.378-22.208h-28.59V633.3h17.7V618.073h3.318L922.7,633.3h20.847l-11.912-18.124A21.8,21.8,0,0,0,942.53,595.951Zm-25.952,8.424H909.26V587.526h7.4c4.765,0,7.828,3.829,7.828,8.424S921.343,604.374,916.578,604.374Zm148.544,38.206L1035.6,702.143h-19.911l10.3-21.461-20-38.1h20.762l9.615,21.187,9.019-21.187Zm-229.649,0h45.756v15.59H867.2v43.973H849.5V658.17H835.473ZM831.1,684.274c0,12.338-9.275,19.485-24.336,19.485-14.891,0-24.506-7.743-24.506-21.7h17.7c0,5.361,2.978,8.424,7.488,8.424,3.574,0,5.871-1.957,5.871-5.105,0-3.318-2.723-4.68-9.02-7.147-10.977-4.255-20.762-7.828-20.762-20,0-12.253,11.657-17.273,23.57-17.273,17.443,0,23.229,10.04,23.229,19.4h-17.7c0-4.85-1.872-7.4-5.871-7.4-2.893,0-5.446,1.447-5.446,4.68,0,3.063,2.723,4.85,8.168,6.807C819.779,668.107,831.1,671.936,831.1,684.274Zm85.925-43.311c-20.421,0-32.249,14.976-32.249,31.4s11.828,31.4,32.249,31.4c20.507,0,32.334-14.976,32.334-31.4S937.529,640.964,917.022,640.964Zm0,46.629c-9.019,0-14.38-7.318-14.38-15.231s5.361-15.231,14.38-15.231c9.1,0,14.38,7.317,14.38,15.231S926.126,687.593,917.022,687.593Zm89.741-22.8c0-12-8.764-22.208-22.378-22.208h-28.59v59.562h17.7V686.912h3.318l10.126,15.231h20.847l-11.912-18.124A21.8,21.8,0,0,0,1006.762,664.789Zm-25.952,8.424h-7.318V656.365h7.4c4.766,0,7.828,3.829,7.828,8.424S985.575,673.213,980.81,673.213Z" transform="translate(-706 -504.978)" fill="#0073ff"/>
</svg>
