<svg xmlns="http://www.w3.org/2000/svg" width="1160" height="601" viewBox="0 0 1160 601">
  <g id="그룹_2983" data-name="그룹 2983" transform="translate(-100 -441)">
    <rect id="사각형_547" data-name="사각형 547" width="1159" height="600" transform="translate(100.5 441.5)" fill="#fff" stroke="#ddd" stroke-width="1"/>
    <g id="그룹_2962" data-name="그룹 2962" transform="translate(70.33 233)">
      <path id="패스_2219" data-name="패스 2219" d="M462.188,438.4l-43.3,34.639V438.4Z" transform="translate(-132.986 -63.143)" fill="#6dd2ff"/>
      <path id="패스_2220" data-name="패스 2220" d="M455.005,364.4a25.258,25.258,0,1,1-25.258-25.258A25.258,25.258,0,0,1,455.005,364.4" transform="translate(-127.246 -23.576)" fill="#7f00ff"/>
      <path id="패스_2221" data-name="패스 2221" d="M476.845,305.258A25.258,25.258,0,1,1,451.587,280a25.257,25.257,0,0,1,25.258,25.258" transform="translate(-135.952)" fill="#7f00ff"/>
      <path id="패스_2222" data-name="패스 2222" d="M544.525,321.386a25.257,25.257,0,1,1-25.257-25.258,25.257,25.257,0,0,1,25.257,25.258" transform="translate(-162.932 -6.429)" fill="#7f00ff"/>
      <path id="패스_2223" data-name="패스 2223" d="M529.405,382.263a25.258,25.258,0,1,1-25.258-25.258,25.258,25.258,0,0,1,25.258,25.258" transform="translate(-156.904 -30.697)" fill="#7f00ff"/>
      <path id="패스_2224" data-name="패스 2224" d="M493.965,351.645a15.173,15.173,0,1,1-15.174-15.173,15.173,15.173,0,0,1,15.174,15.173" transform="translate(-150.816 -22.511)" fill="#ffff34"/>
      <path id="패스_2225" data-name="패스 2225" d="M139.689,318.319S144.574,280,124.915,280c-16.724,0-25.137,31.824-25.137,71.443V409.9s32.978-26.356,43.659-34.928c23.02-18.474,52.068-38.966,51.309-57.445-.866-21.072-22.508-29.08-55.057.8" transform="translate(-5.779)" fill="#ff5a59"/>
      <path id="패스_2226" data-name="패스 2226" d="M1065.916,308.75v49.025a2.887,2.887,0,0,1-2.05,2.763l-22.716,6.878a5.773,5.773,0,0,0-4.1,5.525v38.508l43.3-34.639V322.886a2.886,2.886,0,0,1,3-2.884l31.753,1.268a2.886,2.886,0,0,1,2.771,2.884v25.917a2.887,2.887,0,0,1-3.314,2.855l-16.326-2.444a5.774,5.774,0,0,0-6.628,5.71v32.446l40.7-28.3V289.673a5.773,5.773,0,0,0-7.67-5.453L1069.792,303.3a5.773,5.773,0,0,0-3.876,5.453" transform="translate(-379.404 -1.553)" fill="#ffb4ff"/>
      <path id="패스_2227" data-name="패스 2227" d="M1419.225,286.011c-9.526-8.948-26.809-9.082-40.412,11.412-12.978,19.554-36.371-15.773-34.639,8.769,1.436,20.35,1.131,44.91,1.155,69.169.019,19.062,0,34.639,0,34.639s34.867-27.91,43.575-34.86c25.414-20.284,59.419-23.18,56.878-34.283-2.742-11.979-15.912-2.091-22.227-11.546-7.058-10.569,9.307-30.488-4.33-43.3" transform="translate(-501.796 -0.103)" fill="#7f00ff"/>
      <path id="패스_2228" data-name="패스 2228" d="M1418.634,303.12c-.056,1.593,2.741,2.984,6.246,3.107s6.392-1.07,6.447-2.663-2.74-2.984-6.246-3.107-6.391,1.07-6.447,2.663" transform="translate(-531.514 -8.151)" fill="#ff5a59"/>
      <path id="패스_2229" data-name="패스 2229" d="M1450.461,309.722c-1.067,1.185.182,4.048,2.788,6.394s5.584,3.289,6.651,2.1-.181-4.048-2.788-6.394-5.584-3.289-6.651-2.1" transform="translate(-544.05 -11.644)" fill="#ff5a59"/>
      <path id="패스_2230" data-name="패스 2230" d="M1426.228,326.158a5.773,5.773,0,1,0,7.515-3.19,5.773,5.773,0,0,0-7.515,3.19" transform="translate(-534.374 -16.96)" fill="#ff5a59"/>
      <path id="패스_2231" data-name="패스 2231" d="M773.118,347.017a12.929,12.929,0,0,1-6.206-1.576v-4.774l5.05-3.2,4.179,6.813,2.976-.72-1.737-9.522,7.769-4.918a12.995,12.995,0,0,1-12.03,17.894m47.364-44.531-2.875-15.793a5.773,5.773,0,0,0-7.812-4.33l-69.089,27.459a5.769,5.769,0,0,0-3.63,5.017c-.1,1.725-.278,3.326-.514,4.813L723.825,315a2.284,2.284,0,0,0-2.083,4.025l12.593,8.707c-3.979,9.407-10.722,10.775-10.722,10.775v72.164l43.3-34.639h0V353.261a20.215,20.215,0,0,0,24.4-28.038L817.89,308.4a5.772,5.772,0,0,0,2.592-5.912" transform="translate(-253.32 -0.778)" fill="#ff7f0f"/>
      <path id="패스_2232" data-name="패스 2232" d="M1701.3,372.738,1654.85,280V409.9Zm57.47-25.35L1654.85,280l53.835,88.655h0Z" transform="translate(-625.677)" fill="#28e575"/>
      <path id="패스_2233" data-name="패스 2233" d="M1085.345,959.439h-.066l-43.3-34.639.065,69.278Z" transform="translate(-381.369 -257.037)" fill="#28e575"/>
      <path id="패스_2234" data-name="패스 2234" d="M1063.963,850.416a7.216,7.216,0,1,1-7.216-7.216,7.216,7.216,0,0,1,7.216,7.216" transform="translate(-384.379 -224.509)" fill="#0073ff"/>
      <path id="패스_2235" data-name="패스 2235" d="M1135.723,968.016a7.216,7.216,0,1,1-7.217-7.217,7.217,7.217,0,0,1,7.217,7.217" transform="translate(-412.984 -271.387)" fill="#0073ff"/>
      <path id="패스_2236" data-name="패스 2236" d="M1114.123,934.416a7.216,7.216,0,1,1-7.216-7.216,7.217,7.217,0,0,1,7.216,7.216" transform="translate(-404.374 -257.993)" fill="#ff5a59"/>
      <path id="패스_2237" data-name="패스 2237" d="M1195.243,916.168a7.216,7.216,0,1,1-7.217-7.216,7.216,7.216,0,0,1,7.217,7.216" transform="translate(-436.711 -250.719)" fill="#ffff34"/>
      <path id="패스_2238" data-name="패스 2238" d="M1173.967,858.606a20.206,20.206,0,1,1-20.206-20.206,20.206,20.206,0,0,1,20.206,20.206" transform="translate(-417.874 -222.595)" fill="#0073ff"/>
      <path id="패스_2239" data-name="패스 2239" d="M1152.539,928.425a10.825,10.825,0,1,1-10.825-10.825,10.825,10.825,0,0,1,10.825,10.825" transform="translate(-416.811 -254.167)" fill="#6dd2ff"/>
      <path id="패스_2240" data-name="패스 2240" d="M1098.309,887.389a12.99,12.99,0,1,1-12.99-12.989,12.99,12.99,0,0,1,12.99,12.989" transform="translate(-393.468 -236.946)" fill="#6dd2ff"/>
      <path id="패스_2241" data-name="패스 2241" d="M1049.339,889.777a10.825,10.825,0,1,1-10.825-10.825,10.825,10.825,0,0,1,10.825,10.825" transform="translate(-375.673 -238.76)" fill="#ffff34"/>
      <path id="패스_2242" data-name="패스 2242" d="M1108.869,836.99A12.99,12.99,0,1,1,1095.88,824a12.99,12.99,0,0,1,12.99,12.99" transform="translate(-397.677 -216.855)" fill="#ff5a59"/>
      <path id="패스_2243" data-name="패스 2243" d="M1358.87,868.7l23.449,11.982a2.886,2.886,0,0,1,.139,5.065l-33.685,19.6a2.886,2.886,0,0,0-1.434,2.5V955.25l95.748-76.6a5.773,5.773,0,0,0-1.715-9.962l-34.388-11.927a2.887,2.887,0,0,1-.747-5.065l31.728-22.984a.721.721,0,0,0-.687-1.256l-77.9,30.734a5.773,5.773,0,0,0-.508,10.511" transform="translate(-503.094 -218.209)" fill="#28e575"/>
      <path id="패스_2244" data-name="패스 2244" d="M1658.216,826.588v19.125h.033a109.571,109.571,0,0,1,84.961,41.212l0,0,14.871-11.9a128.994,128.994,0,0,0-99.868-48.445" transform="translate(-627.019 -217.887)" fill="#ff7f0f"/>
      <path id="패스_2245" data-name="패스 2245" d="M1679.584,900.186A14.216,14.216,0,1,1,1693.8,885.97a14.216,14.216,0,0,1-14.216,14.216m-21.368-34.6v44.16a14.216,14.216,0,1,1,0,23.461v37.263l52.13-41.7a14.205,14.205,0,1,1,11.339-9.071l18.147-14.518a105.257,105.257,0,0,0-81.616-39.591" transform="translate(-627.019 -233.434)" fill="#ffff34"/>
      <path id="패스_2246" data-name="패스 2246" d="M1684.324,875.838a14.216,14.216,0,1,0,14.216,14.216,14.217,14.217,0,0,0-14.216-14.216" transform="translate(-631.76 -237.519)" fill="#ff5a59"/>
      <path id="패스_2247" data-name="패스 2247" d="M1680.464,949.105a14.217,14.217,0,0,0-22.248-11.731v23.462a14.217,14.217,0,0,0,22.248-11.731" transform="translate(-627.019 -261.059)" fill="#ff5a59"/>
      <path id="패스_2248" data-name="패스 2248" d="M1732.2,923.6a14.216,14.216,0,1,0,1.968,28.3l11.34-9.072A14.223,14.223,0,0,0,1732.2,923.6" transform="translate(-650.846 -256.558)" fill="#ff5a59"/>
      <path id="패스_2249" data-name="패스 2249" d="M817.8,824.27l-53.524-.245a4.489,4.489,0,0,0-4.262,3.015c-3.784,10.886-16.7,48.049-21.123,60.779l-14.67-3.39a3.382,3.382,0,0,0-4.144,3.3v66.181l62.928-50.515a3.209,3.209,0,0,0-1.274-5.64l-15.77-3.676,54.072-65.013a2.923,2.923,0,0,0-2.234-4.791" transform="translate(-253.049 -216.865)" fill="#6dd2ff"/>
      <path id="패스_2250" data-name="패스 2250" d="M507.613,875.122l-15.137-47.41a5.734,5.734,0,0,0-8.021-2.4l-62.161,34.535a1.583,1.583,0,0,0,.471,2.914l24.536,5.067L408.91,914.013v40.094l50.515-40.094,18.611-39.992,26.317,5.415a3.006,3.006,0,0,0,3.261-4.314" transform="translate(-129.008 -217.066)" fill="#ff5a59"/>
      <path id="패스_2251" data-name="패스 2251" d="M117.922,824.539s-17.359,4.508-7.1,30.152c0,0,1.825-14.006,9.666-17.359s6.865-14.353-2.564-12.792" transform="translate(-8.888 -217.01)" fill="#6dd2ff"/>
      <path id="패스_2252" data-name="패스 2252" d="M85.307,881.434s1.357-9.588,15.74-5.652c0,0-7.4,1.835-8.722,6.246s-7.491,4.214-7.019-.594" transform="translate(0 -237.119)" fill="#6dd2ff"/>
      <path id="패스_2253" data-name="패스 2253" d="M99.419,922.106v34.86l103.917-83.444-.144-.289q-1.561-3.374-3.322-6.5a39.087,39.087,0,0,1-5.04,2.529,36.393,36.393,0,0,1-11.283,2.8,2.613,2.613,0,0,1-.231-5.222,31.934,31.934,0,0,0,9.7-2.482,33.919,33.919,0,0,0,4.172-2.11c-20.494-31.957-56.453-42.481-80.445-13.846-26.845,32.041,10.1,73.7,10.1,73.7Zm79.4-67.729a9.217,9.217,0,1,1-9.217-9.217,9.217,9.217,0,0,1,9.217,9.217" transform="translate(-5.636 -219.925)" fill="#0073ff"/>
      <path id="패스_2254" data-name="패스 2254" d="M218.237,868.134a4.33,4.33,0,1,0-4.338-4.33,4.334,4.334,0,0,0,4.338,4.33" transform="translate(-51.271 -230.996)" fill="#7f00ff"/>
      <path id="패스_2255" data-name="패스 2255" d="M611.943,644.778c.349.826.556,2.037-.144,2.6L568.72,682.015v-35.76a3.675,3.675,0,0,1,1.666-3.081,66.962,66.962,0,0,1,17.033-7.81,3.1,3.1,0,0,0-1.793-5.942,73.288,73.288,0,0,0-15.84,6.836,2.524,2.524,0,0,1-3.768-1.773l-3.652-22.5a8.237,8.237,0,0,1,4.373-8.658l.128-.065a60.243,60.243,0,0,1,27.373-6.1l.488,0h.026a3.9,3.9,0,0,0,3.9-3.984,3.951,3.951,0,0,0-3.956-3.81l-.467,0a68.173,68.173,0,0,0-29.649,6.324,2,2,0,0,1-2.82-2.2c2.692-13.317,13.284-39.39,52.645-34.142a9.137,9.137,0,0,1,4.018,1.529c9.23,6.426-.133,25.04-.441,26.52a3.945,3.945,0,0,0,.405,3.241c3.118-5.391,18.991-31.511,38.011-38.1a4.428,4.428,0,0,1,4.4.895l3.8,3.1s-23.379,3.753-43.374,35.144a11.39,11.39,0,0,0,2.861-.51c4.744-1.4,18.39-16.3,28.552-6.425,23.689,23.012,7.539,37.967-2.626,44.181a2.777,2.777,0,0,1-4.036-1.337,69.2,69.2,0,0,0-16.261-23.921,3.9,3.9,0,0,0-5.51.052,4.066,4.066,0,0,0-.273.308,3.9,3.9,0,0,0,.325,5.2s10.8,11.492,14.916,22.367a2.752,2.752,0,0,1-1.458,3.5L619,643.318a1.758,1.758,0,0,1-2.31-.889c-.38-.844-.759-1.632-1.13-2.363a42,42,0,0,0-7.4-10.713,3.1,3.1,0,1,0-4.293,4.481c.031.031,7.209,8.924,8.075,10.945" transform="translate(-189.922 -108.547)" fill="#28e575"/>
      <path id="패스_2256" data-name="패스 2256" d="M932.992,619.408c-11.09-10.5-18.268-23.085-20.985-35.074a42.234,42.234,0,0,0,64.11,54.809c-13.966-.384-29.879-7.192-43.125-19.735" transform="translate(-326.089 -121.317)" fill="#28e575"/>
      <path id="패스_2257" data-name="패스 2257" d="M925.225,681.686a46.687,46.687,0,0,1-35.33-31.632l-13.661,36v34.927l43.575-34.86h-.116Z" transform="translate(-315.298 -147.515)" fill="#ff7f0f"/>
      <path id="패스_2258" data-name="패스 2258" d="M957.965,574.615a2.894,2.894,0,0,1-4.211-.739,51.533,51.533,0,0,1-4.3-7.738,40.721,40.721,0,0,1-2.061-6.313,42.091,42.091,0,0,1,15.6-3.023,50.111,50.111,0,0,0,3.643,9.715,2.5,2.5,0,0,1-1.155,3.319,53.958,53.958,0,0,0-7.512,4.78" transform="translate(-343.662 -110.341)" fill="#0073ff"/>
      <path id="패스_2259" data-name="패스 2259" d="M995.357,561.309a41.95,41.95,0,0,0-13.865-4.062,43.7,43.7,0,0,0,2.642,6.411,2.579,2.579,0,0,0,3.465,1.128c2.939-1.484,5.589-2.626,7.758-3.477" transform="translate(-357.257 -110.519)" fill="#0073ff"/>
      <path id="패스_2260" data-name="패스 2260" d="M1015.489,622.728c-.755,1.574-.959,3.244.641,3.944a60.661,60.661,0,0,0,7,2.581,46.764,46.764,0,0,0,8.067,1.686,42.531,42.531,0,0,0,.7-15.031,63,63,0,0,1-9.773-2.705,2.5,2.5,0,0,0-2.886,1.3s-2.021,4.619-3.753,8.227" transform="translate(-370.581 -132.781)" fill="#0073ff"/>
      <path id="패스_2261" data-name="패스 2261" d="M968.785,589.432a2.794,2.794,0,0,0-.351,4.072,83.949,83.949,0,0,0,7.758,7.633,91.426,91.426,0,0,0,11.691,8.663,2.8,2.8,0,0,0,3.84-.881,65.836,65.836,0,0,0,4.373-8.473,2.381,2.381,0,0,0-.866-3.031c-1.334-.8-1.965-1.128-3.243-1.961a52.266,52.266,0,0,1-5.7-4.293,61.332,61.332,0,0,1-6.5-7.025,2.558,2.558,0,0,0-3.031-.577s-3.608,2.4-7.97,5.872" transform="translate(-351.764 -120.891)" fill="#0073ff"/>
      <path id="패스_2262" data-name="패스 2262" d="M953.164,623.761a77.675,77.675,0,0,0,12.484,9.726,3.2,3.2,0,0,0,3.792-.321,71.45,71.45,0,0,0,7.229-7.377,2.815,2.815,0,0,0-.657-4.2,96.338,96.338,0,0,1-11.658-8.705h0a88.616,88.616,0,0,1-8.137-8,2.677,2.677,0,0,0-3.976-.025,63.528,63.528,0,0,0-6.136,7.776,3.023,3.023,0,0,0,.251,3.648,77.193,77.193,0,0,0,6.809,7.474" transform="translate(-342.952 -129.153)" fill="#0073ff"/>
      <path id="패스_2263" data-name="패스 2263" d="M1029.014,585.752a67.867,67.867,0,0,1-1.915,8.735,2.814,2.814,0,0,0,1.714,3.417,65.114,65.114,0,0,0,6.94,2.137,42.052,42.052,0,0,0-6.74-14.289" transform="translate(-375.393 -121.882)" fill="#0073ff"/>
      <path id="패스_2264" data-name="패스 2264" d="M1013.412,644.867a66.46,66.46,0,0,1-9.552-3.646,2.917,2.917,0,0,0-3.515.814,75.234,75.234,0,0,1-6.375,6.981,2.782,2.782,0,0,0,.855,4.566c6.78,2.873,14.208,3.685,20.634,3.919a36.335,36.335,0,0,0,5.752-10.963,52.037,52.037,0,0,1-7.8-1.671" transform="translate(-361.892 -143.883)" fill="#0073ff"/>
      <path id="패스_2265" data-name="패스 2265" d="M940.917,585.2a2.906,2.906,0,0,0,.29-3.617,58.81,58.81,0,0,1-5.765-10.651,46.135,46.135,0,0,1-1.936-5.783,42.41,42.41,0,0,0-10.247,7.724,63.334,63.334,0,0,0,7.557,18.679,2.782,2.782,0,0,0,4.634.237,69.915,69.915,0,0,1,5.467-6.589" transform="translate(-334.043 -113.671)" fill="#0073ff"/>
      <path id="패스_2266" data-name="패스 2266" d="M995.586,573.209a2.356,2.356,0,0,0-.766,3.631,46.373,46.373,0,0,0,10.4,9.161l1.031.667a2.468,2.468,0,0,0,3.726-1.438,56.38,56.38,0,0,0,1.869-10.993,42.491,42.491,0,0,0-6.213-5.192,82.769,82.769,0,0,0-10.049,4.165" transform="translate(-362.35 -115.222)" fill="#0073ff"/>
      <path id="패스_2267" data-name="패스 2267" d="M1541.179,641.075l-11.4,9.123h-13.855v-4.155a2.887,2.887,0,0,1,1.083-2.254l27.059-21.647a5.774,5.774,0,0,0,2.167-4.508V582.54a5.773,5.773,0,0,0-9.38-4.508l-38.249,30.6v16.627l25.619-20.5a2.887,2.887,0,0,1,4.69,2.254v10.621l-28.142,22.514a5.773,5.773,0,0,0-2.167,4.508v47.105l51.958-41.567v-4.615a5.773,5.773,0,0,0-9.38-4.508" transform="translate(-563.391 -118.296)" fill="#ffb4ff"/>
      <path id="패스_2268" data-name="패스 2268" d="M1622.509,595.991l-8.3,6.64a2.887,2.887,0,0,1-4.69-2.254V573.13l8.3-6.64a2.887,2.887,0,0,1,4.69,2.254ZM1634.055,552h-18.907l-20.781,16.625a5.773,5.773,0,0,0-2.167,4.508v51.72a5.773,5.773,0,0,0,9.38,4.508l36.082-28.866a5.773,5.773,0,0,0,2.167-4.508V557.773a5.773,5.773,0,0,0-5.773-5.773" transform="translate(-600.703 -108.427)" fill="#ff5a59"/>
      <path id="패스_2269" data-name="패스 2269" d="M325.625,651.948l.614-.582Z" transform="translate(-95.808 -148.038)" fill="#0073ff"/>
      <g id="그룹_2961" data-name="그룹 2961" transform="translate(171.469 448.865)">
        <path id="패스_2270" data-name="패스 2270" d="M294.834,666.485c-17.737,3.04-41.259,4.714-66.234,4.714v55.457l77.236-61.788a.327.327,0,0,0-.28-.573c-3.093.759-6.645,1.492-10.721,2.191" transform="translate(-228.6 -602.052)" fill="#ffb4ff"/>
        <path id="패스_2271" data-name="패스 2271" d="M295.753,615.587c-17.938-3.074-41.787-4.767-67.153-4.767v32.553c25.366,0,49.215-1.693,67.153-4.767,8.518-1.46,19.8-3.978,25.163-7.685,2.652-1.832,2.652-3.031,2.652-3.824s0-1.992-2.652-3.825c-5.366-3.707-16.645-6.225-25.163-7.685" transform="translate(-228.6 -580.74)" fill="#ffb4ff"/>
        <path id="패스_2272" data-name="패스 2272" d="M358.1,572.182l1.967-1.866a30.58,30.58,0,0,0-44.364,42.1L318.249,610h0Z" transform="translate(-259.981 -560.8)" fill="#fff"/>
        <path id="패스_2273" data-name="패스 2273" d="M370.528,573.815a25.589,25.589,0,0,0-18.184-4.4l4.234,17.635Z" transform="translate(-277.928 -564.141)" fill="#0073ff"/>
        <path id="패스_2274" data-name="패스 2274" d="M338.985,591.966l-4.909-20.446a25.56,25.56,0,0,0-15.258,14.472Z" transform="translate(-264.564 -565.073)" fill="#0073ff"/>
      </g>
      <path id="패스_2275" data-name="패스 2275" d="M391.766,579.64l.138-.131h0Z" transform="translate(-122.174 -119.393)" fill="#0073ff"/>
      <path id="패스_2276" data-name="패스 2276" d="M316.155,603.627a25.967,25.967,0,0,0-.443,4.143,25.381,25.381,0,0,0,3.882,14.25l13.953-13.241Z" transform="translate(-91.853 -129.008)" fill="#0073ff"/>
      <path id="패스_2277" data-name="패스 2277" d="M337.738,569.417a25.59,25.59,0,0,1,18.184,4.4l-13.95,13.238Zm-22.026,24.621a25.967,25.967,0,0,1,.443-4.143l17.393,5.152-13.953,13.241a25.381,25.381,0,0,1-3.882-14.25m7.937-17.858a25.394,25.394,0,0,1,9.186-5.593l4.908,20.446-20.166-5.974a25.4,25.4,0,0,1,6.072-8.879" transform="translate(-91.853 -115.276)" fill="#28e575"/>
      <path id="패스_2278" data-name="패스 2278" d="M303.825,587.057a30.567,30.567,0,0,1,52.738-20.25l3.828-3.633a35.857,35.857,0,0,0-52.02,49.365l3.828-3.633a30.374,30.374,0,0,1-8.374-21.85" transform="translate(-85.005 -108.427)" fill="#7f00ff"/>
      <path id="패스_2279" data-name="패스 2279" d="M1196.1,598.321v89.3l81.617-64.982a8.142,8.142,0,0,0,2.991-7.509l-5.177-36.668a6.781,6.781,0,0,0-5.544-5.732l-35.543-6.228a9.635,9.635,0,0,0-8.006,2.24l-28.063,24.568a6.663,6.663,0,0,0-2.274,5.014" transform="translate(-442.806 -114.15)" fill="#0073ff"/>
      <path id="패스_2280" data-name="패스 2280" d="M1308.984,552l2.355,7.02a20.14,20.14,0,0,0,12.687,12.687l7.021,2.355-7.021,2.355A20.138,20.138,0,0,0,1311.34,589.1l-2.355,7.02-2.355-7.02a20.139,20.139,0,0,0-12.687-12.687l-7.02-2.355,7.02-2.355a20.141,20.141,0,0,0,12.687-12.687Z" transform="translate(-479.01 -108.427)" fill="#ff5a59"/>
      <path id="패스_2281" data-name="패스 2281" d="M1263.338,603.049l1.761,5.252a15.064,15.064,0,0,0,9.491,9.491l5.252,1.762-5.252,1.762a15.065,15.065,0,0,0-9.491,9.491l-1.761,5.252-1.762-5.252a15.065,15.065,0,0,0-9.491-9.491l-5.252-1.762,5.252-1.762a15.064,15.064,0,0,0,9.491-9.491Z" transform="translate(-463.03 -128.777)" fill="#ffff34"/>
      <path id="패스_2282" data-name="패스 2282" d="M1312.8,645.573l1.567,4.67a13.4,13.4,0,0,0,8.44,8.44l4.67,1.567-4.67,1.567a13.4,13.4,0,0,0-8.44,8.44l-1.567,4.67-1.567-4.67a13.4,13.4,0,0,0-8.439-8.44l-4.67-1.567,4.67-1.567a13.4,13.4,0,0,0,8.439-8.44Z" transform="translate(-483.475 -145.728)" fill="#ffb4ff"/>
    </g>
  </g>
</svg>
