<svg xmlns="http://www.w3.org/2000/svg" width="1160" height="601" viewBox="0 0 1160 601">
  <g id="그룹_2982" data-name="그룹 2982" transform="translate(-100 -3627.5)">
    <rect id="사각형_547" data-name="사각형 547" width="1159" height="600" transform="translate(100.5 3628)" fill="#fff" stroke="#ddd" stroke-width="1"/>
    <g id="그룹_2778" data-name="그룹 2778" transform="translate(15 -52)">
      <g id="그룹_977" data-name="그룹 977" transform="translate(180 3796.035)">
        <path id="패스_1182" data-name="패스 1182" d="M148.362,366.057A8.362,8.362,0,1,0,140,357.7a8.362,8.362,0,0,0,8.362,8.362" transform="translate(-112.126 -321.831)" fill="#0073ff"/>
        <path id="패스_1183" data-name="패스 1183" d="M187.557,349.8a13.937,13.937,0,1,1,13.937-13.937A13.937,13.937,0,0,1,187.557,349.8M156.9,370.613a5.575,5.575,0,1,1,5.575-5.575,5.575,5.575,0,0,1-5.575,5.575M126.236,349.8a13.937,13.937,0,1,1,13.937-13.937A13.937,13.937,0,0,1,126.236,349.8m41.81-49.8h-22.3A55.747,55.747,0,0,0,90,355.747V456.092l55.747-44.6h22.3a55.747,55.747,0,0,0,0-111.494" transform="translate(-90 -300)" fill="#0073ff"/>
        <path id="패스_1184" data-name="패스 1184" d="M258.362,366.057A8.362,8.362,0,1,0,250,357.7a8.362,8.362,0,0,0,8.362,8.362" transform="translate(-160.805 -321.831)" fill="#0073ff"/>
      </g>
      <g id="그룹_978" data-name="그룹 978" transform="translate(389.052 3796.035)">
        <path id="패스_1185" data-name="패스 1185" d="M523.362,366.057A8.362,8.362,0,1,0,515,357.7a8.362,8.362,0,0,0,8.362,8.362" transform="translate(-487.126 -321.831)" fill="#7f00ff"/>
        <path id="패스_1186" data-name="패스 1186" d="M633.362,366.057A8.362,8.362,0,1,0,625,357.7a8.362,8.362,0,0,0,8.362,8.362" transform="translate(-535.805 -321.831)" fill="#7f00ff"/>
        <path id="패스_1187" data-name="패스 1187" d="M582.069,366.9H481.724v-5.575H582.069Zm-80.833-44.97A13.937,13.937,0,1,1,487.3,335.864a13.937,13.937,0,0,1,13.937-13.937m61.322,0a13.937,13.937,0,1,1-13.937,13.937,13.937,13.937,0,0,1,13.937-13.937M543.046,300h-22.3A55.747,55.747,0,0,0,465,355.747V456.092l55.747-44.6h22.3a55.747,55.747,0,0,0,0-111.494" transform="translate(-465 -300)" fill="#7f00ff"/>
      </g>
      <g id="그룹_979" data-name="그룹 979" transform="translate(598.104 3796.035)">
        <path id="패스_1188" data-name="패스 1188" d="M898.362,366.057A8.362,8.362,0,1,0,890,357.7a8.362,8.362,0,0,0,8.362,8.362" transform="translate(-862.126 -321.831)" fill="#28e575"/>
        <path id="패스_1189" data-name="패스 1189" d="M951.494,375.928c0,10.776-1.872,13.268-4.181,13.268s-4.181-2.492-4.181-13.268,4.181-25.755,4.181-25.755,4.181,14.979,4.181,25.755m0-40.064a13.937,13.937,0,1,1-13.937-13.937,13.937,13.937,0,0,1,13.937,13.937m-61.322,0a13.937,13.937,0,1,1-13.937-13.937,13.937,13.937,0,0,1,13.937,13.937m83.621,19.883h0A55.747,55.747,0,0,0,918.046,300h-22.3A55.747,55.747,0,0,0,840,355.747V456.092l55.747-44.6h22.3a55.747,55.747,0,0,0,55.747-55.747" transform="translate(-840 -300)" fill="#28e575"/>
        <path id="패스_1190" data-name="패스 1190" d="M1008.362,366.057A8.362,8.362,0,1,0,1000,357.7a8.362,8.362,0,0,0,8.362,8.362" transform="translate(-910.805 -321.831)" fill="#28e575"/>
      </g>
      <g id="그룹_980" data-name="그룹 980" transform="translate(807.155 3799.072)">
        <path id="패스_1191" data-name="패스 1191" d="M1273.362,371.507a8.362,8.362,0,1,0-8.362-8.362,8.362,8.362,0,0,0,8.362,8.362" transform="translate(-1237.126 -327.281)" fill="#ffb4ff"/>
        <path id="패스_1192" data-name="패스 1192" d="M1342.207,368.856l-11.826,11.826-3.942-3.942,11.826-11.826Zm-13.91,0-11.826,11.826-3.942-3.942,11.825-11.826Zm-1.8-27.542a13.937,13.937,0,1,1-13.937-13.937,13.937,13.937,0,0,1,13.937,13.937m-27.874,35.426,11.826-11.826,3.942,3.942-11.826,11.826Zm-33.448-35.426a13.937,13.937,0,1,1-13.937-13.937,13.937,13.937,0,0,1,13.937,13.937m-31.761,23.6,3.942,3.942-11.826,11.826-3.942-3.942Zm2.084,11.826,11.826-11.826,3.942,3.942-11.826,11.826Zm13.909,0,11.826-11.826,3.942,3.942-11.826,11.826Zm99.389-15.542h0a55.747,55.747,0,0,0-55.747-55.747h-22.3A55.747,55.747,0,0,0,1215,361.2V461.542l55.747-44.6h22.3a55.747,55.747,0,0,0,55.747-55.747" transform="translate(-1215 -305.45)" fill="#ffb4ff"/>
        <path id="패스_1193" data-name="패스 1193" d="M1383.362,371.507a8.362,8.362,0,1,0-8.362-8.362,8.362,8.362,0,0,0,8.362,8.362" transform="translate(-1285.805 -327.281)" fill="#ffb4ff"/>
      </g>
      <g id="그룹_981" data-name="그룹 981" transform="translate(1016.207 3796.035)">
        <path id="패스_1194" data-name="패스 1194" d="M1648.362,366.057A8.362,8.362,0,1,0,1640,357.7a8.362,8.362,0,0,0,8.362,8.362" transform="translate(-1612.126 -321.831)" fill="#6dd2ff"/>
        <path id="패스_1195" data-name="패스 1195" d="M1701.494,335.864a13.937,13.937,0,1,1-13.937-13.937,13.937,13.937,0,0,1,13.937,13.937m-30.661,44.04H1641.1l14.866-22.3Zm-30.661-44.04a13.937,13.937,0,1,1-13.937-13.937,13.937,13.937,0,0,1,13.937,13.937m83.621,19.883h0A55.747,55.747,0,0,0,1668.046,300h-22.3A55.747,55.747,0,0,0,1590,355.747V456.092l55.747-44.6h22.3a55.747,55.747,0,0,0,55.747-55.747" transform="translate(-1590 -300)" fill="#6dd2ff"/>
        <path id="패스_1196" data-name="패스 1196" d="M1758.362,366.057A8.362,8.362,0,1,0,1750,357.7a8.362,8.362,0,0,0,8.362,8.362" transform="translate(-1660.805 -321.831)" fill="#6dd2ff"/>
      </g>
      <g id="그룹_982" data-name="그룹 982" transform="translate(180 4007.873)">
        <path id="패스_1197" data-name="패스 1197" d="M148.362,746.057A8.362,8.362,0,1,0,140,737.7a8.362,8.362,0,0,0,8.362,8.362" transform="translate(-112.126 -701.831)" fill="#ff5a59"/>
        <path id="패스_1198" data-name="패스 1198" d="M201.494,715.864a13.937,13.937,0,1,1-13.937-13.937,13.937,13.937,0,0,1,13.937,13.937m-22.3,27.152c0,4.014-9.984,26.18-22.3,26.18s-22.3-22.166-22.3-26.18,9.984-7.268,22.3-7.268,22.3,3.254,22.3,7.268m-39.023-27.152a13.937,13.937,0,1,1-13.937-13.937,13.937,13.937,0,0,1,13.937,13.937m83.621,19.883h0A55.747,55.747,0,0,0,168.046,680h-22.3A55.747,55.747,0,0,0,90,735.747V836.092l55.747-44.6h22.3a55.747,55.747,0,0,0,55.747-55.747" transform="translate(-90 -680)" fill="#ff5a59"/>
        <path id="패스_1199" data-name="패스 1199" d="M258.362,746.057A8.362,8.362,0,1,0,250,737.7a8.362,8.362,0,0,0,8.362,8.362" transform="translate(-160.805 -701.831)" fill="#ff5a59"/>
      </g>
      <g id="그룹_983" data-name="그룹 983" transform="translate(389.052 4007.873)">
        <path id="패스_1200" data-name="패스 1200" d="M523.362,746.057A8.362,8.362,0,1,0,515,737.7a8.362,8.362,0,0,0,8.362,8.362" transform="translate(-487.126 -701.831)" fill="#ff7f0f"/>
        <path id="패스_1201" data-name="패스 1201" d="M576.494,715.864a13.937,13.937,0,1,1-13.937-13.937,13.937,13.937,0,0,1,13.937,13.937m-41.585,36.607,10.924,10.924-3.942,3.942-10.924-10.924-10.924,10.924-3.942-3.942,10.924-10.924L516.1,741.547l3.942-3.942,10.924,10.924,10.924-10.924,3.942,3.942Zm-19.737-36.607a13.937,13.937,0,1,1-13.937-13.937,13.937,13.937,0,0,1,13.937,13.937m83.621,19.883h0A55.747,55.747,0,0,0,543.046,680h-22.3A55.747,55.747,0,0,0,465,735.747V836.092l55.747-44.6h22.3a55.747,55.747,0,0,0,55.747-55.747" transform="translate(-465 -680)" fill="#ff7f0f"/>
        <path id="패스_1202" data-name="패스 1202" d="M633.362,746.057A8.362,8.362,0,1,0,625,737.7a8.362,8.362,0,0,0,8.362,8.362" transform="translate(-535.805 -701.831)" fill="#ff7f0f"/>
      </g>
      <g id="그룹_984" data-name="그룹 984" transform="translate(598.104 4007.873)">
        <path id="패스_1203" data-name="패스 1203" d="M898.362,746.057A8.362,8.362,0,1,0,890,737.7a8.362,8.362,0,0,0,8.362,8.362" transform="translate(-862.126 -701.831)" fill="#1a247d"/>
        <path id="패스_1204" data-name="패스 1204" d="M951.494,715.864a13.937,13.937,0,1,1-13.937-13.937,13.937,13.937,0,0,1,13.937,13.937m-14.866,23.6c37.165,0-9.291,39.023-9.291,39.023H886.456S840,739.464,877.165,739.464Zm-46.456-23.6a13.937,13.937,0,1,1-13.937-13.937,13.937,13.937,0,0,1,13.937,13.937m83.621,19.883h0A55.747,55.747,0,0,0,918.046,680h-22.3A55.747,55.747,0,0,0,840,735.747V836.092l55.747-44.6h22.3a55.747,55.747,0,0,0,55.747-55.747" transform="translate(-840 -680)" fill="#1a247d"/>
        <path id="패스_1205" data-name="패스 1205" d="M1008.362,746.057A8.362,8.362,0,1,0,1000,737.7a8.362,8.362,0,0,0,8.362,8.362" transform="translate(-910.805 -701.831)" fill="#1a247d"/>
      </g>
      <g id="그룹_985" data-name="그룹 985" transform="translate(807.155 4007.873)">
        <path id="패스_1206" data-name="패스 1206" d="M1273.362,746.057A8.362,8.362,0,1,0,1265,737.7a8.362,8.362,0,0,0,8.362,8.362" transform="translate(-1237.126 -701.831)" fill="#c8c8c8"/>
        <path id="패스_1207" data-name="패스 1207" d="M1326.494,715.864a13.937,13.937,0,1,1-13.937-13.937,13.937,13.937,0,0,1,13.937,13.937m-28.008,36.246a2.789,2.789,0,0,1-.637,5.541c-9.029-.975-13.635-6.173-15.953-10.686-2.318,4.512-6.923,9.711-15.953,10.686a2.789,2.789,0,0,1-.641-5.541c5.467-.59,9.4-3.227,11.719-7.858a20.619,20.619,0,0,0,1.812-5.686,3.1,3.1,0,0,1,6.124-.007,20.485,20.485,0,0,0,1.893,5.849c2.325,4.533,6.232,7.117,11.635,7.7m-33.313-36.246a13.937,13.937,0,1,1-13.937-13.937,13.937,13.937,0,0,1,13.937,13.937m83.621,19.883h0A55.747,55.747,0,0,0,1293.046,680h-22.3A55.747,55.747,0,0,0,1215,735.747V836.092l55.747-44.6h22.3a55.747,55.747,0,0,0,55.747-55.747" transform="translate(-1215 -680)" fill="#c8c8c8"/>
        <path id="패스_1208" data-name="패스 1208" d="M1383.362,746.057A8.362,8.362,0,1,0,1375,737.7a8.362,8.362,0,0,0,8.362,8.362" transform="translate(-1285.805 -701.831)" fill="#c8c8c8"/>
      </g>
      <g id="그룹_986" data-name="그룹 986" transform="translate(1016.207 4007.873)">
        <path id="패스_1209" data-name="패스 1209" d="M1648.362,746.057A8.362,8.362,0,1,0,1640,737.7a8.362,8.362,0,0,0,8.362,8.362" transform="translate(-1612.126 -701.831)" fill="#0073ff"/>
        <path id="패스_1210" data-name="패스 1210" d="M1712.644,746.9l-9.291,18.582-9.291-18.582-9.292,18.582-9.291-18.582-9.291,18.582L1656.9,746.9l-9.291,18.582-9.291-18.582-9.291,18.582-9.291-18.582-9.291,18.582-9.291-18.582h111.494Zm-11.149-31.033a13.937,13.937,0,1,1-13.937-13.937,13.937,13.937,0,0,1,13.937,13.937m-61.322,0a13.937,13.937,0,1,1-13.937-13.937,13.937,13.937,0,0,1,13.937,13.937m83.621,19.883h0A55.747,55.747,0,0,0,1668.046,680h-22.3A55.747,55.747,0,0,0,1590,735.747V836.092l55.747-44.6h22.3a55.747,55.747,0,0,0,55.747-55.747" transform="translate(-1590 -680)" fill="#0073ff"/>
        <path id="패스_1211" data-name="패스 1211" d="M1758.362,746.057A8.362,8.362,0,1,0,1750,737.7a8.362,8.362,0,0,0,8.362,8.362" transform="translate(-1660.805 -701.831)" fill="#0073ff"/>
      </g>
    </g>
  </g>
</svg>
