<svg xmlns="http://www.w3.org/2000/svg" width="131.053" height="152.896" viewBox="0 0 131.053 152.896">
  <g id="그룹_2967" data-name="그룹 2967" transform="translate(-930.811 -155.373)">
    <g id="그룹_913" data-name="그룹 913" transform="translate(930.811 155.373)">
      <path id="패스_1062" data-name="패스 1062" d="M148.191,365.715A8.191,8.191,0,1,0,140,357.524a8.191,8.191,0,0,0,8.191,8.191" transform="translate(-112.697 -322.394)" fill="#6dd2ff"/>
      <path id="패스_1063" data-name="패스 1063" d="M185.56,348.781a13.651,13.651,0,1,1,13.651-13.651,13.651,13.651,0,0,1-13.651,13.651m-30.033,20.386a5.461,5.461,0,1,1,5.461-5.461,5.46,5.46,0,0,1-5.461,5.461m-30.033-20.386a13.651,13.651,0,1,1,13.651-13.651,13.651,13.651,0,0,1-13.651,13.651M166.448,300H144.606A54.605,54.605,0,0,0,90,354.606V452.9l54.606-43.684h21.842a54.606,54.606,0,1,0,0-109.211" transform="translate(-90 -300)" fill="#6dd2ff"/>
      <path id="패스_1064" data-name="패스 1064" d="M258.191,365.715A8.191,8.191,0,1,0,250,357.524a8.191,8.191,0,0,0,8.191,8.191" transform="translate(-162.631 -322.394)" fill="#6dd2ff"/>
    </g>
  </g>
</svg>
