<svg xmlns="http://www.w3.org/2000/svg" width="107.299" height="143.678" viewBox="0 0 107.299 143.678">
  <path id="패스_1065" data-name="패스 1065" d="M1069.565,311.892v55.223a3.252,3.252,0,0,1-2.309,3.112l-25.587,7.747a6.5,6.5,0,0,0-4.618,6.224v43.376l48.772-39.018V327.815a3.251,3.251,0,0,1,3.381-3.249L1124.97,326a3.251,3.251,0,0,1,3.121,3.249v29.193a3.252,3.252,0,0,1-3.733,3.216l-18.39-2.753a6.5,6.5,0,0,0-7.466,6.432v36.548l45.846-31.873V290.4a6.5,6.5,0,0,0-8.639-6.142l-61.778,21.488a6.5,6.5,0,0,0-4.366,6.142" transform="translate(-1037.05 -283.895)" fill="#ffb4ff"/>
</svg>
