<svg xmlns="http://www.w3.org/2000/svg" width="446.851" height="75.828" viewBox="0 0 446.851 75.828">
  <path id="패스_1066" data-name="패스 1066" d="M939.325,924.614H906v51.673h0v22.287l27.858-22.287h5.466c15.868,0,26.084-11.9,26.084-25.787C965.409,936.515,955.193,924.614,939.325,924.614Zm-4.166,35.705h-8.53V940.681h8.628c5.554,0,9.125,4.464,9.125,9.819S940.713,960.319,935.159,960.319Zm57.463,15.107h21.584V993.44H972.171V924.614h20.451Zm50.829-50.812-23.829,68.826h22.122l2.36-7.964h23.105l2.36,7.964h22.811l-24.418-68.826Zm4.98,46.015,7.276-25.367,7.276,25.367Zm83.42-46.015h22.811l-34.119,68.826h-23.007l11.9-24.8-23.1-44.028h23.99l11.111,24.483Zm48.375,50.812h21.584V993.44h-42.035V924.614h20.451Zm29.526-50.812H1230.4V993.44h-20.648Zm84.886,48.178c0,14.257-10.718,22.516-28.12,22.516-17.207,0-28.317-8.947-28.317-25.072h20.451c0,6.194,3.441,9.733,8.652,9.733,4.129,0,6.783-2.261,6.783-5.9,0-3.834-3.146-5.408-10.422-8.259-12.684-4.915-23.991-9.045-23.991-23.105,0-14.158,13.471-19.96,27.235-19.96,20.156,0,26.842,11.6,26.842,22.418H1273.3c0-5.6-2.163-8.554-6.783-8.554-3.344,0-6.294,1.672-6.294,5.408,0,3.54,3.147,5.6,9.44,7.866C1281.561,954.111,1294.638,958.535,1294.638,972.792Zm58.213-48.178v18.015h-16.21V993.44H1316.19V942.629h-16.211V924.614Z" transform="translate(-906 -922.746)" fill="#0073ff"/>
</svg>
