<svg xmlns="http://www.w3.org/2000/svg" width="463.535" height="39.013" viewBox="0 0 463.535 39.013">
  <g id="그룹_971" data-name="그룹 971" transform="translate(-206 -932.254)">
    <path id="패스_1161" data-name="패스 1161" d="M223.145,938.475H206v38.052l14.333-11.466h2.812a13.293,13.293,0,1,0,0-26.585ZM221,956.845h-4.388v-10.1h4.439a5.063,5.063,0,0,1-.051,10.1Z" transform="translate(0 -5.26)" fill="#0073ff"/>
    <path id="패스_1162" data-name="패스 1162" d="M436.859,938.475H426.337v35.41h21.627v-9.268h-11.1Z" transform="translate(-186.293 -5.26)" fill="#0073ff"/>
    <path id="패스_1163" data-name="패스 1163" d="M596.6,938.475l-12.26,35.41h11.382l1.214-4.1h11.888l1.214,4.1h11.736l-12.563-35.41Zm2.562,23.674,3.743-13.051,3.744,13.051Z" transform="translate(-319.884 -5.26)" fill="#0073ff"/>
    <path id="패스_1164" data-name="패스 1164" d="M825.448,951.071l-5.716-12.6H807.389l11.888,22.652-6.121,12.759h11.837l17.553-35.41H830.81Z" transform="translate(-508.467 -5.26)" fill="#0073ff"/>
    <path id="패스_1165" data-name="패스 1165" d="M1130.435,938.475l-5.362,12.6-5.716-12.6h-12.343l11.888,22.652-6.121,12.759h11.837l17.554-35.411Z" transform="translate(-761.797 -5.26)" fill="#0073ff"/>
    <path id="패스_1166" data-name="패스 1166" d="M1340.049,932.254c-12.141,0-19.172,8.9-19.172,18.666s7.032,18.667,19.172,18.667c12.192,0,19.223-8.9,19.223-18.667S1352.241,932.254,1340.049,932.254Zm0,27.721c-5.362,0-8.549-4.35-8.549-9.055s3.187-9.055,8.549-9.055c5.413,0,8.549,4.35,8.549,9.055S1345.462,959.975,1340.049,959.975Z" transform="translate(-942.616 0)" fill="#0073ff"/>
    <path id="패스_1167" data-name="패스 1167" d="M1614.156,961.492a4.278,4.278,0,1,1-8.549,0V938.475h-10.522v23.118c0,7.689,5.615,13.254,14.772,13.254,9.257,0,14.822-5.565,14.822-13.254V938.475h-10.522Z" transform="translate(-1174.455 -5.26)" fill="#0073ff"/>
    <path id="패스_1168" data-name="패스 1168" d="M1851.295,951.678a12.892,12.892,0,0,0-13.3-13.2h-17v35.41h10.522V964.83h1.973l6.02,9.055H1851.9l-7.082-10.775A12.962,12.962,0,0,0,1851.295,951.678Zm-15.429,5.008h-4.35V946.67h4.4a5.02,5.02,0,0,1-.05,10.016Z" transform="translate(-1365.458 -5.26)" fill="#0073ff"/>
    <path id="패스_1169" data-name="패스 1169" d="M3001.881,938.475l-5.362,12.6-5.717-12.6H2978.46l11.888,22.652-6.121,12.759h11.837l17.554-35.411Z" transform="translate(-2344.083 -5.26)" fill="#0073ff"/>
    <path id="패스_1170" data-name="패스 1170" d="M2322.386,947.743h8.34v26.142h10.522V947.743h8.34v-9.268h-27.2Z" transform="translate(-1789.38 -5.26)" fill="#0073ff"/>
    <path id="패스_1171" data-name="패스 1171" d="M2133.81,946.216c-3.238-1.163-4.856-2.226-4.856-4.047,0-1.922,1.518-2.782,3.237-2.782,2.378,0,3.49,1.517,3.49,4.4H2146.2c0-5.565-3.44-11.534-13.81-11.534-7.082,0-14.013,2.984-14.013,10.269,0,7.234,5.818,9.359,12.343,11.888,3.744,1.467,5.362,2.276,5.362,4.249,0,1.872-1.366,3.035-3.491,3.035-2.681,0-4.451-1.821-4.451-5.008h-10.522c0,8.3,5.716,12.9,14.569,12.9,8.954,0,14.468-4.249,14.468-11.584S2139.931,948.391,2133.81,946.216Z" transform="translate(-1616.255 0)" fill="#0073ff"/>
    <path id="패스_1172" data-name="패스 1172" d="M2531.249,932.254c-12.14,0-19.172,8.9-19.172,18.666s7.032,18.667,19.172,18.667c12.192,0,19.223-8.9,19.223-18.667S2543.441,932.254,2531.249,932.254Zm0,27.721c-5.362,0-8.549-4.35-8.549-9.055s3.187-9.055,8.549-9.055c5.413,0,8.549,4.35,8.549,9.055S2536.662,959.975,2531.249,959.975Z" transform="translate(-1949.761 0)" fill="#0073ff"/>
    <path id="패스_1173" data-name="패스 1173" d="M2815.643,951.678a12.891,12.891,0,0,0-13.3-13.2h-17v35.41h10.522V964.83h1.973l6.02,9.055h12.393l-7.082-10.775A12.961,12.961,0,0,0,2815.643,951.678Zm-15.429,5.008h-4.35V946.67h4.4a5.02,5.02,0,0,1-.05,10.016Z" transform="translate(-2180.803 -5.26)" fill="#0073ff"/>
  </g>
</svg>
