<?xml version="1.0" encoding="utf-8"?>
<!-- Generator: Adobe Illustrator 24.1.2, SVG Export Plug-In . SVG Version: 6.00 Build 0)  -->
<svg version="1.1" id="레이어_1" xmlns="http://www.w3.org/2000/svg" xmlns:xlink="http://www.w3.org/1999/xlink" x="0px"
	 y="0px" viewBox="0 0 104.35 129.896" style="enable-background:new 0 0 104.35 129.896;" xml:space="preserve">
<style type="text/css">
	.st0{fill:#6DD2FF;}
	.st1{fill:#7F00FF;}
	.st2{fill:#FFFF34;}
</style>
<g>
	<path id="패스_2219" class="st0" d="M51.959,95.257l-43.3,34.639V95.257H51.959z"/>
	<path class="st1" d="M79.093,9.699c-6.581,0-12.572,2.519-17.067,6.642C58.422,6.793,49.202,0,38.392,0
		c-13.95,0-25.258,11.308-25.258,25.258c0,4.344,1.098,8.432,3.029,12.002C6.709,40.912,0,50.082,0,60.824
		c0,13.95,11.308,25.258,25.258,25.258c8.107,0,15.316-3.823,19.937-9.76C47.421,87.997,57.677,96.824,70,96.824
		c13.95,0,25.258-11.308,25.258-25.258c0-5.29-1.629-10.199-4.409-14.256c8.026-4.23,13.501-12.65,13.501-22.353
		c0,0,0-0.001,0-0.001C104.35,21.007,93.042,9.699,79.093,9.699z M50.063,56.069c-0.491-2.575-1.368-5.013-2.576-7.247
		c2.969-1.147,5.669-2.834,7.974-4.949c0.717,1.899,1.654,3.689,2.784,5.338C55.051,50.894,52.264,53.241,50.063,56.069z"/>
	<path id="패스_2224" class="st2" d="M65.906,49.134c0,8.38-6.793,15.173-15.173,15.173S35.56,57.514,35.56,49.134
		c0-8.379,6.793-15.172,15.172-15.173c8.38-0.001,15.173,6.792,15.174,15.172C65.906,49.133,65.906,49.134,65.906,49.134"/>
</g>
</svg>
