<?xml version="1.0" encoding="utf-8"?>
<!-- Generator: Adobe Illustrator 24.1.2, SVG Export Plug-In . SVG Version: 6.00 Build 0)  -->
<svg version="1.1" id="레이어_1" xmlns="http://www.w3.org/2000/svg" xmlns:xlink="http://www.w3.org/1999/xlink" x="0px"
	 y="0px" viewBox="0 0 97.915 127.846" style="enable-background:new 0 0 97.915 127.846;" xml:space="preserve">
<style type="text/css">
	.st0{fill:#28E575;}
</style>
<path id="패스_2243" class="st0" d="M11.531,41.296L34.98,53.278c1.42,0.725,1.983,2.463,1.258,3.883
	c-0.252,0.493-0.64,0.904-1.119,1.182l-33.685,19.6c-0.89,0.518-1.436,1.471-1.434,2.5v47.403l95.748-76.6
	c2.49-1.992,2.893-5.625,0.901-8.114c-0.68-0.85-1.587-1.491-2.616-1.848L59.645,29.357c-1.506-0.523-2.303-2.168-1.78-3.674
	c0.194-0.558,0.555-1.044,1.033-1.391L90.626,1.308c0.324-0.232,0.399-0.682,0.167-1.006c-0.193-0.27-0.546-0.373-0.854-0.25
	l-77.9,30.734c-2.966,1.17-4.422,4.523-3.251,7.489c0.516,1.308,1.491,2.382,2.743,3.022"/>
</svg>
