<?xml version="1.0" encoding="utf-8"?>
<!-- Generator: Adobe Illustrator 24.1.2, SVG Export Plug-In . SVG Version: 6.00 Build 0)  -->
<svg version="1.1" id="레이어_1" xmlns="http://www.w3.org/2000/svg" xmlns:xlink="http://www.w3.org/1999/xlink" x="0px"
	 y="0px" viewBox="0 0 29.691 38.767" style="enable-background:new 0 0 29.691 38.767;" xml:space="preserve">
<style type="text/css">
	.st0{fill:#0073FF;}
</style>
<path id="패스_2243" class="st0" d="M3.497,12.522l7.111,3.633c0.43,0.22,0.601,0.747,0.382,1.177
	c-0.076,0.15-0.194,0.274-0.339,0.359L0.435,23.635C0.165,23.792-0.001,24.081,0,24.393v14.374l29.034-23.228
	c0.755-0.604,0.877-1.706,0.273-2.461c-0.206-0.258-0.481-0.452-0.793-0.56L18.086,8.902c-0.457-0.159-0.698-0.657-0.54-1.114
	c0.059-0.169,0.168-0.317,0.313-0.422l9.621-6.97c0.098-0.07,0.121-0.207,0.051-0.305c-0.059-0.082-0.165-0.113-0.259-0.076
	L3.651,9.335C2.751,9.69,2.31,10.707,2.665,11.606C2.821,12.003,3.117,12.329,3.497,12.522"/>
</svg>
