<svg xmlns="http://www.w3.org/2000/svg" width="281.565" height="377.029" viewBox="0 0 281.565 377.029">
  <path id="패스_1445" data-name="패스 1445" d="M3282.5,204.121v144.91a8.533,8.533,0,0,1-6.06,8.166l-67.144,20.33a17.065,17.065,0,0,0-12.119,16.332V507.684L3325.163,405.3V245.906a8.532,8.532,0,0,1,8.872-8.525l93.857,3.749a8.53,8.53,0,0,1,8.191,8.525v76.606a8.533,8.533,0,0,1-9.8,8.438l-48.257-7.224a17.066,17.066,0,0,0-19.59,16.878v95.906l120.305-83.638V147.734a17.065,17.065,0,0,0-22.671-16.117L3293.96,188a17.065,17.065,0,0,0-11.458,16.117" transform="translate(-3197.179 -130.655)" fill="#29e575"/>
</svg>
