<svg xmlns="http://www.w3.org/2000/svg" width="1034" height="572.342" viewBox="0 0 1034 572.342"><path d="M994.973,633.732h13.619c39.541,0,64.995-29.655,64.995-64.253,0-34.845-25.454-64.5-64.995-64.5H925.557V689.265ZM976.96,545.013h21.5c13.839,0,22.736,11.121,22.736,24.466s-9.144,24.465-22.983,24.465H976.96Zm218.218,131.46h-104.74v-171.5H1141.4V631.586h53.781Zm74.5-19.845h57.573l5.88,19.845h56.839l-60.843-171.5h-61.078l-59.373,171.5H1263.8Zm28.909-100.2,18.129,63.208h-36.258Zm134.568,58.255-57.573-109.7h59.778l27.685,61,25.969-61h56.838l-85.012,171.5H1403.51ZM876.271,702.967l-85.013,171.5H733.929l29.644-61.791L706,702.967h59.779l27.684,61,25.969-61Zm175.715,85.747c0-47.283-34.053-90.4-93.1-90.4-58.8,0-92.852,43.119-92.852,90.4s34.055,90.4,92.852,90.4C1017.932,879.117,1051.986,836,1051.986,788.714Zm-134.5,0c0-22.784,15.435-43.853,41.4-43.853,26.215,0,41.4,21.069,41.4,43.853s-15.19,43.854-41.4,43.854C932.92,832.568,917.484,811.5,917.484,788.714Zm246.107-85.747h50.958V814.928c0,37.239-26.949,64.189-71.781,64.189-44.345,0-71.539-26.95-71.539-64.189V702.967h50.959V814.439c0,11.76,8.819,21.56,20.58,21.56,12.249,0,20.824-9.8,20.824-21.56Zm223.438,63.944c0-34.545-25.234-63.944-64.433-63.944h-82.318V874.462h50.959V830.608h9.554l29.155,43.854h60.023l-34.3-52.183C1375.268,811.254,1387.029,790.184,1387.029,766.91Zm-74.722,24.254h-21.069V742.655h21.313c13.721,0,22.54,11.025,22.54,24.255S1326.026,791.164,1312.306,791.164ZM1740,901.17l-85.013,171.5h-57.329l29.645-61.792-57.573-109.7h59.779l27.685,61,25.969-61Zm-661.216,0h131.743v44.887h-40.392v126.608h-50.959V946.057h-40.392Zm-12.6,120.047c0,35.523-26.7,56.1-70.069,56.1-42.874,0-70.558-22.295-70.558-62.473h50.959c0,15.435,8.573,24.254,21.559,24.254,10.29,0,16.905-5.634,16.905-14.7,0-9.554-7.84-13.474-25.97-20.579-31.6-12.25-59.779-22.54-59.779-57.574,0-35.279,33.564-49.733,67.864-49.733,50.222,0,66.883,28.909,66.883,55.858H1013.02c0-13.965-5.39-21.314-16.9-21.314-8.329,0-15.679,4.165-15.679,13.475,0,8.82,7.839,13.965,23.519,19.6C1033.6,974.667,1066.183,985.692,1066.183,1021.216Zm247.4-124.7c-58.8,0-92.853,43.119-92.853,90.4s34.055,90.4,92.853,90.4c59.045,0,93.1-43.119,93.1-90.4S1372.628,896.515,1313.583,896.515Zm0,134.256c-25.968,0-41.4-21.07-41.4-43.854s15.435-43.853,41.4-43.853c26.215,0,41.4,21.069,41.4,43.853S1339.8,1030.771,1313.583,1030.771Zm258.385-65.658c0-34.544-25.234-63.943-64.433-63.943h-82.318v171.5h50.959V1028.81h9.555l29.155,43.855h60.022l-34.3-52.184C1560.208,1009.457,1571.969,988.386,1571.969,965.113Zm-74.723,24.254h-21.069V940.858h21.313c13.721,0,22.54,11.025,22.54,24.254S1510.965,989.367,1497.246,989.367Z" transform="translate(-706 -504.978)" fill="#0073ff"/></svg>