<svg id="그룹_2544" data-name="그룹 2544" xmlns="http://www.w3.org/2000/svg" width="300.767" height="60.309" viewBox="0 0 300.767 60.309">
  <path id="패스_1493" data-name="패스 1493" d="M1044.964,487.47V502.1h-34.129V446.215h16.6V487.47Z" transform="translate(-799.135 -445.956)" fill="#7f00ff"/>
  <path id="패스_1494" data-name="패스 1494" d="M1066.46,502.1h-18.68l9.659-20.135-18.76-35.746h19.478l9.021,19.878,8.461-19.878h18.521Z" transform="translate(-793.395 -445.956)" fill="#7f00ff"/>
  <path id="패스_1495" data-name="패스 1495" d="M900.781,501.88H884.655V467.234L874.518,501.88H862.224l-10.777-34.646V501.88H835.321V446h21.156l11.813,36.081L880.184,446h20.6Z" transform="translate(-835.321 -446)" fill="#7f00ff"/>
  <path id="패스_1496" data-name="패스 1496" d="M897.086,446h16.6v36.322a6.751,6.751,0,1,0,13.491,0V446h16.6v36.482c0,12.133-8.781,20.915-23.389,20.915-14.45,0-23.31-8.782-23.31-20.915Z" transform="translate(-822.587 -446)" fill="#7f00ff"/>
  <path id="패스_1497" data-name="패스 1497" d="M952.043,450.26a9.665,9.665,0,1,1-9.745,9.665,9.7,9.7,0,0,1,9.745-9.665" transform="translate(-813.266 -445.122)" fill="#7f00ff"/>
  <path id="패스_1498" data-name="패스 1498" d="M952.11,473.89a9.665,9.665,0,1,1-9.745,9.664,9.628,9.628,0,0,1,9.745-9.664" transform="translate(-813.252 -440.25)" fill="#7f00ff"/>
  <path id="패스_1499" data-name="패스 1499" d="M988.873,475.2h-6.925V459.26h7.005c4.509,0,7.408,3.625,7.408,7.973s-2.979,7.972-7.489,7.972m3.382-28.989H965.2v60.049l22.619-18.1h4.438c12.884,0,21.178-9.663,21.178-20.936,0-11.355-8.294-21.018-21.178-21.018" transform="translate(-808.544 -445.956)" fill="#7f00ff"/>
</svg>
