<svg xmlns="http://www.w3.org/2000/svg" width="333" height="91.493" viewBox="0 0 333 91.493">
  <g id="그룹_2961" data-name="그룹 2961" transform="translate(-100 -1296)">
    <g id="그룹_1400" data-name="그룹 1400" transform="translate(99.999 1295.999)">
      <path id="패스_1472" data-name="패스 1472" d="M96.962,494.588c0-5.524-3.681-10.632-10.037-10.632-6.3,0-10.038,5.108-10.038,10.632S80.63,505.22,86.926,505.22c6.355,0,10.037-5.108,10.037-10.631m-32.548,0c0-11.464,8.256-21.917,22.512-21.917,14.314,0,22.57,10.453,22.57,21.917s-8.256,21.918-22.57,21.918c-14.256,0-22.512-10.455-22.512-21.918" transform="translate(-64.413 -425.013)" fill="#0073ff"/>
      <path id="패스_1473" data-name="패스 1473" d="M131.336,489.16c0-3.207-2.139-5.881-5.464-5.881H120.7v11.761h5.108a5.562,5.562,0,0,0,5.524-5.881m-22.986-15.5h19.958a15.556,15.556,0,0,1,8.017,28.926l8.316,12.651H130.09L123.021,504.6H120.7v10.631H108.35Z" transform="translate(-58.101 -424.871)" fill="#0073ff"/>
      <rect id="사각형_857" data-name="사각형 857" width="12.474" height="41.577" transform="translate(91.706 48.787)" fill="#0073ff"/>
      <path id="패스_1474" data-name="패스 1474" d="M183.775,492.332h23.4v8.138H203.2c-1.545,9.562-8.731,16.036-20.967,16.036-14.255,0-22.155-9.978-22.155-21.917,0-11.4,8.137-21.917,22.1-21.917,12.058,0,19.9,7.127,20.669,15.562h-13.66c-.416-2.377-2.793-4.99-7.128-4.99-6.653,0-9.385,5.643-9.385,11.524,0,6.474,3.327,11.582,10.157,11.582,4.633,0,7.246-2.613,7.841-5.88h-6.891Z" transform="translate(-50.67 -425.012)" fill="#0073ff"/>
      <rect id="사각형_858" data-name="사각형 858" width="12.474" height="41.577" transform="translate(160.781 48.787)" fill="#0073ff"/>
      <path id="패스_1475" data-name="패스 1475" d="M247.948,498.308V473.658h12.413v41.578H247.77l-13.6-23.818v23.818H221.814V473.658h12.593Z" transform="translate(-41.801 -424.871)" fill="#0073ff"/>
      <path id="패스_1476" data-name="패스 1476" d="M338.129,501.36c0,3.743,2.078,5.881,5.226,5.881,2.494,0,4.1-1.366,4.1-3.564,0-2.317-1.9-3.266-6.3-4.99-7.661-2.969-14.492-5.464-14.492-13.958,0-8.552,8.137-12.056,16.454-12.056,12.175,0,16.215,7.008,16.215,13.542H346.979c0-3.385-1.307-5.168-4.1-5.168-2.02,0-3.8,1.011-3.8,3.267,0,2.139,1.9,3.385,5.7,4.752,7.188,2.554,15.087,5.227,15.087,13.838s-6.474,13.6-16.987,13.6c-10.395,0-17.107-5.4-17.107-15.147Z" transform="translate(-26.867 -425.012)" fill="#0073ff"/>
      <path id="패스_1477" data-name="패스 1477" d="M325.871,504.084v10.787H300.7V473.658h12.245v30.426Z" transform="translate(-30.468 -424.871)" fill="#0073ff"/>
      <path id="패스_1478" data-name="패스 1478" d="M280.5,486.022l-4.356,15.19h8.714Zm8.3,28.849-1.414-4.769H273.555l-1.414,4.769H258.894l14.268-41.213H287.84l14.622,41.213Z" transform="translate(-36.474 -424.871)" fill="#0073ff"/>
      <path id="패스_1479" data-name="패스 1479" d="M83.747,453.556H78.594V441.693h5.213c3.355,0,5.512,2.7,5.512,5.931a5.612,5.612,0,0,1-5.573,5.932m2.517-21.569H66.132v44.68L82.962,463.2h3.3a15.608,15.608,0,1,0,0-31.215" transform="translate(-64.166 -430.857)" fill="#0073ff"/>
      <path id="패스_1480" data-name="패스 1480" d="M113.44,431.987H101.085v41.578h25.394V462.683H113.44Z" transform="translate(-59.145 -430.857)" fill="#0073ff"/>
      <path id="패스_1481" data-name="패스 1481" d="M143.554,459.785l4.4-15.324,4.4,15.324Zm-3.009-27.8-14.394,41.578h13.364l1.426-4.811H154.9l1.425,4.811H170.1l-14.751-41.578Z" transform="translate(-55.544 -430.857)" fill="#0073ff"/>
      <path id="패스_1482" data-name="패스 1482" d="M182.591,446.777l-6.712-14.79H161.385l13.959,26.6-7.188,14.981h13.9l20.611-41.578h-13.78Z" transform="translate(-50.482 -430.857)" fill="#0073ff"/>
      <path id="패스_1483" data-name="패스 1483" d="M212.537,431.987H200.182v41.578h25.394V462.683H212.537Z" transform="translate(-44.909 -430.857)" fill="#0073ff"/>
      <rect id="사각형_859" data-name="사각형 859" width="12.473" height="41.578" transform="translate(185.465 1.13)" fill="#0073ff"/>
      <path id="패스_1484" data-name="패스 1484" d="M260.616,447.393c-3.8-1.366-5.7-2.613-5.7-4.752,0-2.256,1.782-3.266,3.8-3.266,2.792,0,4.1,1.782,4.1,5.167h12.355c0-6.534-4.039-13.542-16.216-13.542-8.314,0-16.453,3.5-16.453,12.058,0,8.493,6.831,10.988,14.494,13.958,4.4,1.722,6.295,2.673,6.295,4.989,0,2.2-1.6,3.564-4.1,3.564-3.148,0-5.227-2.138-5.227-5.88H241.608c0,9.741,6.712,15.147,17.107,15.147,10.512,0,16.987-4.99,16.987-13.6s-7.9-11.286-15.086-13.839" transform="translate(-38.958 -430.999)" fill="#0073ff"/>
      <path id="패스_1485" data-name="패스 1485" d="M274.241,431.987V442.87h9.793v30.695h12.354V442.87h9.793V431.987Z" transform="translate(-34.27 -430.857)" fill="#0073ff"/>
    </g>
  </g>
</svg>
