<svg xmlns="http://www.w3.org/2000/svg" width="333" height="58.173" viewBox="0 0 333 58.173">
  <g id="그룹_1401" data-name="그룹 1401" transform="translate(-0.001 0.001)">
    <path id="패스_1486" data-name="패스 1486" d="M687.01,485.965v14.169H653.947V446h16.086v39.965Z" transform="translate(-407.23 -446)" fill="#ff7f0f"/>
    <path id="패스_1487" data-name="패스 1487" d="M708.826,500.134h-18.1l9.358-19.505L681.913,446h18.87l8.739,19.256,8.2-19.256H735.66Z" transform="translate(-402.659 -446)" fill="#ff7f0f"/>
    <path id="패스_1488" data-name="패스 1488" d="M499.652,458.486v9.434h18.792v11.523H499.652v9.048h18.792v12.065H483.567V446.421h34.878v12.065Z" transform="translate(-435.077 -445.932)" fill="#ff7f0f"/>
    <path id="패스_1489" data-name="패스 1489" d="M537.279,458.486v9.434h18.792v11.523H537.279v9.048h18.792v12.065H521.192V446.421h34.879v12.065Z" transform="translate(-428.927 -445.932)" fill="#ff7f0f"/>
    <path id="패스_1490" data-name="패스 1490" d="M591.211,478.515V446.421h16.164v54.135h-16.4L573.27,469.543v31.013H557.183V446.421h16.4Z" transform="translate(-423.045 -445.932)" fill="#ff7f0f"/>
    <path id="패스_1491" data-name="패스 1491" d="M631.048,474.083h-6.709V458.637h6.787c4.369,0,7.176,3.51,7.176,7.723s-2.886,7.723-7.254,7.723M634.324,446H608.113v58.172l21.912-17.53h4.3c12.481,0,20.516-9.361,20.516-20.282,0-11-8.035-20.36-20.516-20.36" transform="translate(-414.721 -446)" fill="#ff7f0f"/>
    <path id="패스_1492" data-name="패스 1492" d="M441.889,446.421V460.59h12.75v39.965h16.087V460.59h12.749V446.421Z" transform="translate(-441.888 -445.932)" fill="#ff7f0f"/>
  </g>
</svg>
