<?xml version="1.0" encoding="utf-8"?>
<!-- Generator: Adobe Illustrator 24.3.0, SVG Export Plug-In . SVG Version: 6.00 Build 0)  -->
<svg version="1.1" id="레이어_1" xmlns="http://www.w3.org/2000/svg" xmlns:xlink="http://www.w3.org/1999/xlink" x="0px"
	 y="0px" viewBox="0 0 3302.5 436.9" style="enable-background:new 0 0 3302.5 436.9;" xml:space="preserve">
<style type="text/css">
	.st0{enable-background:new    ;}
	.st1{fill:#6DD2FF;}
</style>
<g>
	<g class="st0">
		<g>
			<path class="st1" d="M662.33,21.196v115.276v1h1h44.695V162.4h-78.578V21.196H662.33 M663.33,20.196h-34.883V163.4h80.578
				v-26.928H663.33V20.196L663.33,20.196z"/>
		</g>
		<g>
			<path class="st1" d="M747.172,1c11.359,0,19.604,7.558,19.604,17.971c0,10.295-8.244,17.768-19.604,17.768
				c-11.477,0-19.808-7.472-19.808-17.768C727.365,8.558,735.695,1,747.172,1 M763.512,50.571V162.4h-32.883V50.571H763.512
				 M747.172,0c-12.444,0-20.808,8.363-20.808,18.971c0,10.404,8.364,18.768,20.808,18.768c12.24,0,20.604-8.363,20.604-18.768
				C767.776,8.364,759.412,0,747.172,0L747.172,0z M764.512,49.571h-34.883V163.4h34.883V49.571L764.512,49.571z"/>
		</g>
		<g>
			<path class="st1" d="M837.542,48.939c26.603,0,44.025,13.716,46.822,36.759h-30.258c-1.452-8.068-7.96-12.852-17.584-12.852
				c-12.318,0-13.647,6.833-13.647,9.771c0,7.975,10.252,10.447,22.123,13.31c17.704,4.269,39.737,9.582,40.095,34.426
				c0,9.453-4.246,17.966-11.956,23.971c-8.155,6.351-19.616,9.708-33.146,9.708c-28.163,0-49.09-15.143-51.335-36.963h32.506
				c1.287,7.97,8.566,13.26,18.42,13.26c8.91,0,14.668-3.996,14.668-10.18c0-8.11-10.413-10.537-22.471-13.346
				c-17.618-4.105-39.544-9.213-39.544-33.573C792.236,66.161,806.245,48.939,837.542,48.939 M837.542,47.939
				c-29.783,0-46.307,15.911-46.307,35.291c0,41.819,62.015,28.56,62.015,46.919c0,5.1-4.692,9.18-13.668,9.18
				c-9.587,0-16.728-5.304-17.543-13.26h-34.475c1.632,22.031,22.031,38.963,52.427,38.963c28.559,0,46.103-14.892,46.103-34.679
				c-0.612-42.432-62.218-29.579-62.218-47.735c0-5.508,4.488-8.771,12.647-8.771c9.792,0,15.708,5.1,16.728,12.852h32.231
				C883.237,64.258,866.918,47.939,837.542,47.939L837.542,47.939z"/>
		</g>
		<g>
			<path class="st1" d="M950.783,22.828v26.743v1h1h21.848v26.968h-21.848h-1v1v45.694c0,7.421,3.471,10.588,11.608,10.588h11.443
				V162.4h-16.748c-26.368,0-39.187-12.618-39.187-38.575V78.539v-1h-1h-12.872V50.571h12.872h1v-1V22.828H950.783 M951.783,21.828
				H916.9v27.743h-13.872v28.968H916.9v45.286c0,29.579,16.523,39.575,40.187,39.575h17.748v-29.579h-12.443
				c-7.752,0-10.608-2.856-10.608-9.588V78.539h22.848V49.571h-22.848L951.783,21.828L951.783,21.828z"/>
		</g>
		<g>
			<path class="st1" d="M1048.681,48.939c16.216,0,30.09,5.209,40.124,15.064c10.197,10.015,15.587,24.071,15.587,40.647
				c0,2.997-0.17,6.087-0.505,9.199h-78.052h-1.086l0.089,1.082c1.17,14.242,9.626,22.745,22.62,22.745
				c10.876,0,16.202-5.857,18.783-11.016h35.205c-2.887,10.513-9.012,19.561-17.773,26.228c-9.579,7.29-21.679,11.143-34.992,11.143
				c-16.384,0-30.425-5.34-40.604-15.443c-10.416-10.338-15.922-24.897-15.922-42.103c0-17.254,5.453-31.814,15.771-42.106
				C1018.052,54.278,1032.145,48.939,1048.681,48.939 M1024.863,96.469h1.174h43.655h1v-1c0-12.119-9.219-20.583-22.419-20.583
				c-12.292,0-21.191,7.826-23.223,20.424L1024.863,96.469 M1048.681,47.939c-33.863,0-57.526,22.439-57.526,58.547
				c0,36.106,24.071,58.546,57.526,58.546c28.355,0,48.551-17.136,54.059-39.371h-37.127c-2.856,6.12-8.364,11.016-18.155,11.016
				c-11.22,0-20.4-6.936-21.624-21.827h78.946c0.408-3.468,0.612-6.936,0.612-10.199
				C1105.391,69.97,1081.932,47.939,1048.681,47.939L1048.681,47.939z M1026.038,95.469c2.04-12.647,10.812-19.583,22.236-19.583
				c11.627,0,21.419,7.14,21.419,19.583H1026.038L1026.038,95.469z"/>
		</g>
		<g>
			<path class="st1" d="M1196.987,49.347c26.437,0,42.859,18.22,42.859,47.551V162.4h-32.68v-60.811
				c0-15.699-8.534-25.071-22.827-25.071s-22.827,9.372-22.827,25.071V162.4h-32.883V50.571h32.884v14.095v3.089l1.81-2.503
				C1170.635,55.144,1182.905,49.347,1196.987,49.347 M1196.987,48.347c-15.3,0-27.539,6.731-34.475,16.319V49.571h-34.883V163.4
				h34.884v-61.811c0-15.504,8.567-24.071,21.827-24.071s21.827,8.567,21.827,24.071V163.4h34.68V96.898
				C1240.847,66.298,1223.303,48.347,1196.987,48.347L1196.987,48.347z"/>
		</g>
	</g>
	<g class="st0">
		<g>
			<path class="st1" d="M1368.602,22.828v26.743v1h1h21.848v26.968h-21.848h-1v1v45.694c0,7.421,3.471,10.588,11.607,10.588h11.443
				V162.4h-16.747c-26.369,0-39.187-12.618-39.187-38.575V78.539v-1h-1h-12.872V50.571h12.872h1v-1V22.828H1368.602
				 M1369.602,21.828h-34.883v27.743h-13.872v28.968h13.872v45.286c0,29.579,16.523,39.575,40.187,39.575h17.747v-29.579h-12.443
				c-7.752,0-10.607-2.856-10.607-9.588V78.539h22.848V49.571h-22.849L1369.602,21.828L1369.602,21.828z"/>
		</g>
		<g>
			<path class="st1" d="M1468.131,48.939c16.276,0,30.991,5.489,41.435,15.457c10.941,10.441,16.724,24.996,16.724,42.09
				c0,17.067-5.852,31.62-16.924,42.086c-10.547,9.969-25.336,15.46-41.642,15.46c-16.244,0-30.885-5.488-41.227-15.453
				c-10.81-10.416-16.524-24.972-16.524-42.093c0-17.072,5.809-31.626,16.799-42.089
				C1437.243,54.428,1451.931,48.939,1468.131,48.939 M1467.724,135.84c12.479,0,25.071-9.077,25.071-29.354
				c0-14.612-7.626-29.355-24.664-29.355c-6.83,0-12.976,2.568-17.307,7.23c-4.812,5.18-7.356,12.831-7.356,22.126
				c0,9.238,2.47,16.859,7.142,22.038C1454.867,133.242,1460.945,135.84,1467.724,135.84 M1468.131,47.939
				c-33.251,0-59.158,22.439-59.158,58.547c0,36.106,25.296,58.546,58.751,58.546s59.566-22.439,59.566-58.546
				C1527.29,70.378,1501.587,47.939,1468.131,47.939L1468.131,47.939z M1467.724,134.84c-12.648,0-23.256-9.18-23.256-28.354
				c0-19.38,11.016-28.355,23.663-28.355c12.24,0,23.664,8.976,23.664,28.355C1491.795,125.661,1480.167,134.84,1467.724,134.84
				L1467.724,134.84z"/>
		</g>
	</g>
	<g class="st0">
		<g>
			<path class="st1" d="M1734.906,50.571l-70.548,165.888h-35.326l25.475-56.524l0.179-0.397l-0.169-0.402l-45.723-108.565h36.76
				l26.074,70.541l0.942,2.548l0.935-2.55l25.871-70.539L1734.906,50.571 M1736.418,49.571h-37.739l-26.111,71.194l-26.315-71.194
				h-38.963l46.307,109.953l-26.111,57.935h37.535L1736.418,49.571L1736.418,49.571z"/>
		</g>
		<g>
			<path class="st1" d="M1805.165,48.939c16.276,0,30.991,5.489,41.435,15.457c10.941,10.441,16.724,24.996,16.724,42.09
				c0,17.067-5.852,31.62-16.924,42.086c-10.547,9.969-25.336,15.46-41.642,15.46c-16.244,0-30.885-5.488-41.227-15.453
				c-10.81-10.416-16.524-24.972-16.524-42.093c0-17.072,5.809-31.626,16.8-42.089C1774.276,54.428,1788.964,48.939,1805.165,48.939
				 M1804.757,135.84c12.479,0,25.071-9.077,25.071-29.354c0-14.612-7.626-29.355-24.664-29.355c-6.83,0-12.976,2.568-17.307,7.23
				c-4.812,5.18-7.356,12.831-7.356,22.126c0,9.238,2.47,16.859,7.142,22.038C1791.901,133.242,1797.978,135.84,1804.757,135.84
				 M1805.165,47.939c-33.251,0-59.158,22.439-59.158,58.547c0,36.106,25.296,58.546,58.751,58.546s59.566-22.439,59.566-58.546
				C1864.324,70.378,1838.621,47.939,1805.165,47.939L1805.165,47.939z M1804.757,134.84c-12.648,0-23.256-9.18-23.256-28.354
				c0-19.38,11.016-28.355,23.663-28.355c12.24,0,23.664,8.976,23.664,28.355C1828.829,125.661,1817.201,134.84,1804.757,134.84
				L1804.757,134.84z"/>
		</g>
		<g>
			<path class="st1" d="M1998.167,50.571V162.4h-32.884v-14.504v-3.142l-1.816,2.564c-7.34,10.362-19.608,16.306-33.659,16.306
				c-12.777,0-23.554-4.342-31.166-12.557c-7.783-8.399-11.896-20.5-11.896-34.994V50.571h32.679v60.811
				c0,15.465,8.747,25.071,22.827,25.071c14.421,0,23.031-9.372,23.031-25.071V50.571H1998.167 M1999.167,49.571h-34.884v61.811
				c0,15.504-8.567,24.071-22.031,24.071c-13.056,0-21.827-8.567-21.827-24.071V49.571h-34.679v66.502
				c0,30.396,17.747,48.551,44.062,48.551c15.3,0,27.539-6.936,34.475-16.728V163.4h34.884V49.571L1999.167,49.571z"/>
		</g>
		<g>
			<path class="st1" d="M2097.718,49.359V84.27h-8.588c-19.003,0-27.111,7.864-27.111,26.295V162.4h-32.883V50.571h32.883v17.972
				v3.326l1.834-2.775C2072.071,56.662,2084.066,49.683,2097.718,49.359 M2098.718,48.347c-15.3,0-27.743,8.159-35.699,20.195
				V49.571h-34.883V163.4h34.883v-52.835c0-19.583,9.588-25.295,26.111-25.295h9.588V48.347L2098.718,48.347z"/>
		</g>
	</g>
	<g class="st0">
		<g>
			<path class="st1" d="M2238.762,4.519c1.505,0,3.062,0.035,4.642,0.106v27.573c-0.735-0.031-1.442-0.047-2.112-0.047
				c-5.924,0-9.864,1.227-12.398,3.86c-2.487,2.583-3.645,6.568-3.645,12.54v1.02v1h1h17.768v26.968h-17.768h-1v1V162.4h-32.883
				V78.539v-1h-1h-11.648V50.571h11.648h1v-1v-3.264c0-13.686,3.948-24.183,11.734-31.197
				C2211.9,8.082,2223.563,4.519,2238.762,4.519 M2238.762,3.519c-31.023,0-47.396,14.664-47.396,42.788v3.264h-12.648v28.968
				h12.648V163.4h34.883V78.539h18.768V49.571h-18.768v-1.02c0-11.058,3.96-15.4,15.043-15.4c0.981,0,2.017,0.034,3.112,0.1V3.672
				C2242.471,3.57,2240.593,3.519,2238.762,3.519L2238.762,3.519z"/>
		</g>
		<g>
			<path class="st1" d="M2315.801,48.939c16.215,0,30.09,5.209,40.123,15.064c10.197,10.015,15.587,24.071,15.587,40.647
				c0,2.999-0.17,6.089-0.505,9.199h-78.053h-1.086l0.089,1.082c1.17,14.242,9.626,22.745,22.62,22.745
				c10.876,0,16.202-5.857,18.783-11.016h35.205c-2.887,10.513-9.012,19.561-17.772,26.228c-9.579,7.29-21.679,11.143-34.992,11.143
				c-16.385,0-30.425-5.34-40.604-15.443c-10.416-10.338-15.922-24.897-15.922-42.103c0-17.254,5.453-31.814,15.771-42.106
				C2285.172,54.278,2299.266,48.939,2315.801,48.939 M2291.983,96.469h1.174h43.655h1v-1c0-12.119-9.219-20.583-22.42-20.583
				c-12.292,0-21.191,7.826-23.223,20.424L2291.983,96.469 M2315.801,47.939c-33.863,0-57.526,22.439-57.526,58.547
				c0,36.106,24.071,58.546,57.526,58.546c28.355,0,48.551-17.136,54.059-39.371h-37.127c-2.856,6.12-8.364,11.016-18.156,11.016
				c-11.219,0-20.399-6.936-21.623-21.827h78.946c0.408-3.468,0.611-6.936,0.611-10.199
				C2372.511,69.97,2349.052,47.939,2315.801,47.939L2315.801,47.939z M2293.158,95.469c2.04-12.647,10.812-19.583,22.235-19.583
				c11.628,0,21.42,7.14,21.42,19.583H2293.158L2293.158,95.469z"/>
		</g>
		<g>
			<path class="st1" d="M2445.34,48.939c16.216,0,30.091,5.209,40.124,15.064c10.197,10.015,15.587,24.071,15.587,40.647
				c0,2.994-0.17,6.085-0.506,9.199h-78.051h-1.086l0.089,1.082c1.17,14.242,9.626,22.745,22.62,22.745
				c10.876,0,16.202-5.857,18.783-11.016h35.205c-2.887,10.513-9.012,19.561-17.772,26.228c-9.579,7.29-21.679,11.143-34.992,11.143
				c-16.385,0-30.425-5.34-40.604-15.443c-10.416-10.338-15.922-24.897-15.922-42.103c0-17.254,5.453-31.814,15.771-42.106
				C2414.712,54.278,2428.805,48.939,2445.34,48.939 M2421.523,96.469h1.174h43.655h1v-1c0-12.119-9.219-20.583-22.419-20.583
				c-12.293,0-21.192,7.826-23.224,20.424L2421.523,96.469 M2445.34,47.939c-33.863,0-57.526,22.439-57.526,58.547
				c0,36.106,24.071,58.546,57.526,58.546c28.355,0,48.551-17.136,54.058-39.371h-37.127c-2.855,6.12-8.363,11.016-18.155,11.016
				c-11.22,0-20.399-6.936-21.623-21.827h78.945c0.408-3.468,0.612-6.936,0.612-10.199
				C2502.051,69.97,2478.592,47.939,2445.34,47.939L2445.34,47.939z M2422.697,95.469c2.04-12.647,10.812-19.583,22.236-19.583
				c11.627,0,21.419,7.14,21.419,19.583H2422.697L2422.697,95.469z"/>
		</g>
		<g>
			<path class="st1" d="M2558.172,13.444V162.4h-32.883V13.444H2558.172 M2559.172,12.444h-34.883V163.4h34.883V12.444
				L2559.172,12.444z"/>
		</g>
		<g>
			<path class="st1" d="M2605.889,1c11.359,0,19.604,7.558,19.604,17.971c0,10.295-8.244,17.768-19.604,17.768
				c-11.477,0-19.808-7.472-19.808-17.768C2586.082,8.558,2594.413,1,2605.889,1 M2622.229,50.571V162.4h-32.883V50.571H2622.229
				 M2605.889,0c-12.444,0-20.808,8.363-20.808,18.971c0,10.404,8.363,18.768,20.808,18.768c12.239,0,20.604-8.363,20.604-18.768
				C2626.492,8.364,2618.128,0,2605.889,0L2605.889,0z M2623.229,49.571h-34.883V163.4h34.883V49.571L2623.229,49.571z"/>
		</g>
		<g>
			<path class="st1" d="M2721.758,49.347c26.437,0,42.859,18.22,42.859,47.551V162.4h-32.68v-60.811
				c0-15.699-8.533-25.071-22.827-25.071s-22.827,9.372-22.827,25.071V162.4h-32.884V50.571h32.884v14.095v3.089l1.81-2.503
				C2695.406,55.144,2707.676,49.347,2721.758,49.347 M2721.758,48.347c-15.3,0-27.539,6.731-34.475,16.319V49.571h-34.884V163.4
				h34.884v-61.811c0-15.504,8.567-24.071,21.827-24.071s21.827,8.567,21.827,24.071V163.4h34.68V96.898
				C2765.617,66.298,2748.073,48.347,2721.758,48.347L2721.758,48.347z"/>
		</g>
		<g>
			<path class="st1" d="M2837.019,48.939c15.172,0,27.648,6.292,34.229,17.262l1.857,3.096v-3.611V50.571h32.884v112.625
				c0,15.731-4.646,29.175-13.435,38.878c-9.732,10.745-24.421,16.424-42.48,16.424c-16.302,0-30.281-4.065-40.424-11.756
				c-9.71-7.362-15.71-17.893-17.399-30.511h32.589c2.687,8.704,11.646,14.075,23.602,14.075c15.904,0,24.663-9.628,24.663-27.111
				V147.08v-3.451l-1.845,2.917c-7.03,11.112-19.511,17.486-34.242,17.486c-13.542,0-25.91-5.531-34.824-15.575
				c-9.394-10.584-14.359-25.168-14.359-42.175c0-16.979,4.964-31.491,14.356-41.968
				C2811.08,54.399,2823.448,48.939,2837.019,48.939 M2847.218,135.636c15.242,0,25.887-11.987,25.887-29.15
				c0-17.164-10.645-29.151-25.887-29.151c-12.468,0-25.888,9.059-25.888,28.947c0,8.806,2.705,16.301,7.824,21.675
				C2833.872,132.909,2840.286,135.636,2847.218,135.636 M2837.019,47.939c-27.947,0-50.183,22.439-50.183,58.343
				c0,35.902,22.235,58.75,50.183,58.75c16.728,0,28.764-7.956,35.087-17.951v16.115c0,19.176-10.403,26.111-23.663,26.111
				c-12.036,0-20.604-5.508-22.848-14.075h-34.475c3.06,27.131,25.091,44.267,58.954,44.267c39.371,0,56.915-25.907,56.915-56.303
				V49.571h-34.884v16.115C2865.986,55.487,2853.745,47.939,2837.019,47.939L2837.019,47.939z M2847.218,134.636
				c-13.056,0-24.888-10.199-24.888-28.354c0-18.156,11.832-27.947,24.888-27.947c13.259,0,24.887,9.995,24.887,28.151
				C2872.106,124.641,2860.478,134.636,2847.218,134.636L2847.218,134.636z"/>
		</g>
		<g>
			<path class="st1" d="M2980.021,48.939c26.603,0,44.024,13.716,46.822,36.759h-30.259c-1.452-8.067-7.96-12.852-17.584-12.852
				c-12.318,0-13.647,6.833-13.647,9.771c0,7.975,10.252,10.447,22.124,13.31c17.704,4.269,39.737,9.582,40.095,34.426
				c0,9.453-4.246,17.966-11.956,23.971c-8.155,6.351-19.617,9.708-33.147,9.708c-28.162,0-49.089-15.143-51.334-36.963h32.507
				c1.287,7.97,8.566,13.26,18.42,13.26c8.91,0,14.667-3.996,14.667-10.18c0-8.11-10.413-10.537-22.47-13.346
				c-17.617-4.105-39.543-9.213-39.543-33.573C2934.713,66.161,2948.722,48.939,2980.021,48.939 M2980.021,47.939
				c-29.783,0-46.307,15.911-46.307,35.291c0,41.819,62.014,28.56,62.014,46.919c0,5.1-4.691,9.18-13.667,9.18
				c-9.588,0-16.728-5.304-17.544-13.26h-34.476c1.633,22.031,22.032,38.963,52.427,38.963c28.56,0,46.104-14.892,46.104-34.679
				c-0.612-42.432-62.219-29.579-62.219-47.735c0-5.508,4.488-8.771,12.647-8.771c9.792,0,15.708,5.1,16.728,12.852h32.231
				C3025.714,64.258,3009.396,47.939,2980.021,47.939L2980.021,47.939z"/>
		</g>
	</g>
</g>
<g>
	<g class="st0">
		<g>
			<path class="st1" d="M50.183,258.437c15.037,0,27.515,6.294,34.234,17.269l1.853,3.026v-3.548v-15.115h32.883v111.829H86.27
				v-15.115v-3.451l-1.845,2.916c-6.949,10.983-19.504,17.282-34.446,17.282c-13.452,0-25.756-5.531-34.644-15.574
				C5.957,347.36,1.001,332.776,1.001,315.78c0-16.979,4.964-31.491,14.356-41.968C24.245,263.897,36.613,258.437,50.183,258.437
				 M60.383,345.134c15.242,0,25.887-11.987,25.887-29.15c0-17.164-10.645-29.151-25.887-29.151
				c-12.468,0-25.887,9.059-25.887,28.947c0,8.806,2.705,16.301,7.824,21.675C47.036,342.407,53.451,345.134,60.383,345.134
				 M50.183,257.437C22.236,257.437,0,279.876,0,315.78c0,35.902,22.235,58.75,49.979,58.75c16.932,0,28.967-7.752,35.291-17.747
				v16.115h34.883V259.069H85.27v16.115C79.151,265.189,67.115,257.437,50.183,257.437L50.183,257.437z M60.383,344.134
				c-13.056,0-24.887-10.199-24.887-28.354c0-18.156,11.832-27.947,24.887-27.947c13.26,0,24.887,9.995,24.887,28.151
				C85.27,334.139,73.643,344.134,60.383,344.134L60.383,344.134z"/>
		</g>
		<g>
			<path class="st1" d="M218.684,258.845c26.436,0,42.859,18.22,42.859,47.551v65.502h-32.679v-60.811
				c0-15.699-8.534-25.071-22.827-25.071c-14.294,0-22.828,9.372-22.828,25.071v60.811h-32.883V260.069h32.883v14.096v3.088
				l1.81-2.502C192.331,264.642,204.602,258.845,218.684,258.845 M218.684,257.845c-15.3,0-27.539,6.731-34.475,16.319v-15.096
				h-34.883v113.829h34.883v-61.811c0-15.504,8.568-24.071,21.828-24.071c13.259,0,21.827,8.567,21.827,24.071v61.811h34.679
				v-66.502C262.543,275.796,244.999,257.845,218.684,257.845L218.684,257.845z"/>
		</g>
		<g>
			<path class="st1" d="M402.914,222.942v148.956h-32.883v-15.319v-3.57l-1.855,3.051c-6.749,11.103-19.226,17.471-34.232,17.471
				c-13.542,0-25.91-5.531-34.824-15.575c-9.394-10.585-14.359-25.168-14.359-42.175c0-16.979,4.964-31.491,14.356-41.968
				c8.888-9.915,21.257-15.375,34.827-15.375c14.183,0,27.308,6.474,34.255,16.895l1.832,2.748v-3.303v-51.834h32.883
				 M344.143,345.134c15.242,0,25.887-11.987,25.887-29.15c0-17.164-10.645-29.151-25.887-29.151
				c-12.468,0-25.887,9.059-25.887,28.947c0,8.806,2.705,16.301,7.824,21.675C330.796,342.407,337.211,345.134,344.143,345.134
				 M403.914,221.942h-34.883v52.834c-6.936-10.404-19.991-17.34-35.087-17.34c-27.947,0-50.183,22.439-50.183,58.343
				c0,35.902,22.235,58.75,50.183,58.75c16.728,0,28.763-7.548,35.087-17.951v16.319h34.883V221.942L403.914,221.942z
				 M344.143,344.134c-13.056,0-24.887-10.199-24.887-28.354c0-18.156,11.832-27.947,24.887-27.947
				c13.26,0,24.887,9.995,24.887,28.151C369.031,334.139,357.403,344.134,344.143,344.134L344.143,344.134z"/>
		</g>
	</g>
	<g class="st0">
		<g>
			<path class="st1" d="M531.669,232.326v26.743v1h1h21.848v26.968h-21.848h-1v1v45.694c0,7.421,3.471,10.588,11.608,10.588h11.443
				v27.579h-16.748c-26.368,0-39.187-12.618-39.187-38.575v-45.286v-1h-1h-12.872v-26.968h12.872h1v-1v-26.743L531.669,232.326
				 M532.669,231.326h-34.883v27.743h-13.872v28.968h13.872v45.286c0,29.579,16.523,39.575,40.187,39.575h17.748v-29.579h-12.443
				c-7.752,0-10.608-2.856-10.608-9.588v-45.694h22.848v-28.968h-22.849V231.326L532.669,231.326z"/>
		</g>
		<g>
			<path class="st1" d="M690.377,260.069v111.829h-32.883v-14.504v-3.142l-1.816,2.564c-7.34,10.362-19.608,16.306-33.659,16.306
				c-12.777,0-23.554-4.342-31.166-12.557c-7.783-8.399-11.896-20.5-11.896-34.994v-65.502h32.679v60.811
				c0,15.465,8.747,25.071,22.828,25.071c14.421,0,23.031-9.372,23.031-25.071v-60.811L690.377,260.069 M691.377,259.069h-34.883
				v61.811c0,15.504-8.568,24.071-22.031,24.071c-13.056,0-21.828-8.567-21.828-24.071v-61.811h-34.679v66.502
				c0,30.396,17.747,48.551,44.062,48.551c15.3,0,27.54-6.936,34.475-16.728v15.504h34.883L691.377,259.069L691.377,259.069z"/>
		</g>
		<g>
			<path class="st1" d="M789.705,258.845c26.436,0,42.859,18.22,42.859,47.551v65.502h-32.679v-60.811
				c0-15.699-8.534-25.071-22.827-25.071c-14.294,0-22.828,9.372-22.828,25.071v60.811h-32.883V260.069h32.883v14.096v3.088
				l1.81-2.502C763.353,264.642,775.623,258.845,789.705,258.845 M789.705,257.845c-15.3,0-27.539,6.731-34.475,16.319v-15.096
				h-34.883v113.829h34.883v-61.811c0-15.504,8.568-24.071,21.828-24.071c13.259,0,21.827,8.567,21.827,24.071v61.811h34.679
				v-66.502C833.564,275.796,816.021,257.845,789.705,257.845L789.705,257.845z"/>
		</g>
		<g>
			<path class="st1" d="M912.309,258.437c16.216,0,30.09,5.209,40.124,15.064c10.197,10.015,15.587,24.071,15.587,40.647
				c0,2.997-0.17,6.087-0.505,9.199h-78.052h-1.086l0.089,1.082c1.17,14.242,9.626,22.745,22.62,22.745
				c10.876,0,16.202-5.857,18.783-11.016h35.205c-2.887,10.513-9.012,19.561-17.772,26.228c-9.579,7.29-21.679,11.143-34.992,11.143
				c-16.384,0-30.425-5.34-40.604-15.443c-10.416-10.338-15.922-24.897-15.922-42.103c0-17.254,5.453-31.814,15.771-42.106
				C881.681,263.776,895.773,258.437,912.309,258.437 M888.491,305.967h1.174h43.655h1v-1c0-12.119-9.219-20.583-22.419-20.583
				c-12.292,0-21.191,7.826-23.223,20.424L888.491,305.967 M912.309,257.437c-33.863,0-57.526,22.439-57.526,58.547
				c0,36.106,24.071,58.546,57.526,58.546c28.355,0,48.551-17.136,54.059-39.371h-37.127c-2.856,6.12-8.364,11.016-18.155,11.016
				c-11.22,0-20.4-6.936-21.624-21.827h78.946c0.408-3.468,0.612-6.936,0.612-10.199
				C969.019,279.468,945.56,257.437,912.309,257.437L912.309,257.437z M889.665,304.967c2.04-12.647,10.812-19.583,22.236-19.583
				c11.627,0,21.419,7.14,21.419,19.583H889.665L889.665,304.967z"/>
		</g>
	</g>
	<g class="st0">
		<g>
			<path class="st1" d="M1096.775,232.326v26.743v1h1h21.848v26.968h-21.848h-1v1v45.694c0,7.421,3.472,10.588,11.608,10.588h11.443
				v27.579h-16.748c-26.369,0-39.187-12.618-39.187-38.575v-45.286v-1h-1h-12.872v-26.968h12.872h1v-1v-26.743L1096.775,232.326
				 M1097.775,231.326h-34.883v27.743h-13.872v28.968h13.872v45.286c0,29.579,16.523,39.575,40.187,39.575h17.748v-29.579h-12.443
				c-7.752,0-10.608-2.856-10.608-9.588v-45.694h22.848v-28.968h-22.848L1097.775,231.326L1097.775,231.326z"/>
		</g>
		<g>
			<path class="st1" d="M1196.305,258.437c16.275,0,30.99,5.489,41.435,15.457c10.941,10.441,16.724,24.996,16.724,42.09
				c0,17.067-5.852,31.62-16.924,42.086c-10.547,9.969-25.336,15.46-41.642,15.46c-16.244,0-30.885-5.488-41.227-15.453
				c-10.81-10.416-16.523-24.972-16.523-42.093c0-17.072,5.809-31.626,16.8-42.089
				C1165.416,263.926,1180.104,258.437,1196.305,258.437 M1195.897,345.338c12.479,0,25.071-9.077,25.071-29.354
				c0-14.612-7.626-29.355-24.664-29.355c-6.83,0-12.976,2.568-17.307,7.23c-4.812,5.18-7.356,12.831-7.356,22.126
				c0,9.238,2.47,16.859,7.142,22.038C1183.041,342.74,1189.118,345.338,1195.897,345.338 M1196.305,257.437
				c-33.251,0-59.158,22.439-59.158,58.547c0,36.106,25.295,58.546,58.75,58.546c33.455,0,59.566-22.439,59.566-58.546
				C1255.464,279.876,1229.76,257.437,1196.305,257.437L1196.305,257.437z M1195.897,344.338c-12.648,0-23.255-9.18-23.255-28.354
				c0-19.38,11.016-28.355,23.663-28.355c12.24,0,23.664,8.976,23.664,28.355C1219.968,335.159,1208.341,344.338,1195.897,344.338
				L1195.897,344.338z"/>
		</g>
	</g>
	<g class="st0">
		<g>
			<path class="st1" d="M1383.218,232.326v26.743v1h1h21.848v26.968h-21.848h-1v1v45.694c0,7.421,3.472,10.588,11.608,10.588h11.443
				v27.579h-16.748c-26.369,0-39.187-12.618-39.187-38.575v-45.286v-1h-1h-12.872v-26.968h12.872h1v-1v-26.743L1383.218,232.326
				 M1384.218,231.326h-34.883v27.743h-13.872v28.968h13.872v45.286c0,29.579,16.523,39.575,40.187,39.575h17.748v-29.579h-12.443
				c-7.752,0-10.608-2.856-10.608-9.588v-45.694h22.848v-28.968h-22.848L1384.218,231.326L1384.218,231.326z"/>
		</g>
		<g>
			<path class="st1" d="M1464.409,222.942v51.426v3.142l1.816-2.564c7.248-10.233,19.739-16.101,34.271-16.101
				c26.059,0,42.247,18.22,42.247,47.551v65.502h-32.68v-60.811c0-15.699-8.533-25.071-22.826-25.071
				c-14.294,0-22.828,9.372-22.828,25.071v60.811h-32.883V222.942H1464.409 M1465.409,221.942h-34.883v150.956h34.883v-61.811
				c0-15.504,8.568-24.071,21.828-24.071c13.259,0,21.826,8.567,21.826,24.071v61.811h34.68v-66.502
				c0-30.6-17.34-48.551-43.247-48.551c-15.708,0-28.151,6.731-35.087,16.523L1465.409,221.942L1465.409,221.942z"/>
		</g>
		<g>
			<path class="st1" d="M1589.44,210.499c11.359,0,19.604,7.558,19.604,17.971c0,10.295-8.245,17.767-19.604,17.767
				c-11.477,0-19.807-7.472-19.807-17.767C1569.633,218.057,1577.963,210.499,1589.44,210.499 M1605.78,260.069v111.829h-32.883
				V260.069H1605.78 M1589.44,209.499c-12.443,0-20.807,8.363-20.807,18.971c0,10.404,8.363,18.767,20.807,18.767
				c12.24,0,20.604-8.363,20.604-18.767C1610.044,217.862,1601.68,209.499,1589.44,209.499L1589.44,209.499z M1606.78,259.069
				h-34.883v113.829h34.883V259.069L1606.78,259.069z"/>
		</g>
		<g>
			<path class="st1" d="M1679.811,258.437c26.604,0,44.025,13.716,46.823,36.759h-30.259c-1.453-8.068-7.96-12.852-17.584-12.852
				c-12.318,0-13.648,6.833-13.648,9.771c0,7.975,10.252,10.447,22.124,13.31c17.704,4.269,39.737,9.582,40.095,34.426
				c0,9.453-4.246,17.966-11.956,23.971c-8.154,6.351-19.616,9.708-33.147,9.708c-28.163,0-49.09-15.143-51.334-36.963h32.506
				c1.287,7.97,8.566,13.26,18.42,13.26c8.91,0,14.668-3.996,14.668-10.18c0-8.11-10.413-10.537-22.471-13.346
				c-17.618-4.105-39.544-9.214-39.544-33.573C1634.505,275.659,1648.515,258.437,1679.811,258.437 M1679.811,257.437
				c-29.783,0-46.307,15.911-46.307,35.291c0,41.819,62.015,28.56,62.015,46.919c0,5.1-4.692,9.18-13.668,9.18
				c-9.587,0-16.728-5.304-17.544-13.26h-34.475c1.632,22.031,22.031,38.963,52.427,38.963c28.56,0,46.103-14.892,46.103-34.679
				c-0.611-42.432-62.219-29.579-62.219-47.735c0-5.508,4.488-8.771,12.648-8.771c9.791,0,15.707,5.1,16.728,12.852h32.231
				C1725.506,273.756,1709.186,257.437,1679.811,257.437L1679.811,257.437z"/>
		</g>
	</g>
	<g class="st0">
		<g>
			<path class="st1" d="M1927.516,222.942v148.956h-32.884v-15.319v-3.571l-1.854,3.051c-6.748,11.103-19.226,17.471-34.232,17.471
				c-13.542,0-25.91-5.531-34.824-15.575c-9.394-10.585-14.359-25.168-14.359-42.175c0-16.979,4.964-31.491,14.356-41.968
				c8.888-9.915,21.257-15.375,34.827-15.375c14.182,0,27.308,6.474,34.255,16.895l1.832,2.748v-3.303v-51.834L1927.516,222.942
				 M1868.746,345.134c15.242,0,25.887-11.987,25.887-29.15c0-17.164-10.645-29.151-25.887-29.151
				c-12.468,0-25.888,9.059-25.888,28.947c0,8.806,2.705,16.301,7.824,21.675C1855.398,342.407,1861.814,345.134,1868.746,345.134
				 M1928.516,221.942h-34.884v52.834c-6.936-10.404-19.991-17.34-35.087-17.34c-27.947,0-50.183,22.439-50.183,58.343
				c0,35.902,22.235,58.75,50.183,58.75c16.728,0,28.764-7.548,35.087-17.951v16.319h34.884L1928.516,221.942L1928.516,221.942z
				 M1868.746,344.134c-13.056,0-24.888-10.199-24.888-28.354c0-18.156,11.832-27.947,24.888-27.947
				c13.26,0,24.887,9.995,24.887,28.151C1893.633,334.139,1882.005,344.134,1868.746,344.134L1868.746,344.134z"/>
		</g>
		<g>
			<path class="st1" d="M2027.27,258.857v34.911h-8.588c-19.003,0-27.111,7.864-27.111,26.295v51.835h-32.883V260.069h32.883v17.972
				v3.326l1.834-2.775C2001.623,266.16,2013.617,259.181,2027.27,258.857 M2028.27,257.845c-15.3,0-27.743,8.159-35.699,20.195
				v-18.972h-34.883v113.829h34.883v-52.835c0-19.583,9.588-25.295,26.111-25.295h9.588V257.845L2028.27,257.845z"/>
		</g>
		<g>
			<path class="st1" d="M2092.122,258.437c15.036,0,27.514,6.294,34.234,17.269l1.853,3.026v-3.548v-15.115h32.883v111.829h-32.883
				v-15.115v-3.451l-1.845,2.916c-6.949,10.983-19.504,17.282-34.446,17.282c-13.452,0-25.756-5.531-34.644-15.574
				c-9.378-10.596-14.334-25.18-14.334-42.176c0-16.979,4.964-31.491,14.356-41.968
				C2066.183,263.897,2078.552,258.437,2092.122,258.437 M2102.322,345.134c15.242,0,25.888-11.987,25.888-29.15
				c0-17.164-10.646-29.151-25.888-29.151c-12.468,0-25.887,9.059-25.887,28.947c0,8.806,2.705,16.301,7.823,21.675
				C2088.974,342.407,2095.389,345.134,2102.322,345.134 M2092.122,257.437c-27.947,0-50.183,22.439-50.183,58.343
				c0,35.902,22.235,58.75,49.979,58.75c16.932,0,28.967-7.752,35.291-17.747v16.115h34.883V259.069h-34.883v16.115
				C2121.089,265.189,2109.053,257.437,2092.122,257.437L2092.122,257.437z M2102.322,344.134
				c-13.056,0-24.887-10.199-24.887-28.354c0-18.156,11.831-27.947,24.887-27.947c13.26,0,24.888,9.995,24.888,28.151
				C2127.208,334.139,2115.581,344.134,2102.322,344.134L2102.322,344.134z"/>
		</g>
		<g>
			<path class="st1" d="M2336.508,258.845c13.659,0,25.068,4.321,32.992,12.497c8.057,8.311,12.315,20.433,12.315,35.054v65.502
				h-32.68v-60.811c0-15.06-8.533-24.051-22.827-24.051s-22.827,8.991-22.827,24.051v60.811h-32.68v-60.811
				c0-15.06-8.533-24.051-22.827-24.051s-22.827,8.991-22.827,24.051v60.811h-32.884V260.069h32.884v13.279v3.055l1.806-2.463
				c7.034-9.593,18.86-15.094,32.445-15.094c16.859,0,30.315,7.354,37.889,20.708l0.827,1.458l0.89-1.42
				C2307.03,266.795,2321.401,258.845,2336.508,258.845 M2336.508,257.845c-16.523,0-30.803,9.18-38.351,21.215
				c-7.752-13.667-21.623-21.215-38.759-21.215c-14.892,0-26.52,6.323-33.251,15.503v-14.279h-34.884v113.829h34.884v-61.811
				c0-14.892,8.567-23.051,21.827-23.051s21.827,8.159,21.827,23.051v61.811h34.68v-61.811c0-14.892,8.567-23.051,21.827-23.051
				s21.827,8.159,21.827,23.051v61.811h34.68v-66.502C2382.815,275.796,2364.659,257.845,2336.508,257.845L2336.508,257.845z"/>
		</g>
		<g>
			<path class="st1" d="M2454.421,258.437c15.036,0,27.514,6.294,34.234,17.269l1.853,3.026v-3.548v-15.115h32.884v111.829h-32.884
				v-15.115v-3.451l-1.845,2.917c-6.948,10.983-19.503,17.282-34.446,17.282c-13.452,0-25.756-5.531-34.644-15.574
				c-9.378-10.596-14.334-25.18-14.334-42.176c0-16.979,4.964-31.491,14.356-41.968
				C2428.482,263.897,2440.85,258.437,2454.421,258.437 M2464.621,345.134c15.242,0,25.887-11.987,25.887-29.15
				c0-17.164-10.645-29.151-25.887-29.151c-12.468,0-25.888,9.059-25.888,28.947c0,8.806,2.705,16.301,7.824,21.675
				C2451.273,342.407,2457.688,345.134,2464.621,345.134 M2454.421,257.437c-27.947,0-50.183,22.439-50.183,58.343
				c0,35.902,22.235,58.75,49.979,58.75c16.932,0,28.968-7.752,35.291-17.747v16.115h34.884V259.069h-34.884v16.115
				C2483.387,265.189,2471.352,257.437,2454.421,257.437L2454.421,257.437z M2464.621,344.134
				c-13.056,0-24.888-10.199-24.888-28.354c0-18.156,11.832-27.947,24.888-27.947c13.259,0,24.887,9.995,24.887,28.151
				C2489.508,334.139,2477.88,344.134,2464.621,344.134L2464.621,344.134z"/>
		</g>
	</g>
</g>
</svg>
