<?xml version="1.0" encoding="utf-8"?>
<!-- Generator: Adobe Illustrator 24.3.0, SVG Export Plug-In . SVG Version: 6.00 Build 0)  -->
<svg version="1.1" id="레이어_1" xmlns="http://www.w3.org/2000/svg" xmlns:xlink="http://www.w3.org/1999/xlink" x="0px"
	 y="0px" viewBox="0 0 3302.5 436.9" style="enable-background:new 0 0 3302.5 436.9;" xml:space="preserve">
<style type="text/css">
	.st0{enable-background:new    ;}
	.st1{fill:#6DD2FF;}
</style>
<g>
	<g>
		<g class="st0">
			<g>
				<path class="st1" d="M792.328,21.195l-50.085,141.204h-42.242L649.916,21.195h34.987l35.269,107.429l0.947,2.886l0.952-2.884
					l35.473-107.431L792.328,21.195 M793.744,20.195h-36.923l-35.699,108.117L685.627,20.195H648.5l50.795,143.204h43.655
					L793.744,20.195L793.744,20.195z"/>
			</g>
			<g>
				<path class="st1" d="M829.65,1c11.359,0,19.604,7.558,19.604,17.971c0,10.295-8.244,17.768-19.604,17.768
					c-11.477,0-19.808-7.472-19.808-17.768C809.843,8.558,818.173,1,829.65,1 M845.99,50.57v111.829h-32.884V50.57H845.99 M829.65,0
					c-12.444,0-20.808,8.363-20.808,18.971c0,10.404,8.364,18.768,20.808,18.768c12.239,0,20.604-8.363,20.604-18.768
					C850.254,8.363,841.889,0,829.65,0L829.65,0z M846.99,49.57h-34.884v113.829h34.883L846.99,49.57L846.99,49.57z"/>
			</g>
			<g>
				<path class="st1" d="M920.021,48.938c26.603,0,44.025,13.716,46.822,36.759h-30.258c-1.452-8.068-7.96-12.852-17.584-12.852
					c-12.318,0-13.647,6.833-13.647,9.771c0,7.975,10.252,10.447,22.123,13.31c17.704,4.269,39.737,9.582,40.095,34.426
					c0,9.453-4.246,17.966-11.956,23.971c-8.155,6.351-19.616,9.708-33.146,9.708c-28.163,0-49.09-15.143-51.335-36.963h32.506
					c1.287,7.97,8.566,13.26,18.42,13.26c8.91,0,14.668-3.996,14.668-10.18c0-8.11-10.413-10.537-22.471-13.346
					c-17.618-4.105-39.544-9.214-39.544-33.573C874.714,66.161,888.723,48.938,920.021,48.938 M920.021,47.938
					c-29.783,0-46.307,15.911-46.307,35.291c0,41.819,62.015,28.56,62.015,46.919c0,5.1-4.692,9.18-13.668,9.18
					c-9.587,0-16.728-5.304-17.543-13.26h-34.475c1.632,22.031,22.031,38.963,52.427,38.963c28.559,0,46.103-14.892,46.103-34.679
					c-0.612-42.432-62.218-29.579-62.218-47.735c0-5.508,4.488-8.771,12.647-8.771c9.792,0,15.708,5.1,16.728,12.852h32.231
					C965.716,64.258,949.396,47.938,920.021,47.938L920.021,47.938z"/>
			</g>
			<g>
				<path class="st1" d="M1011.414,1c11.359,0,19.604,7.558,19.604,17.971c0,10.295-8.244,17.768-19.604,17.768
					c-11.477,0-19.808-7.472-19.808-17.768C991.606,8.558,999.937,1,1011.414,1 M1027.753,50.57v111.829H994.87V50.57H1027.753
					 M1011.414,0c-12.444,0-20.808,8.363-20.808,18.971c0,10.404,8.364,18.768,20.808,18.768c12.239,0,20.604-8.363,20.604-18.768
					C1032.017,8.363,1023.653,0,1011.414,0L1011.414,0z M1028.753,49.57H993.87v113.829h34.883V49.57L1028.753,49.57z"/>
			</g>
			<g>
				<path class="st1" d="M1097.317,22.827V49.57v1h1h21.848v26.968h-21.848h-1v1v45.694c0,7.421,3.472,10.588,11.608,10.588h11.443
					v27.579h-16.748c-26.368,0-39.187-12.618-39.187-38.575V78.538v-1h-1h-12.872V50.57h12.872h1v-1V22.827H1097.317
					 M1098.317,21.827h-34.883V49.57h-13.872v28.968h13.872v45.286c0,29.579,16.523,39.575,40.187,39.575h17.748V133.82h-12.443
					c-7.752,0-10.608-2.856-10.608-9.588V78.538h22.848V49.57h-22.848L1098.317,21.827L1098.317,21.827z"/>
			</g>
		</g>
		<g class="st0">
			<g>
				<path class="st1" d="M1249.124,22.827V49.57v1h1h21.848v26.968h-21.848h-1v1v45.694c0,7.421,3.471,10.588,11.608,10.588h11.443
					v27.579h-16.748c-26.368,0-39.187-12.618-39.187-38.575V78.538v-1h-1h-12.872V50.57h12.872h1v-1V22.827H1249.124
					 M1250.124,21.827h-34.883V49.57h-13.872v28.968h13.872v45.286c0,29.579,16.523,39.575,40.187,39.575h17.747V133.82h-12.443
					c-7.752,0-10.608-2.856-10.608-9.588V78.538h22.848V49.57h-22.848V21.827L1250.124,21.827z"/>
			</g>
			<g>
				<path class="st1" d="M1330.314,13.443V64.87v3.142l1.816-2.564c7.248-10.233,19.739-16.101,34.271-16.101
					c26.059,0,42.247,18.22,42.247,47.551V162.4h-32.679v-60.811c0-15.699-8.534-25.071-22.827-25.071
					c-14.294,0-22.828,9.372-22.828,25.071V162.4h-32.883V13.443H1330.314 M1331.314,12.443h-34.883v150.956h34.883v-61.81
					c0-15.504,8.568-24.071,21.828-24.071c13.259,0,21.827,8.567,21.827,24.071V163.4h34.679V96.897
					c0-30.6-17.339-48.551-43.247-48.551c-15.708,0-28.151,6.731-35.087,16.523L1331.314,12.443L1331.314,12.443z"/>
			</g>
			<g>
				<path class="st1" d="M1488.393,48.938c16.216,0,30.09,5.209,40.124,15.064c10.197,10.015,15.587,24.071,15.587,40.647
					c0,2.997-0.17,6.087-0.505,9.199h-78.054h-1.086l0.089,1.082c1.17,14.242,9.626,22.745,22.62,22.745
					c10.876,0,16.202-5.857,18.783-11.016h35.205c-2.887,10.513-9.012,19.561-17.773,26.228
					c-9.579,7.29-21.679,11.143-34.992,11.143c-16.384,0-30.425-5.34-40.604-15.443c-10.416-10.338-15.922-24.897-15.922-42.103
					c0-17.254,5.453-31.814,15.771-42.106C1457.764,54.278,1471.857,48.938,1488.393,48.938 M1464.575,96.469h1.174h43.655h1v-1
					c0-12.119-9.219-20.583-22.419-20.583c-12.292,0-21.191,7.826-23.223,20.424L1464.575,96.469 M1488.393,47.938
					c-33.863,0-57.526,22.439-57.526,58.547c0,36.106,24.071,58.546,57.526,58.546c28.355,0,48.551-17.136,54.059-39.371h-37.127
					c-2.856,6.12-8.364,11.016-18.155,11.016c-11.22,0-20.4-6.936-21.624-21.827h78.946c0.408-3.468,0.612-6.936,0.612-10.199
					C1545.103,69.97,1521.644,47.938,1488.393,47.938L1488.393,47.938z M1465.749,95.469c2.04-12.647,10.812-19.583,22.236-19.583
					c11.627,0,21.419,7.14,21.419,19.583H1465.749L1465.749,95.469z"/>
			</g>
		</g>
		<g class="st0">
			<g>
				<path class="st1" d="M1744.257,13.443v148.956h-32.883V147.08v-3.57l-1.854,3.051c-6.749,11.103-19.226,17.471-34.232,17.471
					c-13.542,0-25.91-5.531-34.824-15.575c-9.394-10.585-14.359-25.168-14.359-42.175c0-16.979,4.964-31.491,14.356-41.968
					c8.888-9.915,21.257-15.375,34.827-15.375c14.182,0,27.308,6.474,34.255,16.895l1.832,2.748v-3.303V13.443H1744.257
					 M1685.487,135.636c15.242,0,25.887-11.987,25.887-29.15c0-17.164-10.645-29.151-25.887-29.151
					c-12.468,0-25.887,9.059-25.887,28.947c0,8.806,2.705,16.301,7.824,21.675C1672.14,132.909,1678.555,135.636,1685.487,135.636
					 M1745.257,12.443h-34.883v52.835c-6.936-10.404-19.991-17.34-35.087-17.34c-27.947,0-50.183,22.439-50.183,58.343
					c0,35.902,22.235,58.75,50.183,58.75c16.728,0,28.763-7.548,35.087-17.951v16.319h34.883V12.443L1745.257,12.443z
					 M1685.487,134.636c-13.056,0-24.887-10.199-24.887-28.354c0-18.156,11.832-27.947,24.887-27.947
					c13.26,0,24.887,9.995,24.887,28.151C1710.374,124.641,1698.747,134.636,1685.487,134.636L1685.487,134.636z"/>
			</g>
			<g>
				<path class="st1" d="M1889.195,50.57l-70.548,165.888h-35.326l25.475-56.524l0.179-0.397l-0.169-0.402L1763.083,50.57h36.76
					l26.074,70.541l0.942,2.548l0.935-2.55l25.871-70.539L1889.195,50.57 M1890.707,49.57h-37.739l-26.111,71.194l-26.315-71.194
					h-38.963l46.307,109.953l-26.111,57.935h37.535L1890.707,49.57L1890.707,49.57z"/>
			</g>
			<g>
				<path class="st1" d="M1976.59,49.347c26.436,0,42.859,18.22,42.859,47.551V162.4h-32.679v-60.811
					c0-15.699-8.534-25.071-22.827-25.071c-14.294,0-22.828,9.372-22.828,25.071V162.4h-32.883V50.57h32.883v14.096v3.088
					l1.81-2.502C1950.237,55.144,1962.507,49.347,1976.59,49.347 M1976.59,48.347c-15.3,0-27.539,6.731-34.475,16.319V49.57h-34.883
					v113.829h34.883v-61.81c0-15.504,8.568-24.071,21.828-24.071c13.259,0,21.827,8.567,21.827,24.071V163.4h34.679V96.897
					C2020.448,66.298,2002.905,48.347,1976.59,48.347L1976.59,48.347z"/>
			</g>
			<g>
				<path class="st1" d="M2091.849,48.938c15.037,0,27.515,6.294,34.234,17.269l1.853,3.026v-3.548V50.57h32.883v111.829h-32.883
					v-15.115v-3.451l-1.845,2.916c-6.949,10.983-19.504,17.282-34.446,17.282c-13.452,0-25.756-5.531-34.644-15.574
					c-9.378-10.596-14.334-25.18-14.334-42.176c0-16.979,4.964-31.491,14.356-41.968
					C2065.911,54.399,2078.279,48.938,2091.849,48.938 M2102.049,135.636c15.242,0,25.887-11.987,25.887-29.15
					c0-17.164-10.645-29.151-25.887-29.151c-12.468,0-25.887,9.059-25.887,28.947c0,8.806,2.705,16.301,7.824,21.675
					C2088.702,132.909,2095.117,135.636,2102.049,135.636 M2091.849,47.938c-27.947,0-50.183,22.439-50.183,58.343
					c0,35.902,22.235,58.75,49.979,58.75c16.932,0,28.967-7.752,35.291-17.747v16.115h34.883V49.57h-34.883v16.115
					C2120.817,55.69,2108.781,47.938,2091.849,47.938L2091.849,47.938z M2102.049,134.636c-13.056,0-24.887-10.199-24.887-28.354
					c0-18.156,11.832-27.947,24.887-27.947c13.26,0,24.887,9.995,24.887,28.151C2126.936,124.641,2115.309,134.636,2102.049,134.636
					L2102.049,134.636z"/>
			</g>
			<g>
				<path class="st1" d="M2336.236,49.347c13.659,0,25.068,4.321,32.993,12.497c8.057,8.311,12.315,20.433,12.315,35.054V162.4
					h-32.68v-60.811c0-15.06-8.534-24.051-22.827-24.051s-22.827,8.991-22.827,24.051V162.4h-32.68v-60.811
					c0-15.06-8.534-24.051-22.827-24.051s-22.827,8.991-22.827,24.051V162.4h-32.884V50.57h32.884v13.279v3.055l1.806-2.463
					c7.034-9.593,18.86-15.094,32.445-15.094c16.859,0,30.315,7.354,37.889,20.708l0.827,1.458l0.89-1.42
					C2306.758,57.296,2321.128,49.347,2336.236,49.347 M2336.236,48.347c-16.523,0-30.803,9.18-38.351,21.215
					c-7.752-13.667-21.623-21.215-38.759-21.215c-14.892,0-26.52,6.323-33.251,15.503V49.57h-34.884v113.829h34.884v-61.81
					c0-14.892,8.567-23.051,21.827-23.051s21.827,8.159,21.827,23.051V163.4h34.68v-61.811c0-14.892,8.567-23.051,21.827-23.051
					s21.827,8.159,21.827,23.051V163.4h34.68V96.897C2382.543,66.298,2364.387,48.347,2336.236,48.347L2336.236,48.347z"/>
			</g>
			<g>
				<path class="st1" d="M2428.445,1c11.359,0,19.604,7.558,19.604,17.971c0,10.295-8.245,17.768-19.604,17.768
					c-11.477,0-19.808-7.472-19.808-17.768C2408.638,8.558,2416.968,1,2428.445,1 M2444.785,50.57v111.829h-32.884V50.57H2444.785
					 M2428.445,0c-12.444,0-20.808,8.363-20.808,18.971c0,10.404,8.363,18.768,20.808,18.768c12.239,0,20.604-8.363,20.604-18.768
					C2449.049,8.363,2440.685,0,2428.445,0L2428.445,0z M2445.785,49.57h-34.884v113.829h34.884V49.57L2445.785,49.57z"/>
			</g>
			<g>
				<path class="st1" d="M2525.14,48.938c13.805,0,25.981,3.815,35.211,11.033c8.955,7.003,15.234,17.29,18.207,29.806h-35.179
					c-3.306-8.545-9.809-13.056-18.85-13.056c-13.783,0-22.012,11.127-22.012,29.764c0,18.636,8.229,29.763,22.012,29.763
					c9.246,0,15.418-4.272,18.846-13.056h35.174c-6.259,25.602-26.137,40.839-53.409,40.839c-16.353,0-30.322-5.339-40.397-15.439
					c-10.285-10.311-15.721-24.871-15.721-42.107c0-17.16,5.437-31.694,15.722-42.032
					C2494.843,54.303,2508.811,48.938,2525.14,48.938 M2525.14,47.938c-33.455,0-57.118,22.644-57.118,58.547
					c0,36.106,23.663,58.546,57.118,58.546c28.56,0,48.755-16.523,54.671-42.839h-37.127c-3.06,8.364-8.568,13.056-18.155,13.056
					c-12.444,0-21.012-9.792-21.012-28.763c0-18.972,8.567-28.764,21.012-28.764c9.587,0,15.299,5.1,18.155,13.056h37.127
					C2573.895,63.646,2553.699,47.938,2525.14,47.938L2525.14,47.938z"/>
			</g>
		</g>
		<g class="st0">
			<g>
				<path class="st1" d="M2729.782,48.938c13.57,0,25.939,5.46,34.827,15.375c9.392,10.476,14.356,24.988,14.356,41.968
					c0,17.006-4.965,31.59-14.359,42.175c-8.914,10.044-21.281,15.575-34.824,15.575c-14.603,0-27.087-6.23-34.252-17.094
					l-1.835-2.782v3.332v69.174h-32.884V50.57h32.884v15.115v3.451l1.845-2.917C2702.488,55.237,2714.969,48.938,2729.782,48.938
					 M2719.378,135.636c7.021,0,13.498-2.727,18.24-7.677c5.136-5.363,7.851-12.859,7.851-21.677
					c0-19.889-13.525-28.947-26.091-28.947c-6.945,0-13.359,2.69-18.06,7.574c-5.121,5.32-7.828,12.781-7.828,21.578
					c0,8.796,2.707,16.257,7.828,21.577C2706.019,132.946,2712.433,135.636,2719.378,135.636 M2729.782,47.938
					c-16.728,0-28.764,7.752-35.087,17.747V49.57h-34.884v168.092h34.884v-70.174c6.323,9.587,18.359,17.543,35.087,17.543
					c27.947,0,50.183-22.848,50.183-58.75C2779.964,70.378,2757.729,47.938,2729.782,47.938L2729.782,47.938z M2719.378,134.636
					c-13.056,0-24.888-9.995-24.888-28.15c0-18.156,11.832-28.151,24.888-28.151c13.259,0,25.091,9.791,25.091,27.947
					C2744.469,124.437,2732.637,134.636,2719.378,134.636L2719.378,134.636z"/>
			</g>
			<g>
				<path class="st1" d="M2836.083,13.443v148.956H2803.2V13.443H2836.083 M2837.083,12.443H2802.2v150.956h34.883V12.443
					L2837.083,12.443z"/>
			</g>
			<g>
				<path class="st1" d="M2909.503,48.938c15.036,0,27.514,6.294,34.234,17.269l1.853,3.026v-3.548V50.57h32.883v111.829h-32.883
					v-15.115v-3.451l-1.845,2.916c-6.949,10.983-19.504,17.282-34.446,17.282c-13.452,0-25.756-5.531-34.644-15.574
					c-9.378-10.596-14.334-25.18-14.334-42.176c0-16.979,4.964-31.491,14.356-41.968
					C2883.565,54.399,2895.933,48.938,2909.503,48.938 M2919.703,135.636c15.242,0,25.888-11.987,25.888-29.15
					c0-17.164-10.646-29.151-25.888-29.151c-12.468,0-25.887,9.059-25.887,28.947c0,8.806,2.705,16.301,7.823,21.675
					C2906.355,132.909,2912.77,135.636,2919.703,135.636 M2909.503,47.938c-27.947,0-50.183,22.439-50.183,58.343
					c0,35.902,22.235,58.75,49.979,58.75c16.932,0,28.967-7.752,35.291-17.747v16.115h34.883V49.57h-34.883v16.115
					C2938.47,55.69,2926.435,47.938,2909.503,47.938L2909.503,47.938z M2919.703,134.636c-13.056,0-24.887-10.199-24.887-28.354
					c0-18.156,11.831-27.947,24.887-27.947c13.26,0,24.888,9.995,24.888,28.151C2944.59,124.641,2932.962,134.636,2919.703,134.636
					L2919.703,134.636z"/>
			</g>
			<g>
				<path class="st1" d="M3123.41,50.57l-70.548,165.888h-35.325l25.475-56.524l0.179-0.397l-0.169-0.402L2997.299,50.57h36.76
					l26.074,70.541l0.942,2.548l0.935-2.55l25.871-70.539L3123.41,50.57 M3124.922,49.57h-37.739l-26.111,71.194l-26.315-71.194
					h-38.963l46.308,109.953l-26.111,57.935h37.534L3124.922,49.57L3124.922,49.57z"/>
			</g>
			<g>
				<path class="st1" d="M3184.694,48.938c15.171,0,27.647,6.292,34.229,17.262l1.857,3.095v-3.61V50.57h32.883v112.625
					c0,15.731-4.646,29.174-13.434,38.878c-9.732,10.745-24.421,16.424-42.48,16.424c-16.302,0-30.281-4.065-40.424-11.756
					c-9.71-7.362-15.71-17.893-17.4-30.511h32.59c2.686,8.704,11.645,14.075,23.601,14.075c15.905,0,24.664-9.628,24.664-27.111
					v-16.115v-3.45l-1.845,2.916c-7.031,11.113-19.512,17.486-34.242,17.486c-13.542,0-25.91-5.531-34.824-15.575
					c-9.394-10.584-14.359-25.168-14.359-42.175c0-16.979,4.964-31.491,14.356-41.968
					C3158.755,54.399,3171.123,48.938,3184.694,48.938 M3194.893,135.636c15.242,0,25.888-11.987,25.888-29.15
					c0-17.164-10.646-29.151-25.888-29.151c-12.468,0-25.888,9.059-25.888,28.947c0,8.806,2.705,16.301,7.824,21.675
					C3181.546,132.909,3187.961,135.636,3194.893,135.636 M3184.694,47.938c-27.947,0-50.183,22.439-50.183,58.343
					c0,35.902,22.235,58.75,50.183,58.75c16.728,0,28.763-7.956,35.087-17.951v16.115c0,19.176-10.404,26.111-23.664,26.111
					c-12.035,0-20.604-5.508-22.847-14.075h-34.476c3.061,27.131,25.092,44.267,58.955,44.267c39.37,0,56.914-25.907,56.914-56.303
					V49.57h-34.883v16.115C3213.661,55.486,3201.421,47.938,3184.694,47.938L3184.694,47.938z M3194.893,134.636
					c-13.056,0-24.888-10.199-24.888-28.354c0-18.156,11.832-27.947,24.888-27.947c13.26,0,24.888,9.995,24.888,28.151
					C3219.781,124.641,3208.153,134.636,3194.893,134.636L3194.893,134.636z"/>
			</g>
			<g>
				<path class="st1" d="M3353.417,49.359V84.27h-8.587c-19.003,0-27.111,7.864-27.111,26.295V162.4h-32.884V50.57h32.884v17.972
					v3.327l1.834-2.775C3327.77,56.662,3339.765,49.683,3353.417,49.359 M3354.417,48.347c-15.299,0-27.743,8.159-35.698,20.195
					V49.57h-34.884v113.829h34.884v-52.835c0-19.583,9.587-25.295,26.111-25.295h9.587V48.347L3354.417,48.347z"/>
			</g>
			<g>
				<path class="st1" d="M3427.245,48.938c16.275,0,30.99,5.489,41.435,15.457c10.941,10.441,16.724,24.996,16.724,42.09
					c0,17.067-5.853,31.62-16.925,42.086c-10.547,9.969-25.336,15.46-41.643,15.46c-16.244,0-30.885-5.488-41.227-15.453
					c-10.81-10.416-16.523-24.971-16.523-42.093c0-17.072,5.809-31.626,16.8-42.089
					C3396.356,54.428,3411.044,48.938,3427.245,48.938 M3426.836,135.84c12.48,0,25.072-9.077,25.072-29.354
					c0-14.612-7.626-29.355-24.664-29.355c-6.83,0-12.976,2.568-17.307,7.23c-4.812,5.18-7.356,12.831-7.356,22.126
					c0,9.238,2.47,16.859,7.142,22.038C3413.98,133.241,3420.058,135.84,3426.836,135.84 M3427.245,47.938
					c-33.251,0-59.158,22.439-59.158,58.547c0,36.106,25.295,58.546,58.75,58.546c33.456,0,59.567-22.439,59.567-58.546
					S3460.7,47.938,3427.245,47.938L3427.245,47.938z M3426.836,134.84c-12.647,0-23.255-9.18-23.255-28.354
					c0-19.38,11.016-28.355,23.663-28.355c12.24,0,23.664,8.976,23.664,28.355C3450.909,125.66,3439.281,134.84,3426.836,134.84
					L3426.836,134.84z"/>
			</g>
			<g>
				<path class="st1" d="M3620.246,50.57v111.829h-32.883v-14.504v-3.142l-1.816,2.564c-7.341,10.362-19.609,16.306-33.66,16.306
					c-12.777,0-23.554-4.342-31.166-12.557c-7.783-8.399-11.896-20.5-11.896-34.994V50.57h32.679v60.811
					c0,15.465,8.747,25.071,22.827,25.071c14.422,0,23.032-9.372,23.032-25.071V50.57H3620.246 M3621.246,49.57h-34.883v61.811
					c0,15.504-8.568,24.071-22.032,24.071c-13.056,0-21.827-8.567-21.827-24.071V49.57h-34.679v66.502
					c0,30.396,17.747,48.551,44.062,48.551c15.3,0,27.539-6.936,34.476-16.728v15.504h34.883L3621.246,49.57L3621.246,49.57z"/>
			</g>
			<g>
				<path class="st1" d="M3719.575,49.347c26.437,0,42.859,18.22,42.859,47.551V162.4h-32.68v-60.811
					c0-15.699-8.533-25.071-22.827-25.071s-22.827,9.372-22.827,25.071V162.4h-32.884V50.57h32.884v14.096v3.089l1.81-2.503
					C3693.222,55.144,3705.492,49.347,3719.575,49.347 M3719.575,48.347c-15.3,0-27.539,6.731-34.475,16.319V49.57h-34.884v113.829
					h34.884v-61.81c0-15.504,8.567-24.071,21.827-24.071s21.827,8.567,21.827,24.071V163.4h34.68V96.897
					C3763.434,66.298,3745.89,48.347,3719.575,48.347L3719.575,48.347z"/>
			</g>
			<g>
				<path class="st1" d="M3903.805,13.443v148.956h-32.884V147.08v-3.571l-1.854,3.051c-6.749,11.103-19.226,17.471-34.232,17.471
					c-13.542,0-25.91-5.531-34.823-15.575c-9.394-10.585-14.359-25.168-14.359-42.175c0-16.979,4.964-31.491,14.356-41.968
					c8.888-9.915,21.257-15.375,34.827-15.375c14.183,0,27.308,6.474,34.255,16.895l1.832,2.748v-3.303V13.443H3903.805
					 M3845.035,135.636c15.242,0,25.887-11.987,25.887-29.15c0-17.164-10.645-29.151-25.887-29.151
					c-12.468,0-25.888,9.059-25.888,28.947c0,8.806,2.705,16.301,7.824,21.675C3831.687,132.909,3838.102,135.636,3845.035,135.636
					 M3904.805,12.443h-34.884v52.835c-6.936-10.404-19.991-17.34-35.087-17.34c-27.947,0-50.183,22.439-50.183,58.343
					c0,35.902,22.235,58.75,50.183,58.75c16.728,0,28.764-7.548,35.087-17.951v16.319h34.884V12.443L3904.805,12.443z
					 M3845.035,134.636c-13.056,0-24.888-10.199-24.888-28.354c0-18.156,11.832-27.947,24.888-27.947
					c13.259,0,24.887,9.995,24.887,28.151C3869.921,124.641,3858.293,134.636,3845.035,134.636L3845.035,134.636z"/>
			</g>
		</g>
	</g>
	<g>
		<g class="st0">
			<g>
				<path class="st1" d="M59.158,268.436c16.275,0,30.99,5.489,41.435,15.457c10.941,10.441,16.724,24.996,16.724,42.09
					c0,17.067-5.852,31.62-16.924,42.086c-10.547,9.969-25.336,15.46-41.642,15.46c-16.244,0-30.885-5.488-41.227-15.453
					C6.714,357.66,1.001,343.104,1.001,325.983c0-17.072,5.809-31.626,16.8-42.089C28.269,273.926,42.957,268.436,59.158,268.436
					 M58.75,355.338c12.479,0,25.071-9.077,25.071-29.354c0-14.612-7.626-29.355-24.664-29.355c-6.83,0-12.976,2.568-17.307,7.23
					c-4.812,5.18-7.356,12.831-7.356,22.126c0,9.238,2.47,16.859,7.142,22.038C45.894,352.739,51.971,355.338,58.75,355.338
					 M59.158,267.436C25.907,267.436,0,289.875,0,325.983c0,36.106,25.295,58.546,58.75,58.546s59.566-22.439,59.566-58.546
					C118.317,289.876,92.613,267.436,59.158,267.436L59.158,267.436z M58.75,354.338c-12.648,0-23.255-9.18-23.255-28.354
					c0-19.38,11.016-28.355,23.663-28.355c12.24,0,23.664,8.976,23.664,28.355C82.821,345.158,71.194,354.338,58.75,354.338
					L58.75,354.338z"/>
			</g>
			<g>
				<path class="st1" d="M191.623,224.016c1.505,0,3.062,0.036,4.642,0.106v27.574c-0.735-0.031-1.442-0.047-2.112-0.047
					c-5.924,0-9.864,1.227-12.399,3.86c-2.487,2.583-3.645,6.568-3.645,12.54v1.02v1h1h17.768v26.968h-17.768h-1v1v83.861h-32.883
					v-83.861v-1h-1h-11.648v-26.968h11.648h1v-1v-3.264c0-13.687,3.948-24.183,11.734-31.198
					C164.761,227.579,176.423,224.016,191.623,224.016 M191.623,223.016c-31.023,0-47.397,14.665-47.397,42.788v3.264h-12.648
					v28.968h12.648v84.861h34.883v-84.861h18.768v-28.968h-18.768v-1.02c0-11.058,3.96-15.4,15.044-15.4
					c0.981,0,2.018,0.034,3.112,0.1v-29.58C195.332,223.067,193.454,223.016,191.623,223.016L191.623,223.016z"/>
			</g>
		</g>
		<g class="st0">
			<g>
				<path class="st1" d="M334.384,240.693c16.379,0,29.792,4.465,38.788,12.912c8.401,7.888,12.842,19.02,12.842,32.191
					c0,12.167-4.377,23.18-12.324,31.009c-9.088,8.954-22.68,13.686-39.307,13.686H312.76h-1v1v50.406h-32.883V240.693H334.384
					 M311.76,304.747h1h18.972c13.599,0,20.787-6.553,20.787-18.951c0-12.398-7.188-18.951-20.787-18.951H312.76h-1v1v35.902
					V304.747 M334.384,239.693h-56.507v143.204h34.883v-51.406h21.624c36.515,0,52.63-22.032,52.63-45.695
					C387.014,259.48,369.471,239.693,334.384,239.693L334.384,239.693z M312.76,303.747v-35.902h18.972
					c13.872,0,19.787,6.936,19.787,17.951c0,11.016-5.916,17.951-19.787,17.951H312.76L312.76,303.747z"/>
			</g>
			<g>
				<path class="st1" d="M442.93,232.941v148.956h-32.883V232.941H442.93 M443.93,231.941h-34.883v150.956h34.883V231.941
					L443.93,231.941z"/>
			</g>
			<g>
				<path class="st1" d="M516.35,268.436c15.037,0,27.515,6.294,34.234,17.269l1.853,3.026v-3.548v-15.115h32.883v111.829h-32.883
					v-15.115v-3.451l-1.845,2.916c-6.949,10.983-19.504,17.282-34.446,17.282c-13.452,0-25.756-5.531-34.644-15.574
					c-9.378-10.596-14.334-25.18-14.334-42.176c0-16.979,4.964-31.491,14.356-41.968C490.411,273.897,502.78,268.436,516.35,268.436
					 M526.55,355.134c15.242,0,25.887-11.987,25.887-29.15c0-17.164-10.645-29.151-25.887-29.151
					c-12.468,0-25.887,9.059-25.887,28.947c0,8.806,2.705,16.301,7.824,21.675C513.202,352.407,519.618,355.134,526.55,355.134
					 M516.35,267.436c-27.947,0-50.183,22.439-50.183,58.343c0,35.902,22.235,58.75,49.979,58.75
					c16.932,0,28.967-7.752,35.291-17.747v16.115h34.883V269.068h-34.883v16.115C545.317,275.188,533.282,267.436,516.35,267.436
					L516.35,267.436z M526.55,354.134c-13.056,0-24.887-10.199-24.887-28.354c0-18.156,11.832-27.947,24.887-27.947
					c13.26,0,24.887,9.995,24.887,28.151C551.437,344.139,539.809,354.134,526.55,354.134L526.55,354.134z"/>
			</g>
			<g>
				<path class="st1" d="M730.257,270.068L659.71,435.956h-35.326l25.475-56.524l0.179-0.397l-0.169-0.402l-45.723-108.565h36.76
					l26.074,70.541l0.942,2.548l0.935-2.55l25.871-70.539L730.257,270.068 M731.769,269.068H694.03l-26.111,71.194l-26.315-71.194
					H602.64l46.307,109.953l-26.111,57.935h37.535L731.769,269.068L731.769,269.068z"/>
			</g>
			<g>
				<path class="st1" d="M782.178,232.941v148.956h-32.884V232.941H782.178 M783.178,231.941h-34.884v150.956h34.884V231.941
					L783.178,231.941z"/>
			</g>
			<g>
				<path class="st1" d="M829.893,220.498c11.359,0,19.604,7.558,19.604,17.971c0,10.296-8.245,17.768-19.604,17.768
					c-11.477,0-19.808-7.473-19.808-17.768C810.086,228.055,818.416,220.498,829.893,220.498 M846.233,270.068v111.829h-32.884
					V270.068H846.233 M829.893,219.498c-12.444,0-20.808,8.363-20.808,18.971c0,10.405,8.363,18.768,20.808,18.768
					c12.239,0,20.604-8.363,20.604-18.768C850.497,227.861,842.133,219.498,829.893,219.498L829.893,219.498z M847.233,269.068
					h-34.884v113.829h34.884V269.068L847.233,269.068z"/>
			</g>
			<g>
				<path class="st1" d="M920.264,268.436c26.603,0,44.024,13.716,46.822,36.759h-30.258c-1.452-8.067-7.96-12.852-17.584-12.852
					c-12.318,0-13.647,6.833-13.647,9.771c0,7.975,10.252,10.447,22.123,13.31c17.704,4.269,39.737,9.582,40.095,34.426
					c0,9.453-4.246,17.966-11.956,23.971c-8.155,6.351-19.617,9.708-33.147,9.708c-28.162,0-49.089-15.143-51.333-36.963h32.506
					c1.287,7.97,8.566,13.26,18.42,13.26c8.91,0,14.667-3.996,14.667-10.18c0-8.11-10.413-10.537-22.47-13.346
					c-17.618-4.105-39.543-9.214-39.543-33.573C874.958,285.659,888.967,268.436,920.264,268.436 M920.264,267.436
					c-29.783,0-46.307,15.911-46.307,35.291c0,41.819,62.014,28.56,62.014,46.919c0,5.1-4.691,9.18-13.667,9.18
					c-9.588,0-16.728-5.304-17.544-13.26h-34.475c1.632,22.031,22.031,38.963,52.426,38.963c28.56,0,46.104-14.892,46.104-34.679
					c-0.612-42.432-62.219-29.579-62.219-47.735c0-5.508,4.488-8.771,12.647-8.771c9.792,0,15.708,5.1,16.728,12.852h32.231
					C965.959,283.756,949.639,267.436,920.264,267.436L920.264,267.436z"/>
			</g>
			<g>
				<path class="st1" d="M1033.505,242.325v26.743v1h1h21.847v26.968h-21.847h-1v1v45.694c0,7.421,3.471,10.588,11.607,10.588
					h11.443v27.579h-16.747c-26.369,0-39.188-12.618-39.188-38.575v-45.286v-1h-1h-12.871v-26.968h12.871h1v-1v-26.743
					L1033.505,242.325 M1034.505,241.325h-34.884v27.743H985.75v28.968h13.871v45.286c0,29.579,16.523,39.575,40.188,39.575h17.747
					v-29.579h-12.443c-7.752,0-10.607-2.856-10.607-9.588v-45.694h22.847v-28.968h-22.847L1034.505,241.325L1034.505,241.325z"/>
			</g>
			<g>
				<path class="st1" d="M1122.964,240.693l-22.012,52.67h-21.58l10.219-52.67H1122.964 M1124.466,239.693h-35.699l-10.607,54.67
					h23.459L1124.466,239.693L1124.466,239.693z"/>
			</g>
			<g>
				<path class="st1" d="M1192.601,268.436c26.603,0,44.024,13.716,46.822,36.759h-30.258c-1.452-8.067-7.96-12.852-17.584-12.852
					c-12.318,0-13.647,6.833-13.647,9.771c0,7.975,10.252,10.447,22.123,13.31c17.704,4.269,39.737,9.582,40.095,34.426
					c0,9.453-4.246,17.966-11.956,23.971c-8.155,6.351-19.617,9.708-33.147,9.708c-28.162,0-49.089-15.143-51.334-36.963h32.507
					c1.287,7.97,8.566,13.26,18.42,13.26c8.91,0,14.667-3.996,14.667-10.18c0-8.11-10.413-10.537-22.47-13.346
					c-17.618-4.105-39.543-9.214-39.543-33.573C1147.295,285.659,1161.304,268.436,1192.601,268.436 M1192.601,267.436
					c-29.783,0-46.307,15.911-46.307,35.291c0,41.819,62.014,28.56,62.014,46.919c0,5.1-4.691,9.18-13.667,9.18
					c-9.588,0-16.728-5.304-17.544-13.26h-34.476c1.633,22.031,22.032,38.963,52.427,38.963c28.56,0,46.104-14.892,46.104-34.679
					c-0.612-42.432-62.219-29.579-62.219-47.735c0-5.508,4.488-8.771,12.647-8.771c9.792,0,15.708,5.1,16.728,12.852h32.231
					C1238.296,283.756,1221.976,267.436,1192.601,267.436L1192.601,267.436z"/>
			</g>
		</g>
		<g class="st0">
			<g>
				<path class="st1" d="M1440.305,232.941v148.956h-32.883v-15.319v-3.57l-1.854,3.051c-6.749,11.103-19.226,17.471-34.232,17.471
					c-13.542,0-25.91-5.531-34.824-15.575c-9.394-10.585-14.359-25.168-14.359-42.175c0-16.979,4.964-31.491,14.356-41.968
					c8.888-9.915,21.257-15.375,34.827-15.375c14.182,0,27.308,6.474,34.255,16.895l1.832,2.748v-3.303v-51.835h32.882
					 M1381.534,355.134c15.242,0,25.887-11.987,25.887-29.15c0-17.164-10.645-29.151-25.887-29.151
					c-12.468,0-25.887,9.059-25.887,28.947c0,8.806,2.705,16.301,7.824,21.675C1368.187,352.407,1374.602,355.134,1381.534,355.134
					 M1441.305,231.941h-34.883v52.835c-6.936-10.404-19.991-17.34-35.087-17.34c-27.947,0-50.183,22.439-50.183,58.343
					c0,35.902,22.235,58.75,50.183,58.75c16.728,0,28.763-7.548,35.087-17.951v16.319h34.883V231.941L1441.305,231.941z
					 M1381.534,354.134c-13.056,0-24.887-10.199-24.887-28.354c0-18.156,11.832-27.947,24.887-27.947
					c13.26,0,24.887,9.995,24.887,28.151C1406.422,344.139,1394.794,354.134,1381.534,354.134L1381.534,354.134z"/>
			</g>
			<g>
				<path class="st1" d="M1540.059,268.857v34.911h-8.588c-19.003,0-27.111,7.864-27.111,26.295v51.835h-32.883v-111.83h32.883
					v17.972v3.326l1.834-2.775C1514.412,276.16,1526.407,269.181,1540.059,268.857 M1541.059,267.845
					c-15.3,0-27.743,8.159-35.699,20.195v-18.972h-34.883v113.829h34.883v-52.835c0-19.583,9.588-25.295,26.111-25.295h9.588
					V267.845L1541.059,267.845z"/>
			</g>
			<g>
				<path class="st1" d="M1604.911,268.436c15.036,0,27.514,6.294,34.234,17.269l1.853,3.026v-3.548v-15.115h32.883v111.829h-32.883
					v-15.115v-3.451l-1.845,2.916c-6.949,10.983-19.504,17.282-34.446,17.282c-13.452,0-25.756-5.531-34.644-15.574
					c-9.378-10.596-14.334-25.18-14.334-42.176c0-16.979,4.964-31.491,14.356-41.968
					C1578.972,273.897,1591.341,268.436,1604.911,268.436 M1615.11,355.134c15.242,0,25.888-11.987,25.888-29.15
					c0-17.164-10.645-29.151-25.888-29.151c-12.468,0-25.887,9.059-25.887,28.947c0,8.806,2.705,16.301,7.823,21.675
					C1601.763,352.407,1608.178,355.134,1615.11,355.134 M1604.911,267.436c-27.947,0-50.183,22.439-50.183,58.343
					c0,35.902,22.235,58.75,49.979,58.75c16.932,0,28.967-7.752,35.291-17.747v16.115h34.883V269.068h-34.883v16.115
					C1633.878,275.188,1621.843,267.436,1604.911,267.436L1604.911,267.436z M1615.11,354.134
					c-13.056,0-24.887-10.199-24.887-28.354c0-18.156,11.831-27.947,24.887-27.947c13.26,0,24.888,9.995,24.888,28.151
					C1639.998,344.139,1628.37,354.134,1615.11,354.134L1615.11,354.134z"/>
			</g>
			<g>
				<path class="st1" d="M1849.297,268.845c13.659,0,25.068,4.321,32.992,12.497c8.057,8.311,12.315,20.433,12.315,35.054v65.502
					h-32.68v-60.811c0-15.06-8.533-24.051-22.827-24.051s-22.827,8.991-22.827,24.051v60.811h-32.68v-60.811
					c0-15.06-8.533-24.051-22.827-24.051s-22.827,8.991-22.827,24.051v60.811h-32.884v-111.83h32.884v13.279v3.055l1.806-2.463
					c7.034-9.593,18.86-15.094,32.445-15.094c16.859,0,30.315,7.354,37.889,20.708l0.827,1.458l0.89-1.42
					C1819.819,276.794,1834.189,268.845,1849.297,268.845 M1849.297,267.845c-16.523,0-30.803,9.18-38.351,21.215
					c-7.752-13.667-21.623-21.215-38.759-21.215c-14.892,0-26.52,6.323-33.251,15.503v-14.279h-34.884v113.828h34.884v-61.81
					c0-14.892,8.567-23.051,21.827-23.051s21.827,8.159,21.827,23.051v61.811h34.68v-61.811c0-14.892,8.567-23.051,21.827-23.051
					s21.827,8.159,21.827,23.051v61.811h34.68v-66.502C1895.604,285.796,1877.448,267.845,1849.297,267.845L1849.297,267.845z"/>
			</g>
			<g>
				<path class="st1" d="M1967.21,268.436c15.036,0,27.514,6.294,34.234,17.269l1.853,3.026v-3.548v-15.115h32.884v111.829h-32.884
					v-15.115v-3.451l-1.845,2.917c-6.948,10.983-19.503,17.282-34.446,17.282c-13.452,0-25.756-5.531-34.644-15.574
					c-9.378-10.596-14.334-25.18-14.334-42.176c0-16.979,4.964-31.491,14.356-41.968
					C1941.271,273.897,1953.639,268.436,1967.21,268.436 M1977.41,355.134c15.242,0,25.887-11.987,25.887-29.15
					c0-17.164-10.645-29.151-25.887-29.151c-12.468,0-25.888,9.059-25.888,28.947c0,8.806,2.705,16.301,7.824,21.675
					C1964.063,352.407,1970.478,355.134,1977.41,355.134 M1967.21,267.436c-27.947,0-50.183,22.439-50.183,58.343
					c0,35.902,22.235,58.75,49.979,58.75c16.932,0,28.968-7.752,35.291-17.747v16.115h34.884V269.068h-34.884v16.115
					C1996.177,275.188,1984.141,267.436,1967.21,267.436L1967.21,267.436z M1977.41,354.134c-13.056,0-24.888-10.199-24.888-28.354
					c0-18.156,11.832-27.947,24.888-27.947c13.259,0,24.887,9.995,24.887,28.151C2002.297,344.139,1990.669,354.134,1977.41,354.134
					L1977.41,354.134z"/>
			</g>
		</g>
		<g class="st0">
			<g>
				<path class="st1" d="M2167.364,268.436c15.037,0,27.515,6.294,34.234,17.269l1.853,3.026v-3.549v-15.115h32.884v111.83h-32.884
					v-15.115v-3.451l-1.845,2.917c-6.948,10.983-19.503,17.282-34.446,17.282c-13.452,0-25.756-5.531-34.644-15.574
					c-9.378-10.596-14.334-25.18-14.334-42.176c0-16.979,4.964-31.491,14.356-41.968
					C2141.425,273.897,2153.794,268.436,2167.364,268.436 M2177.564,355.134c15.242,0,25.887-11.987,25.887-29.15
					c0-17.164-10.645-29.151-25.887-29.151c-12.468,0-25.888,9.059-25.888,28.947c0,8.806,2.705,16.301,7.824,21.675
					C2164.217,352.407,2170.632,355.134,2177.564,355.134 M2167.364,267.436c-27.947,0-50.183,22.439-50.183,58.343
					c0,35.902,22.235,58.75,49.979,58.75c16.932,0,28.968-7.752,35.291-17.747v16.115h34.884V269.068h-34.884v16.115
					C2196.332,275.188,2184.296,267.436,2167.364,267.436L2167.364,267.436z M2177.564,354.134
					c-13.056,0-24.888-10.199-24.888-28.354c0-18.156,11.832-27.947,24.888-27.947c13.26,0,24.887,9.995,24.887,28.151
					C2202.451,344.139,2190.824,354.134,2177.564,354.134L2177.564,354.134z"/>
			</g>
			<g>
				<path class="st1" d="M2335.865,268.845c26.436,0,42.858,18.22,42.858,47.551v65.502h-32.679v-60.811
					c0-15.699-8.533-25.071-22.827-25.071s-22.828,9.372-22.828,25.071v60.811h-32.883v-111.83h32.883v14.096v3.088l1.81-2.502
					C2309.512,274.642,2321.783,268.845,2335.865,268.845 M2335.865,267.845c-15.3,0-27.539,6.731-34.476,16.319v-15.096h-34.883
					v113.829h34.883v-61.81c0-15.504,8.568-24.071,21.828-24.071c13.259,0,21.827,8.567,21.827,24.071v61.811h34.679v-66.502
					C2379.723,285.796,2362.18,267.845,2335.865,267.845L2335.865,267.845z"/>
			</g>
			<g>
				<path class="st1" d="M2520.094,232.941v148.956h-32.883v-15.319v-3.57l-1.854,3.051c-6.75,11.103-19.227,17.471-34.232,17.471
					c-13.542,0-25.91-5.531-34.823-15.575c-9.394-10.585-14.359-25.168-14.359-42.175c0-16.979,4.964-31.491,14.356-41.968
					c8.888-9.915,21.257-15.375,34.827-15.375c14.183,0,27.308,6.474,34.255,16.895l1.832,2.748v-3.303v-51.835h32.881
					 M2461.324,355.134c15.242,0,25.888-11.987,25.888-29.15c0-17.164-10.646-29.151-25.888-29.151
					c-12.468,0-25.887,9.059-25.887,28.947c0,8.806,2.705,16.301,7.823,21.675C2447.977,352.406,2454.392,355.134,2461.324,355.134
					 M2521.094,231.941h-34.883v52.835c-6.936-10.404-19.991-17.34-35.087-17.34c-27.947,0-50.183,22.439-50.183,58.343
					c0,35.902,22.235,58.75,50.183,58.75c16.728,0,28.763-7.548,35.087-17.951v16.319h34.883V231.941L2521.094,231.941z
					 M2461.324,354.134c-13.056,0-24.887-10.199-24.887-28.354c0-18.156,11.831-27.947,24.887-27.947
					c13.26,0,24.888,9.995,24.888,28.151C2486.212,344.139,2474.584,354.134,2461.324,354.134L2461.324,354.134z"/>
			</g>
		</g>
		<g class="st0">
			<g>
				<path class="st1" d="M2746.339,268.845c13.659,0,25.068,4.321,32.992,12.497c8.056,8.311,12.315,20.433,12.315,35.054v65.502
					h-32.679v-60.811c0-15.06-8.533-24.051-22.827-24.051s-22.828,8.991-22.828,24.051v60.811h-32.679v-60.811
					c0-15.06-8.533-24.051-22.827-24.051s-22.828,8.991-22.828,24.051v60.811h-32.883v-111.83h32.883v13.279v3.054l1.806-2.463
					c7.035-9.593,18.861-15.094,32.445-15.094c16.859,0,30.316,7.354,37.89,20.708l0.827,1.457l0.89-1.42
					C2716.861,276.794,2731.231,268.845,2746.339,268.845 M2746.339,267.845c-16.523,0-30.803,9.18-38.351,21.215
					c-7.752-13.667-21.624-21.215-38.76-21.215c-14.892,0-26.519,6.323-33.251,15.503v-14.279h-34.883v113.828h34.883v-61.81
					c0-14.892,8.568-23.051,21.828-23.051c13.259,0,21.827,8.159,21.827,23.051v61.811h34.679v-61.811
					c0-14.892,8.568-23.051,21.828-23.051c13.259,0,21.827,8.159,21.827,23.051v61.811h34.679v-66.502
					C2792.645,285.796,2774.49,267.845,2746.339,267.845L2746.339,267.845z"/>
			</g>
			<g>
				<path class="st1" d="M2932.406,270.068v111.829h-32.884v-14.504v-3.142l-1.816,2.564c-7.339,10.362-19.607,16.306-33.658,16.306
					c-12.777,0-23.554-4.342-31.166-12.557c-7.783-8.399-11.896-20.5-11.896-34.994v-65.502h32.679v60.811
					c0,15.465,8.747,25.071,22.827,25.071c14.421,0,23.031-9.372,23.031-25.071v-60.811L2932.406,270.068 M2933.406,269.068h-34.884
					v61.811c0,15.504-8.567,24.071-22.031,24.071c-13.056,0-21.827-8.567-21.827-24.071v-61.811h-34.679v66.502
					c0,30.396,17.747,48.551,44.062,48.551c15.3,0,27.539-6.936,34.475-16.728v15.504h34.884L2933.406,269.068L2933.406,269.068z"/>
			</g>
			<g>
				<path class="st1" d="M3006.234,268.436c26.604,0,44.025,13.716,46.823,36.759h-30.259c-1.452-8.067-7.96-12.852-17.584-12.852
					c-12.318,0-13.647,6.833-13.647,9.771c0,7.975,10.252,10.447,22.123,13.31c17.704,4.269,39.736,9.582,40.094,34.426
					c0,9.453-4.246,17.966-11.956,23.971c-8.155,6.351-19.616,9.708-33.147,9.708c-28.163,0-49.09-15.143-51.334-36.963h32.507
					c1.286,7.97,8.565,13.26,18.419,13.26c8.91,0,14.668-3.996,14.668-10.18c0-8.11-10.413-10.537-22.471-13.346
					c-17.618-4.105-39.544-9.214-39.544-33.573C2960.928,285.659,2974.937,268.436,3006.234,268.436 M3006.234,267.436
					c-29.783,0-46.307,15.911-46.307,35.291c0,41.819,62.015,28.56,62.015,46.919c0,5.1-4.691,9.18-13.668,9.18
					c-9.587,0-16.728-5.304-17.543-13.26h-34.476c1.632,22.031,22.031,38.963,52.427,38.963c28.56,0,46.103-14.892,46.103-34.679
					c-0.611-42.432-62.218-29.579-62.218-47.735c0-5.508,4.487-8.771,12.647-8.771c9.792,0,15.708,5.1,16.728,12.852h32.231
					C3051.93,283.756,3035.61,267.436,3006.234,267.436L3006.234,267.436z"/>
			</g>
			<g>
				<path class="st1" d="M3097.627,220.498c11.359,0,19.604,7.558,19.604,17.971c0,10.296-8.244,17.768-19.604,17.768
					c-11.477,0-19.808-7.473-19.808-17.768C3077.819,228.055,3086.15,220.498,3097.627,220.498 M3113.967,270.068v111.829h-32.884
					V270.068H3113.967 M3097.627,219.498c-12.443,0-20.808,8.363-20.808,18.971c0,10.405,8.364,18.768,20.808,18.768
					c12.24,0,20.604-8.363,20.604-18.768C3118.23,227.861,3109.867,219.498,3097.627,219.498L3097.627,219.498z M3114.967,269.068
					h-34.884v113.829h34.884V269.068L3114.967,269.068z"/>
			</g>
			<g>
				<path class="st1" d="M3194.322,268.436c13.805,0,25.981,3.815,35.211,11.033c8.955,7.003,15.234,17.29,18.207,29.806h-35.179
					c-3.305-8.545-9.81-13.056-18.85-13.056c-13.783,0-22.012,11.127-22.012,29.764c0,18.636,8.229,29.763,22.012,29.763
					c9.246,0,15.417-4.272,18.846-13.056h35.174c-6.259,25.602-26.137,40.839-53.409,40.839c-16.353,0-30.322-5.339-40.397-15.439
					c-10.285-10.311-15.721-24.871-15.721-42.107c0-17.16,5.437-31.694,15.722-42.032
					C3164.025,273.801,3177.994,268.436,3194.322,268.436 M3194.322,267.436c-33.455,0-57.118,22.644-57.118,58.547
					c0,36.106,23.663,58.546,57.118,58.546c28.56,0,48.755-16.523,54.671-42.839h-37.127c-3.06,8.364-8.567,13.056-18.155,13.056
					c-12.444,0-21.012-9.792-21.012-28.763c0-18.972,8.567-28.764,21.012-28.764c9.588,0,15.299,5.1,18.155,13.056h37.127
					C3243.077,283.144,3222.882,267.436,3194.322,267.436L3194.322,267.436z"/>
			</g>
		</g>
	</g>
</g>
</svg>
