<?xml version="1.0" encoding="utf-8"?>
<!-- Generator: Adobe Illustrator 24.3.0, SVG Export Plug-In . SVG Version: 6.00 Build 0)  -->
<svg version="1.1" id="레이어_1" xmlns="http://www.w3.org/2000/svg" xmlns:xlink="http://www.w3.org/1999/xlink" x="0px"
	 y="0px" viewBox="0 0 3302.5 436.9" style="enable-background:new 0 0 3302.5 436.9;" xml:space="preserve">
<style type="text/css">
	.st0{enable-background:new    ;}
	.st1{fill:#7F00FF;}
</style>
<g>
	<g class="st0">
		<g>
			<path class="st1" d="M740.7,21.2v25.9h-57.3h-1v1v30.2v1h1H726v25.1h-42.7h-1v1v56.9h-32.9V21.2H740.7 M741.7,20.2h-93.2v143.2
				h34.9v-57.9H727V78.3h-43.7V48.1h58.3L741.7,20.2L741.7,20.2z"/>
		</g>
		<g>
			<path class="st1" d="M816.1,48.9c16.3,0,31,5.5,41.4,15.5c10.9,10.4,16.7,25,16.7,42.1s-5.9,31.6-16.9,42.1
				c-10.5,10-25.3,15.5-41.6,15.5c-16.2,0-30.9-5.5-41.2-15.5c-10.8-10.4-16.5-25-16.5-42.1s5.8-31.6,16.8-42.1
				C785.2,54.4,799.9,48.9,816.1,48.9 M815.7,135.8c12.5,0,25.1-9.1,25.1-29.4c0-14.6-7.6-29.4-24.7-29.4c-6.8,0-13,2.6-17.3,7.2
				c-4.8,5.2-7.4,12.8-7.4,22.1c0,9.2,2.5,16.9,7.1,22C802.9,133.2,808.9,135.8,815.7,135.8 M816.1,47.9
				c-33.3,0-59.2,22.4-59.2,58.5s25.3,58.5,58.8,58.5s59.6-22.4,59.6-58.5C875.3,70.4,849.6,47.9,816.1,47.9L816.1,47.9z
				 M815.7,134.8c-12.6,0-23.3-9.2-23.3-28.4c0-19.4,11-28.4,23.7-28.4c12.2,0,23.7,9,23.7,28.4
				C839.8,125.7,828.2,134.8,815.7,134.8L815.7,134.8z"/>
		</g>
		<g>
			<path class="st1" d="M967.3,49.4v34.9h-8.6c-19,0-27.1,7.9-27.1,26.3v51.8h-32.9V50.6h32.9v18v3.3l1.8-2.8
				C941.7,56.7,953.7,49.7,967.3,49.4 M968.3,48.3c-15.3,0-27.7,8.2-35.7,20.2v-19h-34.9v113.8h34.9v-52.8
				c0-19.6,9.6-25.3,26.1-25.3h9.6L968.3,48.3L968.3,48.3z"/>
		</g>
	</g>
	<g class="st0">
		<g>
			<path class="st1" d="M1105.8,48.9c16.2,0,30.1,5.2,40.1,15.1c10.2,10,15.6,24.1,15.6,40.6c0,3-0.2,6.1-0.5,9.2h-78h-1.1l0.1,1.1
				c1.2,14.2,9.6,22.7,22.6,22.7c10.9,0,16.2-5.9,18.8-11h35.2c-2.9,10.5-9,19.6-17.8,26.2c-9.6,7.3-21.7,11.1-35,11.1
				c-16.4,0-30.4-5.3-40.6-15.4c-10.4-10.3-15.9-24.9-15.9-42.1c0-17.3,5.5-31.8,15.8-42.1C1075.2,54.3,1089.3,48.9,1105.8,48.9
				 M1082,96.5h1.2h43.7h1v-1c0-12.1-9.2-20.6-22.4-20.6c-12.3,0-21.2,7.8-23.2,20.4L1082,96.5 M1105.8,47.9
				c-33.9,0-57.5,22.4-57.5,58.5s24.1,58.5,57.5,58.5c28.4,0,48.6-17.1,54.1-39.4h-37.1c-2.9,6.1-8.4,11-18.2,11
				c-11.2,0-20.4-6.9-21.6-21.8h78.9c0.4-3.5,0.6-6.9,0.6-10.2C1162.6,70,1139.1,47.9,1105.8,47.9L1105.8,47.9z M1083.2,95.5
				c2-12.6,10.8-19.6,22.2-19.6c11.6,0,21.4,7.1,21.4,19.6H1083.2L1083.2,95.5z"/>
		</g>
		<g>
			<path class="st1" d="M1296.4,50.6l-39.7,111.8h-41.6l-39.7-111.8h35.2l24.5,80.5l1,3.1l1-3.1l24.5-80.5L1296.4,50.6 M1297.8,49.6
				h-37.1l-24.7,81.2l-24.7-81.2H1174l40.4,113.8h43L1297.8,49.6L1297.8,49.6z"/>
		</g>
		<g>
			<path class="st1" d="M1367,48.9c16.2,0,30.1,5.2,40.1,15.1c10.2,10,15.6,24.1,15.6,40.6c0,3-0.2,6.1-0.5,9.2h-78.1h-1.1l0.1,1.1
				c1.2,14.2,9.6,22.7,22.6,22.7c10.9,0,16.2-5.9,18.8-11h35.2c-2.9,10.5-9,19.6-17.8,26.2c-9.6,7.3-21.7,11.1-35,11.1
				c-16.4,0-30.4-5.3-40.6-15.4c-10.4-10.3-15.9-24.9-15.9-42.1c0-17.3,5.5-31.8,15.8-42.1C1336.3,54.3,1350.4,48.9,1367,48.9
				 M1343.1,96.5h1.2h43.7h1v-1c0-12.1-9.2-20.6-22.4-20.6c-12.3,0-21.2,7.8-23.2,20.4L1343.1,96.5 M1367,47.9
				c-33.9,0-57.5,22.4-57.5,58.5s24.1,58.5,57.5,58.5c28.4,0,48.6-17.1,54.1-39.4H1384c-2.9,6.1-8.4,11-18.2,11
				c-11.2,0-20.4-6.9-21.6-21.8h78.9c0.4-3.5,0.6-6.9,0.6-10.2C1423.7,70,1400.2,47.9,1367,47.9L1367,47.9z M1344.3,95.5
				c2-12.6,10.8-19.6,22.2-19.6c11.6,0,21.4,7.1,21.4,19.6H1344.3L1344.3,95.5z"/>
		</g>
		<g>
			<path class="st1" d="M1515.3,49.3c26.4,0,42.9,18.2,42.9,47.6v65.5h-32.7v-60.8c0-15.7-8.5-25.1-22.8-25.1s-22.8,9.4-22.8,25.1
				v60.8H1447V50.6h32.9v14.1v3.1l1.8-2.5C1488.9,55.1,1501.2,49.3,1515.3,49.3 M1515.3,48.3c-15.3,0-27.5,6.7-34.5,16.3v-15h-34.9
				v113.8h34.9v-61.8c0-15.5,8.6-24.1,21.8-24.1c13.3,0,21.8,8.6,21.8,24.1v61.8h34.7V96.9C1559.1,66.3,1541.6,48.3,1515.3,48.3
				L1515.3,48.3z"/>
		</g>
	</g>
	<g class="st0">
		<g>
			<path class="st1" d="M1784.5,49.3c13.7,0,25.1,4.3,33,12.5c8.1,8.3,12.3,20.4,12.3,35.1v65.5h-32.7v-60.8
				c0-15.1-8.5-24.1-22.8-24.1s-22.8,9-22.8,24.1v60.8h-32.7v-60.8c0-15.1-8.5-24.1-22.8-24.1s-22.8,9-22.8,24.1v60.8h-32.9V50.6
				h32.9v13.3V67l1.8-2.5c7-9.6,18.9-15.1,32.4-15.1c16.9,0,30.3,7.4,37.9,20.7l0.8,1.5l0.9-1.4C1755,57.3,1769.4,49.3,1784.5,49.3
				 M1784.5,48.3c-16.5,0-30.8,9.2-38.4,21.2c-7.8-13.7-21.6-21.2-38.8-21.2c-14.9,0-26.5,6.3-33.3,15.5V49.6h-34.9v113.8h34.9
				v-61.8c0-14.9,8.6-23.1,21.8-23.1c13.3,0,21.8,8.2,21.8,23.1v61.8h34.7v-61.8c0-14.9,8.6-23.1,21.8-23.1
				c13.3,0,21.8,8.2,21.8,23.1v61.8h34.7V96.9C1830.8,66.3,1812.6,48.3,1784.5,48.3L1784.5,48.3z"/>
		</g>
		<g>
			<path class="st1" d="M1911.4,48.9c16.3,0,31,5.5,41.4,15.5c10.9,10.4,16.7,25,16.7,42.1s-5.9,31.6-16.9,42.1
				c-10.5,10-25.3,15.5-41.6,15.5c-16.2,0-30.9-5.5-41.2-15.5c-10.8-10.4-16.5-25-16.5-42.1s5.8-31.6,16.8-42.1
				C1880.5,54.4,1895.2,48.9,1911.4,48.9 M1911,135.8c12.5,0,25.1-9.1,25.1-29.4c0-14.6-7.6-29.4-24.7-29.4c-6.8,0-13,2.6-17.3,7.2
				c-4.8,5.2-7.4,12.8-7.4,22.1c0,9.2,2.5,16.9,7.1,22C1898.1,133.2,1904.2,135.8,1911,135.8 M1911.4,47.9
				c-33.3,0-59.2,22.4-59.2,58.5s25.3,58.5,58.8,58.5s59.6-22.4,59.6-58.5S1944.8,47.9,1911.4,47.9L1911.4,47.9z M1911,134.8
				c-12.6,0-23.3-9.2-23.3-28.4c0-19.4,11-28.4,23.7-28.4c12.2,0,23.7,9,23.7,28.4C1935,125.7,1923.4,134.8,1911,134.8L1911,134.8z"
				/>
		</g>
		<g>
			<path class="st1" d="M2062.5,49.4v34.9h-8.6c-19,0-27.1,7.9-27.1,26.3v51.8h-32.9V50.6h32.9v18v3.3l1.8-2.8
				C2036.9,56.7,2048.9,49.7,2062.5,49.4 M2063.5,48.3c-15.3,0-27.7,8.2-35.7,20.2v-19h-34.9v113.8h34.9v-52.8
				c0-19.6,9.6-25.3,26.1-25.3h9.6L2063.5,48.3L2063.5,48.3z"/>
		</g>
		<g>
			<path class="st1" d="M2134.7,48.9c16.2,0,30.1,5.2,40.1,15.1c10.2,10,15.6,24.1,15.6,40.6c0,3-0.2,6.1-0.5,9.2h-78.1h-1.1
				l0.1,1.1c1.2,14.2,9.6,22.7,22.6,22.7c10.9,0,16.2-5.9,18.8-11h35.2c-2.9,10.5-9,19.6-17.8,26.2c-9.6,7.3-21.7,11.1-35,11.1
				c-16.4,0-30.4-5.3-40.6-15.4c-10.4-10.3-15.9-24.9-15.9-42.1c0-17.3,5.5-31.8,15.8-42.1C2104.1,54.3,2118.2,48.9,2134.7,48.9
				 M2110.9,96.5h1.2h43.7h1v-1c0-12.1-9.2-20.6-22.4-20.6c-12.3,0-21.2,7.8-23.2,20.4L2110.9,96.5 M2134.7,47.9
				c-33.9,0-57.5,22.4-57.5,58.5s24.1,58.5,57.5,58.5c28.4,0,48.6-17.1,54.1-39.4h-37.1c-2.9,6.1-8.4,11-18.2,11
				c-11.2,0-20.4-6.9-21.6-21.8h78.9c0.4-3.5,0.6-6.9,0.6-10.2C2191.4,70,2168,47.9,2134.7,47.9L2134.7,47.9z M2112.1,95.5
				c2-12.6,10.8-19.6,22.2-19.6c11.6,0,21.4,7.1,21.4,19.6H2112.1L2112.1,95.5z"/>
		</g>
	</g>
	<g class="st0">
		<g>
			<path class="st1" d="M2390.6,13.4v149h-32.9v-15.3v-3.6l-1.9,3.1c-6.7,11.1-19.2,17.5-34.2,17.5c-13.5,0-25.9-5.5-34.8-15.6
				c-9.4-10.6-14.4-25.2-14.4-42.2s5-31.5,14.4-42c8.9-9.9,21.3-15.4,34.8-15.4c14.2,0,27.3,6.5,34.3,16.9l1.8,2.7v-3.3V13.4H2390.6
				 M2331.8,135.6c15.2,0,25.9-12,25.9-29.1c0-17.2-10.6-29.2-25.9-29.2c-12.5,0-25.9,9.1-25.9,28.9c0,8.8,2.7,16.3,7.8,21.7
				C2318.5,132.9,2324.9,135.6,2331.8,135.6 M2391.6,12.4h-34.9v52.8c-6.9-10.4-20-17.3-35.1-17.3c-27.9,0-50.2,22.4-50.2,58.3
				s22.2,58.7,50.2,58.7c16.7,0,28.8-7.5,35.1-18v16.3h34.9V12.4L2391.6,12.4z M2331.8,134.6c-13.1,0-24.9-10.2-24.9-28.4
				s11.8-27.9,24.9-27.9c13.3,0,24.9,10,24.9,28.2C2356.7,124.6,2345.1,134.6,2331.8,134.6L2331.8,134.6z"/>
		</g>
		<g>
			<path class="st1" d="M2471.4,48.9c16.2,0,30.1,5.2,40.1,15.1c10.2,10,15.6,24.1,15.6,40.6c0,3-0.2,6.1-0.5,9.2h-78.1h-1.1
				l0.1,1.1c1.2,14.2,9.6,22.7,22.6,22.7c10.9,0,16.2-5.9,18.8-11h35.2c-2.9,10.5-9,19.6-17.8,26.2c-9.6,7.3-21.7,11.1-35,11.1
				c-16.4,0-30.4-5.3-40.6-15.4c-10.4-10.3-15.9-24.9-15.9-42.1c0-17.3,5.5-31.8,15.8-42.1C2440.7,54.3,2454.8,48.9,2471.4,48.9
				 M2447.5,96.5h1.2h43.7h1v-1c0-12.1-9.2-20.6-22.4-20.6c-12.3,0-21.2,7.8-23.2,20.4L2447.5,96.5 M2471.4,47.9
				c-33.9,0-57.5,22.4-57.5,58.5s24.1,58.5,57.5,58.5c28.4,0,48.6-17.1,54.1-39.4h-37.1c-2.9,6.1-8.4,11-18.2,11
				c-11.2,0-20.4-6.9-21.6-21.8h78.9c0.4-3.5,0.6-6.9,0.6-10.2C2528.1,70,2504.6,47.9,2471.4,47.9L2471.4,47.9z M2448.7,95.5
				c2-12.6,10.8-19.6,22.2-19.6c11.6,0,21.4,7.1,21.4,19.6H2448.7L2448.7,95.5z"/>
		</g>
		<g>
			<path class="st1" d="M2584.2,13.4v149h-32.9v-149L2584.2,13.4 M2585.2,12.4h-34.9v151h34.9V12.4L2585.2,12.4z"/>
		</g>
		<g>
			<path class="st1" d="M2631.9,1c11.4,0,19.6,7.6,19.6,18c0,10.3-8.2,17.8-19.6,17.8c-11.5,0-19.8-7.5-19.8-17.8
				C2612.1,8.6,2620.4,1,2631.9,1 M2648.3,50.6v111.8h-32.9V50.6H2648.3 M2631.9,0c-12.4,0-20.8,8.4-20.8,19
				c0,10.4,8.4,18.8,20.8,18.8c12.2,0,20.6-8.4,20.6-18.8C2652.5,8.4,2644.2,0,2631.9,0L2631.9,0z M2649.3,49.6h-34.9v113.8h34.9
				V49.6L2649.3,49.6z"/>
		</g>
		<g>
			<path class="st1" d="M2721.7,48.9c15.2,0,27.6,6.3,34.2,17.3l1.9,3.1v-3.6V50.6h32.9v112.6c0,15.7-4.6,29.2-13.4,38.9
				c-9.7,10.7-24.4,16.4-42.5,16.4c-16.3,0-30.3-4.1-40.4-11.8c-9.7-7.4-15.7-17.9-17.4-30.5h32.6c2.7,8.7,11.6,14.1,23.6,14.1
				c15.9,0,24.7-9.6,24.7-27.1v-16.1v-3.5l-1.8,2.9c-7,11.1-19.5,17.5-34.2,17.5c-13.5,0-25.9-5.5-34.8-15.6
				c-9.4-10.6-14.4-25.2-14.4-42.2s5-31.5,14.4-42C2695.7,54.4,2708.1,48.9,2721.7,48.9 M2731.9,135.6c15.2,0,25.9-12,25.9-29.1
				c0-17.2-10.6-29.2-25.9-29.2c-12.5,0-25.9,9.1-25.9,28.9c0,8.8,2.7,16.3,7.8,21.7C2718.5,132.9,2724.9,135.6,2731.9,135.6
				 M2721.7,47.9c-27.9,0-50.2,22.4-50.2,58.3s22.2,58.7,50.2,58.7c16.7,0,28.8-8,35.1-18V163c0,19.2-10.4,26.1-23.7,26.1
				c-12,0-20.6-5.5-22.8-14.1h-34.5c3.1,27.1,25.1,44.3,59,44.3c39.4,0,56.9-25.9,56.9-56.3V49.6h-34.9v16.1
				C2750.6,55.5,2738.4,47.9,2721.7,47.9L2721.7,47.9z M2731.9,134.6c-13.1,0-24.9-10.2-24.9-28.4s11.8-27.9,24.9-27.9
				c13.3,0,24.9,10,24.9,28.2C2756.8,124.6,2745.1,134.6,2731.9,134.6L2731.9,134.6z"/>
		</g>
		<g>
			<path class="st1" d="M2854.7,13.4v51.4V68l1.8-2.6c7.2-10.2,19.7-16.1,34.3-16.1c26.1,0,42.2,18.2,42.2,47.6v65.5h-32.7v-60.8
				c0-15.7-8.5-25.1-22.8-25.1s-22.8,9.4-22.8,25.1v60.8h-32.9v-149L2854.7,13.4 M2855.7,12.4h-34.9v151h34.9v-61.8
				c0-15.5,8.6-24.1,21.8-24.1s21.8,8.6,21.8,24.1v61.8h34.7V96.9c0-30.6-17.3-48.6-43.2-48.6c-15.7,0-28.2,6.7-35.1,16.5V12.4
				L2855.7,12.4z"/>
		</g>
		<g>
			<path class="st1" d="M3001.6,22.8v26.7v1h1h21.8v27h-21.8h-1v1v45.7c0,7.4,3.5,10.6,11.6,10.6h11.4v27.6h-16.7
				c-26.4,0-39.2-12.6-39.2-38.6V78.5v-1h-1h-12.9v-27h12.9h1v-1V22.8H3001.6 M3002.6,21.8h-34.9v27.7h-13.9v29h13.9v45.3
				c0,29.6,16.5,39.6,40.2,39.6h17.7v-29.6h-12.4c-7.8,0-10.6-2.9-10.6-9.6V78.5h22.8v-29h-22.8V21.8L3002.6,21.8z"/>
		</g>
		<g>
			<path class="st1" d="M3099.7,4.5c1.5,0,3.1,0,4.6,0.1v27.6c-0.7,0-1.4,0-2.1,0c-5.9,0-9.9,1.2-12.4,3.9
				c-2.5,2.6-3.6,6.6-3.6,12.5v1v1h1h17.8v27h-17.8h-1v1v83.9h-32.9v-84v-1h-1h-11.6v-27h11.6h1v-1v-3.3c0-13.7,3.9-24.2,11.7-31.2
				C3072.9,8.1,3084.5,4.5,3099.7,4.5 M3099.7,3.5c-31,0-47.4,14.7-47.4,42.8v3.3h-12.6v29h12.6v84.9h34.9v-85h18.8v-29h-18.8v-1
				c0-11.1,4-15.4,15-15.4c1,0,2,0,3.1,0.1V3.7C3103.5,3.6,3101.6,3.5,3099.7,3.5L3099.7,3.5z"/>
		</g>
		<g>
			<path class="st1" d="M3237.6,50.6v111.8h-32.9v-14.5v-3.1l-1.8,2.6c-7.3,10.4-19.6,16.3-33.7,16.3c-12.8,0-23.6-4.3-31.2-12.6
				c-7.8-8.4-11.9-20.5-11.9-35V50.6h32.7v60.8c0,15.5,8.7,25.1,22.8,25.1c14.4,0,23-9.4,23-25.1V50.6H3237.6 M3238.6,49.6h-34.9
				v61.8c0,15.5-8.6,24.1-22,24.1c-13.1,0-21.8-8.6-21.8-24.1V49.6h-34.7v66.5c0,30.4,17.7,48.6,44.1,48.6
				c15.3,0,27.5-6.9,34.5-16.7v15.5h34.9L3238.6,49.6L3238.6,49.6z"/>
		</g>
		<g>
			<path class="st1" d="M3301.5,13.4v149h-32.9v-149L3301.5,13.4 M3302.5,12.4h-34.9v151h34.9V12.4L3302.5,12.4z"/>
		</g>
	</g>
</g>
<g>
	<g class="st0">
		<g>
			<path class="st1" d="M121.6,220.5l-54.2,68.6l-0.5,0.6l0.5,0.6l56.3,71.4H83.5l-47.8-62.8l-1.8-2.4v3v62.2H1V220.5h32.9v61.8v3
				l1.8-2.4l47.4-62.4L121.6,220.5 M123.6,219.5h-41l-47.7,62.8v-62.8H0v143.2h34.9v-63.2L83,362.7h42.6l-57.5-73L123.6,219.5
				L123.6,219.5z"/>
		</g>
		<g>
			<path class="st1" d="M232.8,277.6v27H145v-27H232.8 M233.8,276.6H144v29h89.8V276.6L233.8,276.6z"/>
		</g>
		<g>
			<path class="st1" d="M338.2,248.2c13.6,0,25.9,5.5,34.8,15.4c9.4,10.5,14.4,25,14.4,42s-5,31.6-14.4,42.2
				c-8.9,10-21.3,15.6-34.8,15.6c-14.6,0-27.1-6.2-34.3-17.1l-1.8-2.8v3.3V416h-32.9V249.9h32.9V265v3.5l1.8-2.9
				C310.9,254.5,323.4,248.2,338.2,248.2 M327.8,334.9c7,0,13.5-2.7,18.2-7.7c5.1-5.4,7.9-12.9,7.9-21.7c0-19.9-13.5-28.9-26.1-28.9
				c-6.9,0-13.4,2.7-18.1,7.6c-5.1,5.3-7.8,12.8-7.8,21.6s2.7,16.3,7.8,21.6C314.5,332.2,320.9,334.9,327.8,334.9 M338.2,247.2
				c-16.7,0-28.8,7.8-35.1,17.7v-16.1h-34.9v168.1h34.9v-70.1c6.3,9.6,18.4,17.5,35.1,17.5c27.9,0,50.2-22.8,50.2-58.8
				C388.4,269.7,366.2,247.2,338.2,247.2L338.2,247.2z M327.8,333.9c-13.1,0-24.9-10-24.9-28.1c0-18.2,11.8-28.2,24.9-28.2
				c13.3,0,25.1,9.8,25.1,27.9C352.9,323.7,341.1,333.9,327.8,333.9L327.8,333.9z"/>
		</g>
		<g>
			<path class="st1" d="M462.9,248.2c16.3,0,31,5.5,41.4,15.5c10.9,10.4,16.7,25,16.7,42.1c0,17.1-5.9,31.6-16.9,42.1
				c-10.5,10-25.3,15.5-41.6,15.5c-16.2,0-30.9-5.5-41.2-15.5c-10.8-10.4-16.5-25-16.5-42.1c0-17.1,5.8-31.6,16.8-42.1
				C432,253.7,446.7,248.2,462.9,248.2 M462.5,335.1c12.5,0,25.1-9.1,25.1-29.4c0-14.6-7.6-29.4-24.7-29.4c-6.8,0-13,2.6-17.3,7.2
				c-4.8,5.2-7.4,12.8-7.4,22.1c0,9.2,2.5,16.9,7.1,22C449.6,332.5,455.7,335.1,462.5,335.1 M462.9,247.2
				c-33.3,0-59.2,22.4-59.2,58.5c0,36.1,25.3,58.5,58.8,58.5s59.5-22.3,59.5-58.4C522,269.7,496.3,247.2,462.9,247.2L462.9,247.2z
				 M462.5,334.1c-12.6,0-23.3-9.2-23.3-28.4c0-19.4,11-28.4,23.7-28.4c12.2,0,23.7,9,23.7,28.4C486.5,325,474.9,334.1,462.5,334.1
				L462.5,334.1z"/>
		</g>
		<g>
			<path class="st1" d="M614.4,248.2c13.6,0,25.9,5.5,34.8,15.4c9.4,10.5,14.4,25,14.4,42s-5,31.6-14.4,42.2
				c-8.9,10-21.3,15.6-34.8,15.6c-14.6,0-27.1-6.2-34.3-17.1l-1.8-2.8v3.3V416h-32.9V249.9h32.9V265v3.5l1.8-2.9
				C587.1,254.5,599.6,248.2,614.4,248.2 M604,334.9c7,0,13.5-2.7,18.2-7.7c5.1-5.4,7.9-12.9,7.9-21.7c0-19.9-13.5-28.9-26.1-28.9
				c-6.9,0-13.4,2.7-18.1,7.6c-5.1,5.3-7.8,12.8-7.8,21.6s2.7,16.3,7.8,21.6C590.7,332.2,597.1,334.9,604,334.9 M614.4,247.2
				c-16.7,0-28.8,7.8-35.1,17.7v-16.1h-34.9v168.1h34.9v-70.1c6.3,9.6,18.4,17.5,35.1,17.5c27.9,0,50.2-22.8,50.2-58.8
				C664.6,269.7,642.4,247.2,614.4,247.2L614.4,247.2z M604,333.9c-13.1,0-24.9-10-24.9-28.1c0-18.2,11.8-28.2,24.9-28.2
				c13.3,0,25.1,9.8,25.1,27.9C629.1,323.7,617.3,333.9,604,333.9L604,333.9z"/>
		</g>
	</g>
	<g>
		<g>
			<path class="st1" d="M890,248.6c13.7,0,25.1,4.3,33,12.5c8.1,8.3,12.3,20.4,12.3,35.1v65.5h-32.7v-60.8
				c0-15.1-8.5-24.1-22.8-24.1s-22.8,9-22.8,24.1v60.8h-32.7v-60.8c0-15.1-8.5-24.1-22.8-24.1s-22.8,9-22.8,24.1v60.8h-32.9V249.9
				h32.9v13.3v3.1l1.8-2.5c7-9.6,18.9-15.1,32.4-15.1c16.9,0,30.3,7.4,37.9,20.7l0.8,1.5l0.9-1.4C860.5,256.6,874.9,248.6,890,248.6
				 M890,247.6c-16.5,0-30.8,9.2-38.4,21.2c-7.8-13.7-21.6-21.2-38.8-21.2c-14.9,0-26.5,6.3-33.3,15.5v-14.3h-34.9v113.8h34.9v-61.8
				c0-14.9,8.6-23.1,21.8-23.1c13.3,0,21.8,8.2,21.8,23.1v61.8h34.7v-61.8c0-14.9,8.6-23.1,21.8-23.1c13.3,0,21.8,8.2,21.8,23.1
				v61.8h34.7v-66.5C936.3,265.6,918.1,247.6,890,247.6L890,247.6z"/>
		</g>
		<g>
			<path class="st1" d="M1076,249.9v111.8h-32.9v-14.5v-3.1l-1.8,2.6c-7.3,10.4-19.6,16.3-33.7,16.3c-12.8,0-23.6-4.3-31.2-12.6
				c-7.8-8.4-11.9-20.5-11.9-35v-65.5h32.7v60.8c0,15.5,8.7,25.1,22.8,25.1c14.4,0,23-9.4,23-25.1v-60.8L1076,249.9 M1077,248.9
				h-34.9v61.8c0,15.5-8.6,24.1-22,24.1c-13.1,0-21.8-8.6-21.8-24.1v-61.8h-34.7v66.5c0,30.4,17.7,48.6,44.1,48.6
				c15.3,0,27.5-6.9,34.5-16.7v15.5h34.9L1077,248.9L1077,248.9z"/>
		</g>
		<g>
			<path class="st1" d="M1149.9,248.2c26.6,0,44,13.7,46.8,36.8h-30.3c-1.5-8.1-8-12.9-17.6-12.9c-12.3,0-13.6,6.8-13.6,9.8
				c0,8,10.3,10.4,22.1,13.3c17.7,4.3,39.7,9.6,40.1,34.4c0,9.5-4.2,18-12,24c-8.2,6.4-19.6,9.7-33.1,9.7c-28.2,0-49.1-15.1-51.3-37
				h32.5c1.3,8,8.6,13.3,18.4,13.3c8.9,0,14.7-4,14.7-10.2c0-8.1-10.4-10.5-22.5-13.3c-17.6-4.1-39.5-9.2-39.5-33.6
				C1104.6,265.5,1118.6,248.2,1149.9,248.2 M1149.9,247.2c-29.8,0-46.3,15.9-46.3,35.3c0,41.8,62,28.6,62,46.9
				c0,5.1-4.7,9.2-13.7,9.2c-9.6,0-16.7-5.3-17.5-13.3h-34.5c1.6,22,22,39,52.4,39c28.6,0,46.1-14.9,46.1-34.7
				c-0.6-42.4-62.2-29.6-62.2-47.7c0-5.5,4.5-8.8,12.6-8.8c9.8,0,15.7,5.1,16.7,12.9h32.2C1195.6,263.6,1179.2,247.2,1149.9,247.2
				L1149.9,247.2z"/>
		</g>
		<g>
			<path class="st1" d="M1241.3,200.3c11.4,0,19.6,7.6,19.6,18c0,10.3-8.2,17.8-19.6,17.8c-11.5,0-19.8-7.5-19.8-17.8
				C1221.4,207.9,1229.8,200.3,1241.3,200.3 M1257.6,249.9v111.8h-32.9V249.9H1257.6 M1241.3,199.3c-12.4,0-20.8,8.4-20.8,19
				c0,10.4,8.4,18.8,20.8,18.8c12.2,0,20.6-8.4,20.6-18.8C1261.9,207.7,1253.5,199.3,1241.3,199.3L1241.3,199.3z M1258.6,248.9
				h-34.9v113.8h34.9V248.9L1258.6,248.9z"/>
		</g>
		<g>
			<path class="st1" d="M1337.9,248.2c13.8,0,26,3.8,35.2,11c9,7,15.2,17.3,18.2,29.8h-35.2c-3.3-8.5-9.8-13.1-18.8-13.1
				c-13.8,0-22,11.1-22,29.8c0,18.6,8.2,29.8,22,29.8c9.2,0,15.4-4.3,18.8-13.1h35.2c-6.3,25.6-26.1,40.8-53.4,40.8
				c-16.4,0-30.3-5.3-40.4-15.4c-10.3-10.3-15.7-24.9-15.7-42.1s5.4-31.7,15.7-42C1307.6,253.6,1321.6,248.2,1337.9,248.2
				 M1337.9,247.2c-33.5,0-57.1,22.6-57.1,58.5c0,36.1,23.7,58.5,57.1,58.5c28.6,0,48.8-16.5,54.7-42.8h-37.1
				c-3.1,8.4-8.6,13.1-18.2,13.1c-12.4,0-21-9.8-21-28.8s8.6-28.8,21-28.8c9.6,0,15.3,5.1,18.2,13.1h37.1
				C1386.7,262.9,1366.5,247.2,1337.9,247.2L1337.9,247.2z"/>
		</g>
	</g>
	<g>
		<g>
			<path class="st1" d="M1530.1,248.2c16.2,0,30.1,5.2,40.1,15.1c10.2,10,15.6,24.1,15.6,40.6c0,3-0.2,6.1-0.5,9.2h-78.1h-1.1
				l0.1,1.1c1.2,14.2,9.6,22.7,22.6,22.7c10.9,0,16.2-5.9,18.8-11h35.2c-2.9,10.5-9,19.6-17.8,26.2c-9.6,7.3-21.7,11.1-35,11.1
				c-16.4,0-30.4-5.3-40.6-15.4c-10.4-10.3-15.9-24.9-15.9-42.1c0-17.3,5.5-31.8,15.8-42.1C1499.5,253.6,1513.6,248.2,1530.1,248.2
				 M1506.3,295.8h1.2h43.7h1v-1c0-12.1-9.2-20.6-22.4-20.6c-12.3,0-21.2,7.8-23.2,20.4L1506.3,295.8 M1530.1,247.2
				c-33.9,0-57.5,22.4-57.5,58.5c0,36.1,24.1,58.5,57.5,58.5c28.4,0,48.6-17.1,54.1-39.4h-37.1c-2.9,6.1-8.4,11-18.2,11
				c-11.2,0-20.4-6.9-21.6-21.8h78.9c0.4-3.5,0.6-6.9,0.6-10.2C1586.9,269.3,1563.4,247.2,1530.1,247.2L1530.1,247.2z M1507.5,294.8
				c2-12.6,10.8-19.6,22.2-19.6c11.6,0,21.4,7.1,21.4,19.6H1507.5L1507.5,294.8z"/>
		</g>
		<g>
			<path class="st1" d="M1712.7,249.9l-37.1,55.8l-0.4,0.6l0.4,0.6l38.1,54.9H1677l-21.5-31.2l-0.9-1.3l-0.8,1.4l-18.1,31.1h-35.3
				l36.5-56.6l0.4-0.6l-0.4-0.5l-37.5-54.1h36.7l21.5,31l0.9,1.3l0.8-1.4l18.1-30.9L1712.7,249.9 M1714.6,248.9h-37.7l-18.4,31.4
				l-21.8-31.4h-39.2l38.6,55.7l-37.5,58.1h37.7l18.4-31.6l21.8,31.6h39.2l-39.2-56.5L1714.6,248.9L1714.6,248.9z"/>
		</g>
		<g>
			<path class="st1" d="M1802.9,248.2c13.6,0,25.9,5.5,34.8,15.4c9.4,10.5,14.4,25,14.4,42s-5,31.6-14.4,42.2
				c-8.9,10-21.3,15.6-34.8,15.6c-14.6,0-27.1-6.2-34.3-17.1l-1.8-2.8v3.3V416h-32.9V249.9h32.9V265v3.5l1.8-2.9
				C1775.6,254.5,1788.1,248.2,1802.9,248.2 M1792.5,334.9c7,0,13.5-2.7,18.2-7.7c5.1-5.4,7.9-12.9,7.9-21.7
				c0-19.9-13.5-28.9-26.1-28.9c-6.9,0-13.4,2.7-18.1,7.6c-5.1,5.3-7.8,12.8-7.8,21.6s2.7,16.3,7.8,21.6
				C1779.1,332.2,1785.5,334.9,1792.5,334.9 M1802.9,247.2c-16.7,0-28.8,7.8-35.1,17.7v-16.1h-34.9v168.1h34.9v-70.1
				c6.3,9.6,18.4,17.5,35.1,17.5c27.9,0,50.2-22.8,50.2-58.8C1853.1,269.7,1830.8,247.2,1802.9,247.2L1802.9,247.2z M1792.5,333.9
				c-13.1,0-24.9-10-24.9-28.1c0-18.2,11.8-28.2,24.9-28.2c13.3,0,25.1,9.8,25.1,27.9C1817.6,323.7,1805.7,333.9,1792.5,333.9
				L1792.5,333.9z"/>
		</g>
		<g>
			<path class="st1" d="M1925.9,248.2c16.2,0,30.1,5.2,40.1,15.1c10.2,10,15.6,24.1,15.6,40.6c0,3-0.2,6.1-0.5,9.2h-78h-1.1l0.1,1.1
				c1.2,14.2,9.6,22.7,22.6,22.7c10.9,0,16.2-5.9,18.8-11h35.2c-2.9,10.5-9,19.6-17.8,26.2c-9.6,7.3-21.7,11.1-35,11.1
				c-16.4,0-30.4-5.3-40.6-15.4c-10.4-10.3-15.9-24.9-15.9-42.1c0-17.3,5.5-31.8,15.8-42.1C1895.3,253.6,1909.4,248.2,1925.9,248.2
				 M1902.1,295.8h1.2h43.7h1v-1c0-12.1-9.2-20.6-22.4-20.6c-12.3,0-21.2,7.8-23.2,20.4L1902.1,295.8 M1925.9,247.2
				c-33.9,0-57.5,22.4-57.5,58.5c0,36.1,24.1,58.5,57.5,58.5c28.4,0,48.6-17.1,54.1-39.4h-37.1c-2.9,6.1-8.4,11-18.2,11
				c-11.2,0-20.4-6.9-21.6-21.8h78.9c0.4-3.5,0.6-6.9,0.6-10.2C1982.6,269.3,1959.2,247.2,1925.9,247.2L1925.9,247.2z M1903.3,294.8
				c2-12.6,10.8-19.6,22.2-19.6c11.6,0,21.4,7.1,21.4,19.6H1903.3L1903.3,294.8z"/>
		</g>
		<g>
			<path class="st1" d="M2074.4,248.7v34.9h-8.6c-19,0-27.1,7.9-27.1,26.3v51.8h-32.9V249.9h32.9v18v3.3l1.8-2.8
				C2048.8,256,2060.8,249,2074.4,248.7 M2075.4,247.6c-15.3,0-27.7,8.2-35.7,20.2v-19h-34.9v113.8h34.9v-52.8
				c0-19.6,9.6-25.3,26.1-25.3h9.6L2075.4,247.6L2075.4,247.6z"/>
		</g>
		<g>
			<path class="st1" d="M2113.6,200.3c11.4,0,19.6,7.6,19.6,18c0,10.3-8.2,17.8-19.6,17.8c-11.5,0-19.8-7.5-19.8-17.8
				C2093.8,207.9,2102.1,200.3,2113.6,200.3 M2129.9,249.9v111.8H2097V249.9H2129.9 M2113.6,199.3c-12.4,0-20.8,8.4-20.8,19
				c0,10.4,8.4,18.8,20.8,18.8c12.2,0,20.6-8.4,20.6-18.8C2134.2,207.7,2125.8,199.3,2113.6,199.3L2113.6,199.3z M2130.9,248.9H2096
				v113.8h34.9V248.9L2130.9,248.9z"/>
		</g>
		<g>
			<path class="st1" d="M2210.7,248.2c16.2,0,30.1,5.2,40.1,15.1c10.2,10,15.6,24.1,15.6,40.6c0,3-0.2,6.1-0.5,9.2h-78.1h-1.1
				l0.1,1.1c1.2,14.2,9.6,22.7,22.6,22.7c10.9,0,16.2-5.9,18.8-11h35.2c-2.9,10.5-9,19.6-17.8,26.2c-9.6,7.3-21.7,11.1-35,11.1
				c-16.4,0-30.4-5.3-40.6-15.4c-10.4-10.3-15.9-24.9-15.9-42.1c0-17.3,5.5-31.8,15.8-42.1C2180.1,253.6,2194.1,248.2,2210.7,248.2
				 M2186.9,295.8h1.2h43.7h1v-1c0-12.1-9.2-20.6-22.4-20.6c-12.3,0-21.2,7.8-23.2,20.4L2186.9,295.8 M2210.7,247.2
				c-33.9,0-57.5,22.4-57.5,58.5c0,36.1,24.1,58.5,57.5,58.5c28.4,0,48.6-17.1,54.1-39.4h-37.1c-2.9,6.1-8.4,11-18.2,11
				c-11.2,0-20.4-6.9-21.6-21.8h78.9c0.4-3.5,0.6-6.9,0.6-10.2C2267.4,269.3,2243.9,247.2,2210.7,247.2L2210.7,247.2z M2188,294.8
				c2-12.6,10.8-19.6,22.2-19.6c11.6,0,21.4,7.1,21.4,19.6H2188L2188,294.8z"/>
		</g>
		<g>
			<path class="st1" d="M2359,248.6c26.4,0,42.9,18.2,42.9,47.6v65.5h-32.7v-60.8c0-15.7-8.5-25.1-22.8-25.1s-22.8,9.4-22.8,25.1
				v60.8h-32.9V249.9h32.9V264v3.1l1.8-2.5C2332.6,254.4,2344.9,248.6,2359,248.6 M2359,247.6c-15.3,0-27.5,6.7-34.5,16.3v-15.1
				h-34.9v113.8h34.9v-61.8c0-15.5,8.6-24.1,21.8-24.1s21.8,8.6,21.8,24.1v61.8h34.7v-66.5C2402.8,265.6,2385.3,247.6,2359,247.6
				L2359,247.6z"/>
		</g>
		<g>
			<path class="st1" d="M2481.2,248.2c13.8,0,26,3.8,35.2,11c9,7,15.2,17.3,18.2,29.8h-35.2c-3.3-8.5-9.8-13.1-18.9-13.1
				c-13.8,0-22,11.1-22,29.8c0,18.6,8.2,29.8,22,29.8c9.2,0,15.4-4.3,18.8-13.1h35.2c-6.3,25.6-26.1,40.8-53.4,40.8
				c-16.4,0-30.3-5.3-40.4-15.4c-10.3-10.3-15.7-24.9-15.7-42.1s5.4-31.7,15.7-42C2450.9,253.6,2464.9,248.2,2481.2,248.2
				 M2481.2,247.2c-33.5,0-57.1,22.6-57.1,58.5c0,36.1,23.7,58.5,57.1,58.5c28.6,0,48.8-16.5,54.7-42.8h-37.1
				c-3.1,8.4-8.6,13.1-18.2,13.1c-12.4,0-21-9.8-21-28.8s8.6-28.8,21-28.8c9.6,0,15.3,5.1,18.2,13.1h37.1
				C2529.9,262.9,2509.7,247.2,2481.2,247.2L2481.2,247.2z"/>
		</g>
		<g>
			<path class="st1" d="M2608.9,248.2c16.2,0,30.1,5.2,40.1,15.1c10.2,10,15.6,24.1,15.6,40.6c0,3-0.2,6.1-0.5,9.2H2586h-1.1
				l0.1,1.1c1.2,14.2,9.6,22.7,22.6,22.7c10.9,0,16.2-5.9,18.8-11h35.2c-2.9,10.5-9,19.6-17.8,26.2c-9.6,7.3-21.7,11.1-35,11.1
				c-16.4,0-30.4-5.3-40.6-15.4c-10.4-10.3-15.9-24.9-15.9-42.1c0-17.3,5.5-31.8,15.8-42.1C2578.3,253.6,2592.4,248.2,2608.9,248.2
				 M2585.1,295.8h1.2h43.7h1v-1c0-12.1-9.2-20.6-22.4-20.6c-12.3,0-21.2,7.8-23.2,20.4L2585.1,295.8 M2608.9,247.2
				c-33.9,0-57.5,22.4-57.5,58.5c0,36.1,24.1,58.5,57.5,58.5c28.4,0,48.6-17.1,54.1-39.4h-37.1c-2.9,6.1-8.4,11-18.2,11
				c-11.2,0-20.4-6.9-21.6-21.8h78.9c0.4-3.5,0.6-6.9,0.6-10.2C2665.6,269.3,2642.1,247.2,2608.9,247.2L2608.9,247.2z M2586.2,294.8
				c2-12.6,10.8-19.6,22.2-19.6c11.6,0,21.4,7.1,21.4,19.6H2586.2L2586.2,294.8z"/>
		</g>
	</g>
</g>
</svg>
