<?xml version="1.0" encoding="utf-8"?>
<!-- Generator: Adobe Illustrator 24.1.2, SVG Export Plug-In . SVG Version: 6.00 Build 0)  -->
<svg version="1.1" id="레이어_1" xmlns="http://www.w3.org/2000/svg" xmlns:xlink="http://www.w3.org/1999/xlink" x="0px"
	 y="0px" viewBox="0 0 174.52 29.615" style="enable-background:new 0 0 174.52 29.615;" xml:space="preserve">
<style type="text/css">
	.st0{fill:#FFFFFF;}
</style>
<g transform="translate(-906 -922.746)">
	<path class="st0" d="M919.015,923.476H906v20.181l0,0v8.7l10.88-8.7h2.135c5.573,0.055,10.135-4.419,10.189-9.992
		c0.055-5.573-4.419-10.135-9.992-10.189C919.147,923.475,919.081,923.475,919.015,923.476L919.015,923.476z M917.388,937.421
		h-3.331v-7.67h3.37c2.117,0.156,3.708,1.998,3.552,4.115C920.838,935.782,919.305,937.3,917.388,937.421z"/>
	<path class="st0" d="M939.831,923.476h-7.987v26.88h16.417v-7.035h-8.43L939.831,923.476z"/>
	<path class="st0" d="M959.682,923.476l-9.306,26.88h8.64l0.922-3.111h9.024l0.922,3.111h8.909l-9.537-26.88H959.682z
		 M961.627,941.447l2.841-9.907l2.842,9.907H961.627z"/>
	<path class="st0" d="M990.136,933.041l-4.339-9.562h-9.37l9.024,17.195l-4.647,9.685h8.986l13.325-26.88h-8.909L990.136,933.041z"
		/>
	<path class="st0" d="M1013.101,923.476h-7.987v26.88h16.417v-7.035h-8.43L1013.101,923.476z"/>
	<rect x="1024.632" y="923.476" class="st0" width="8.064" height="26.88"/>
	<path class="st0" d="M1048.031,933.345c-2.457-0.883-3.687-1.69-3.687-3.072c0-1.459,1.152-2.112,2.458-2.112
		c1.8,0,2.649,1.152,2.649,3.341h7.988c0-4.224-2.612-8.755-10.484-8.755c-5.376,0-10.637,2.266-10.637,7.8
		c0,5.491,4.416,7.1,9.37,9.024c2.841,1.114,4.07,1.728,4.07,3.226c0,1.421-1.037,2.3-2.649,2.3c-2.036,0-3.38-1.382-3.38-3.8
		h-7.987c0,6.3,4.339,9.792,11.059,9.792c6.8,0,10.982-3.226,10.982-8.794S1052.677,935,1048.031,933.345z"/>
	<path class="st0" d="M1059.871,923.476v7.036h6.331v19.845h7.984v-19.845h6.331v-7.036H1059.871z"/>
</g>
</svg>
