<svg xmlns="http://www.w3.org/2000/svg" width="174.52" height="29.615" viewBox="0 0 174.52 29.615"><g transform="translate(-906 -922.746)"><path d="M919.015,929.435H906v20.181h0v8.7l10.88-8.7h2.135a10.091,10.091,0,1,0,0-20.181Zm-1.627,13.945h-3.331v-7.67h3.37a3.844,3.844,0,0,1-.039,7.67Z" transform="translate(0 -5.959)" fill="#0073ff"/><path d="M1150.919,929.435h-7.987v26.88h16.417V949.28h-8.43Z" transform="translate(-211.088 -5.959)" fill="#0073ff"/><path d="M1322.143,929.435l-9.306,26.88h8.64l.922-3.111h9.024l.922,3.111h8.909l-9.537-26.88Zm1.945,17.971,2.841-9.907,2.842,9.907Z" transform="translate(-362.461 -5.959)" fill="#0073ff"/><path d="M1565.39,939l-4.339-9.562h-9.37l9.024,17.195-4.647,9.685h8.986l13.325-26.88h-8.909Z" transform="translate(-575.254 -5.959)" fill="#0073ff"/><path d="M1822.657,929.435h-7.987v26.88h16.417V949.28h-8.43Z" transform="translate(-809.556 -5.959)" fill="#0073ff"/><rect width="8.064" height="26.88" transform="translate(1024.632 923.476)" fill="#0073ff"/><path d="M2107.771,933.345c-2.457-.883-3.687-1.69-3.687-3.072,0-1.459,1.152-2.112,2.458-2.112,1.8,0,2.649,1.152,2.649,3.341h7.988c0-4.224-2.612-8.755-10.484-8.755-5.376,0-10.637,2.266-10.637,7.8,0,5.491,4.416,7.1,9.37,9.024,2.841,1.114,4.07,1.728,4.07,3.226,0,1.421-1.037,2.3-2.649,2.3-2.036,0-3.38-1.382-3.38-3.8h-7.987c0,6.3,4.339,9.792,11.059,9.792,6.8,0,10.982-3.226,10.982-8.794S2112.417,935,2107.771,933.345Z" transform="translate(-1059.74 0)" fill="#0073ff"/><path d="M2316.685,929.435v7.036h6.331v19.845H2331V936.471h6.331v-7.036Z" transform="translate(-1256.814 -5.959)" fill="#0073ff"/></g></svg>