<?xml version="1.0" standalone="no"?>
<!DOCTYPE svg PUBLIC "-//W3C//DTD SVG 20010904//EN"
 "http://www.w3.org/TR/2001/REC-SVG-20010904/DTD/svg10.dtd">
<svg version="1.0" xmlns="http://www.w3.org/2000/svg"
 width="676.000000pt" height="676.000000pt" viewBox="0 0 676.000000 676.000000"
 preserveAspectRatio="xMidYMid meet">
<metadata>
Created by potrace 1.11, written by Peter Selinger 2001-2013
</metadata>
<g transform="translate(0.000000,676.000000) scale(0.100000,-0.100000)"
fill="#000000" stroke="none">
<path d="M2708 6755 c-2 -2 -29 -7 -59 -10 -101 -9 -270 -38 -325 -56 -17 -5
-41 -12 -54 -14 -13 -2 -39 -10 -59 -17 -20 -7 -38 -13 -41 -13 -39 -10 -67
-19 -75 -24 -5 -4 -28 -13 -50 -20 -172 -57 -470 -226 -648 -368 -70 -56 -273
-253 -333 -323 -30 -36 -117 -150 -144 -190 -8 -12 -23 -33 -33 -45 -9 -13
-17 -28 -17 -33 0 -6 -4 -12 -8 -14 -8 -3 -47 -72 -116 -201 -101 -192 -201
-512 -232 -742 -3 -22 -8 -53 -12 -70 -3 -16 -8 -1062 -9 -2323 -3 -1855 -1
-2291 9 -2283 129 105 267 216 303 244 90 69 251 201 253 208 2 5 10 9 17 9 7
0 15 4 17 8 2 5 46 42 98 83 52 41 109 86 125 101 17 16 33 28 37 28 4 0 13 6
21 14 8 8 54 47 103 86 124 99 137 110 240 192 49 40 105 84 123 98 18 14 38
30 44 35 9 8 297 238 397 318 38 30 116 93 127 102 7 6 18 15 25 20 59 47 114
91 118 95 3 3 37 30 75 60 39 30 75 59 81 65 17 14 42 35 94 75 25 19 56 44
69 57 21 20 34 23 110 23 388 1 1112 9 1136 13 17 2 53 7 80 11 53 7 85 13
125 21 63 13 86 18 105 20 11 2 20 4 20 5 0 1 7 3 15 5 71 14 286 90 397 140
96 43 100 45 304 161 10 6 27 18 37 27 10 10 22 17 26 17 4 0 13 6 20 12 8 7
24 20 36 28 12 8 40 29 60 45 21 17 53 41 71 55 47 36 248 236 300 299 24 29
50 59 57 67 6 7 12 17 12 22 0 6 4 12 8 14 11 4 110 146 152 218 54 91 136
259 175 359 33 85 98 298 109 354 4 22 20 112 31 172 27 153 27 539 0 698 -11
68 -14 85 -30 162 -9 44 -20 91 -25 105 -6 14 -11 34 -13 45 -4 26 -60 198
-67 205 -3 3 -11 23 -19 45 -19 57 -119 256 -176 350 -134 222 -358 478 -535
613 -19 15 -37 30 -40 33 -12 14 -161 116 -240 164 -88 54 -250 135 -268 135
-6 0 -12 3 -14 8 -8 19 -344 129 -453 148 -16 3 -46 9 -65 14 -19 4 -62 11
-95 15 -32 4 -68 10 -80 13 -24 7 -1420 14 -1427 7z"/>
</g>
</svg>
